<svg width="24" height="24" viewBox="0 0 24 24" fill="none" xmlns="http://www.w3.org/2000/svg">
<path d="M12 0C5.37265 0 0 5.37265 0 12C0 17.6275 3.87457 22.3498 9.10129 23.6468V15.6672H6.62689V12H9.10129V10.4199C9.10129 6.33553 10.9498 4.44241 14.9597 4.44241C15.72 4.44241 17.0319 4.59169 17.5685 4.74049V8.06449C17.2853 8.03473 16.7933 8.01985 16.1823 8.01985C14.2147 8.01985 13.4544 8.76529 13.4544 10.7031V12H17.3741L16.7007 15.6672H13.4544V23.9122C19.3963 23.1946 24.0005 18.1354 24.0005 12C24 5.37265 18.6274 0 12 0Z" fill="#999999"/>
</svg>
