<svg width="24" height="24" viewBox="0 0 24 24" fill="none" xmlns="http://www.w3.org/2000/svg">
<g clip-path="url(#clip0_1062_4375)">
<path d="M12 2.1607C15.2063 2.1607 15.586 2.17476 16.8469 2.23101C18.0188 2.28257 18.6516 2.47945 19.0735 2.64351C19.6313 2.85913 20.0344 3.12163 20.4516 3.53882C20.8735 3.9607 21.1313 4.35914 21.3469 4.91695C21.511 5.33883 21.7078 5.97633 21.7594 7.14352C21.8157 8.40914 21.8297 8.78883 21.8297 11.9904C21.8297 15.1967 21.8157 15.5763 21.7594 16.8373C21.7078 18.0092 21.511 18.642 21.3469 19.0638C21.1313 19.6217 20.8688 20.0248 20.4516 20.442C20.0297 20.8638 19.6313 21.1217 19.0735 21.3373C18.6516 21.5013 18.0141 21.6982 16.8469 21.7498C15.5813 21.806 15.2016 21.8201 12 21.8201C8.79376 21.8201 8.41407 21.806 7.15314 21.7498C5.98126 21.6982 5.34844 21.5013 4.92657 21.3373C4.36876 21.1217 3.96563 20.8592 3.54844 20.442C3.12657 20.0201 2.86875 19.6217 2.65313 19.0638C2.48907 18.642 2.29219 18.0045 2.24063 16.8373C2.18438 15.5717 2.17032 15.192 2.17032 11.9904C2.17032 8.78414 2.18438 8.40445 2.24063 7.14352C2.29219 5.97164 2.48907 5.33883 2.65313 4.91695C2.86875 4.35914 3.13125 3.95601 3.54844 3.53882C3.97032 3.11695 4.36876 2.85913 4.92657 2.64351C5.34844 2.47945 5.98595 2.28257 7.15314 2.23101C8.41407 2.17476 8.79376 2.1607 12 2.1607ZM12 -0.000244141C8.7422 -0.000244141 8.33439 0.0138184 7.0547 0.0700684C5.7797 0.126319 4.90313 0.332569 4.14376 0.627882C3.35157 0.937257 2.68125 1.34507 2.01563 2.01538C1.34531 2.68101 0.937501 3.35132 0.628126 4.13882C0.332813 4.90289 0.126563 5.77476 0.0703126 7.04976C0.0140625 8.33414 0 8.74195 0 11.9998C0 15.2576 0.0140625 15.6654 0.0703126 16.9451C0.126563 18.2201 0.332813 19.0967 0.628126 19.856C0.937501 20.6482 1.34531 21.3185 2.01563 21.9842C2.68125 22.6498 3.35157 23.0623 4.13907 23.367C4.90313 23.6623 5.77501 23.8685 7.05001 23.9248C8.3297 23.981 8.73751 23.9951 11.9953 23.9951C15.2531 23.9951 15.661 23.981 16.9406 23.9248C18.2157 23.8685 19.0922 23.6623 19.8516 23.367C20.6391 23.0623 21.3094 22.6498 21.975 21.9842C22.6407 21.3185 23.0532 20.6482 23.3578 19.8607C23.6532 19.0967 23.8594 18.2248 23.9157 16.9498C23.9719 15.6701 23.986 15.2623 23.986 12.0045C23.986 8.74664 23.9719 8.33883 23.9157 7.05914C23.8594 5.78414 23.6532 4.90757 23.3578 4.1482C23.0625 3.35132 22.6547 2.68101 21.9844 2.01538C21.3188 1.34976 20.6485 0.937257 19.861 0.632569C19.0969 0.337256 18.225 0.131006 16.95 0.074756C15.6656 0.0138184 15.2578 -0.000244141 12 -0.000244141Z" fill="#999999"/>
<path d="M12 5.83618C8.59688 5.83618 5.83594 8.59712 5.83594 12.0003C5.83594 15.4034 8.59688 18.1643 12 18.1643C15.4031 18.1643 18.1641 15.4034 18.1641 12.0003C18.1641 8.59712 15.4031 5.83618 12 5.83618ZM12 15.9987C9.79219 15.9987 8.00157 14.2081 8.00157 12.0003C8.00157 9.79244 9.79219 8.00181 12 8.00181C14.2078 8.00181 15.9985 9.79244 15.9985 12.0003C15.9985 14.2081 14.2078 15.9987 12 15.9987Z" fill="#999999"/>
<path d="M19.8469 5.59239C19.8469 6.38926 19.2 7.03145 18.4078 7.03145C17.6109 7.03145 16.9688 6.38458 16.9688 5.59239C16.9688 4.79551 17.6156 4.15332 18.4078 4.15332C19.2 4.15332 19.8469 4.8002 19.8469 5.59239Z" fill="#999999"/>
</g>
<defs>
<clipPath id="clip0_1062_4375">
<rect width="24" height="24" fill="white"/>
</clipPath>
</defs>
</svg>
