<svg width="24" height="24" viewBox="0 0 24 24" fill="none" xmlns="http://www.w3.org/2000/svg">
<path d="M22.2235 0H1.77188C0.792189 0 0 0.773439 0 1.72969V22.2657C0 23.2219 0.792189 24 1.77188 24H22.2235C23.2032 24 24 23.2219 24 22.2703V1.72969C24 0.773439 23.2032 0 22.2235 0ZM7.12032 20.4516H3.55782V8.99532H7.12032V20.4516ZM5.33907 7.43439C4.19532 7.43439 3.27188 6.51095 3.27188 5.37188C3.27188 4.23282 4.19532 3.30938 5.33907 3.30938C6.47813 3.30938 7.40157 4.23282 7.40157 5.37188C7.40157 6.50626 6.47813 7.43439 5.33907 7.43439ZM20.4516 20.4516H16.8938V14.8828C16.8938 13.5563 16.8703 11.8453 15.0422 11.8453C13.1906 11.8453 12.9094 13.2938 12.9094 14.7891V20.4516H9.35626V8.99532H12.7688V10.561H12.8156C13.2891 9.66095 14.4516 8.70939 16.1813 8.70939C19.786 8.70939 20.4516 11.0813 20.4516 14.1656V20.4516Z" fill="#999999"/>
</svg>
