<svg width="39" height="39" viewBox="0 0 39 39" fill="none" xmlns="http://www.w3.org/2000/svg">
<path d="M38.8312 19.4156C38.8312 30.1385 30.1385 38.8312 19.4156 38.8312C8.69265 38.8312 0 30.1385 0 19.4156C0 8.69265 8.69265 0 19.4156 0C30.1385 0 38.8312 8.69265 38.8312 19.4156Z" fill="#007BFF"/>
<path d="M12.7592 28.161C12.2123 28.3827 11.6469 28.3665 11.0632 28.1124C10.4873 27.8617 10.0902 27.4589 9.87195 26.9041C9.665 26.3448 9.69031 25.7693 9.94789 25.1776L15.8876 11.5339C16.1486 10.9344 16.5525 10.5238 17.0995 10.3021C17.6577 10.0759 18.2248 10.0882 18.8007 10.3389C19.3845 10.593 19.7798 10.9997 19.9868 11.559C20.1972 12.1104 20.1719 12.6859 19.9108 13.2855L13.9712 26.9291C13.7102 27.5287 13.3062 27.9393 12.7592 28.161Z" fill="white"/>
<path d="M9.14738 14.3181C8.51627 14.0434 8.07033 13.5912 7.80956 12.9616C7.55222 12.324 7.56092 11.6897 7.83567 11.0586C8.10355 10.4433 8.55848 10.0126 9.20046 9.7666C9.84245 9.52058 10.479 9.53495 11.1101 9.80969C11.7254 10.0776 12.164 10.5359 12.4258 11.1848C12.6955 11.8371 12.6998 12.463 12.4388 13.0625C12.1709 13.6779 11.7064 14.109 11.0452 14.3561C10.3953 14.5987 9.7627 14.586 9.14738 14.3181Z" fill="#FFC107"/>
<path fill-rule="evenodd" clip-rule="evenodd" d="M25.8553 24.1471C27.2069 24.1471 28.3026 23.0514 28.3026 21.6998C28.3026 20.3481 27.2069 19.2524 25.8553 19.2524C24.5036 19.2524 23.4079 20.3481 23.4079 21.6998C23.4079 23.0514 24.5036 24.1471 25.8553 24.1471ZM25.8553 28.0629C29.3695 28.0629 32.2184 25.214 32.2184 21.6998C32.2184 18.1855 29.3695 15.3367 25.8553 15.3367C22.341 15.3367 19.4922 18.1855 19.4922 21.6998C19.4922 25.214 22.341 28.0629 25.8553 28.0629Z" fill="white"/>
</svg>
