<svg id="ezRGXa5Ug801" xmlns="http://www.w3.org/2000/svg" xmlns:xlink="http://www.w3.org/1999/xlink" viewBox="0 0 188 41" shape-rendering="geometricPrecision" text-rendering="geometricPrecision" project-id="e0ff5ff84afb4dc19c9dc1ca841c07ea" export-id="3d65b7f015a84b45b06d9bbe02ce340a" cached="false"><g transform="translate(-5.620939 0)"><path d="M38.8312,19.4156c0,10.7229-8.6927,19.4156-19.4156,19.4156s-19.4156-8.6927-19.4156-19.4156C0,8.69265,8.69265,0,19.4156,0s19.4156,8.69265,19.4156,19.4156Z" transform="translate(74.5844 1.0844)" fill="#007bff"/><path d="M12.7592,28.161c-.5469.2217-1.1123.2055-1.696-.0486-.5759-.2507-.973-.6535-1.19125-1.2083-.20695-.5593-.18164-1.1348.07594-1.7265L15.8876,11.5339c.261-.5995.6649-1.0101,1.2119-1.2318.5582-.2262,1.1253-.2139,1.7012.0368.5838.2541.9791.6608,1.1861,1.2201.2104.5514.1851,1.1269-.076,1.7265L13.9712,26.9291c-.261.5996-.665,1.0102-1.212,1.2319Z" transform="translate(74.5844 0)" fill="#fff"/><path d="M9.14738,14.3181c-.63111-.2747-1.07705-.7269-1.33782-1.3565-.25734-.6376-.24864-1.2719.02611-1.903.26788-.6153.72281-1.046,1.36479-1.292s1.27854-.23165,1.90964.04309c.6153.26791,1.0539.72621,1.3157,1.37511.2697.6523.274,1.2782.013,1.8777-.2679.6154-.7324,1.0465-1.3936,1.2936-.6499.2426-1.2825.2299-1.89782-.038Z" transform="translate(74.5844 0)" fill="#ffc107"/><path d="M25.8553,24.1471c1.3516,0,2.4473-1.0957,2.4473-2.4473s-1.0957-2.4474-2.4473-2.4474-2.4474,1.0957-2.4474,2.4474s1.0957,2.4473,2.4474,2.4473Zm0,3.9158c3.5142,0,6.3631-2.8489,6.3631-6.3631s-2.8489-6.3631-6.3631-6.3631-6.3631,2.8488-6.3631,6.3631s2.8488,6.3631,6.3631,6.3631Z" transform="translate(74.5844 0)" clip-rule="evenodd" fill="#fff" fill-rule="evenodd"/></g></svg>
