<svg width="33" height="33" viewBox="0 0 33 33" fill="none" xmlns="http://www.w3.org/2000/svg">
<path d="M21.5842 11.5H5.66667C3.36548 11.5 1.5 9.63452 1.5 7.33333C1.5 5.03215 3.36548 3.16667 5.66667 3.16667H21.5842M11.4158 29.8333H27.3333C29.6345 29.8333 31.5 27.9679 31.5 25.6667C31.5 23.3655 29.6345 21.5 27.3333 21.5H11.4158M1.5 25.6667C1.5 28.8883 4.11167 31.5 7.33333 31.5C10.555 31.5 13.1667 28.8883 13.1667 25.6667C13.1667 22.445 10.555 19.8333 7.33333 19.8333C4.11167 19.8333 1.5 22.445 1.5 25.6667ZM31.5 7.33333C31.5 10.555 28.8883 13.1667 25.6667 13.1667C22.445 13.1667 19.8333 10.555 19.8333 7.33333C19.8333 4.11167 22.445 1.5 25.6667 1.5C28.8883 1.5 31.5 4.11167 31.5 7.33333Z" stroke="#FFC107" stroke-width="3" stroke-linecap="round" stroke-linejoin="round"/>
</svg>
