<svg width="37" height="37" viewBox="0 0 37 37" fill="none" xmlns="http://www.w3.org/2000/svg">
<path d="M14.8333 27.5976V31.5C14.8333 33.341 16.3257 34.8333 18.1667 34.8333C20.0076 34.8333 21.5 33.3409 21.5 31.5V27.5976M18.1667 1.5V3.16667M3.16667 18.1667H1.5M7.33333 7.33333L6.33317 6.33317M29 7.33333L30.0004 6.33317M34.8333 18.1667H33.1667M28.1667 18.1667C28.1667 23.6895 23.6895 28.1667 18.1667 28.1667C12.6438 28.1667 8.16667 23.6895 8.16667 18.1667C8.16667 12.6438 12.6438 8.16667 18.1667 8.16667C23.6895 8.16667 28.1667 12.6438 28.1667 18.1667Z" stroke="#FFC107" stroke-width="3" stroke-linecap="round" stroke-linejoin="round"/>
</svg>
