<svg width="604" height="440" viewBox="0 0 604 440" fill="none" xmlns="http://www.w3.org/2000/svg">
<g clip-path="url(#clip0_297_2478)">
<path d="M235.496 255.944L199.418 150.944C179.061 157.85 158.298 163.489 137.247 167.831C137.247 167.831 134.232 255.566 157.97 301.981C222.59 428.868 300.681 328.868 300.681 328.868L343.164 147.453C343.164 147.453 281.088 135.566 235.496 255.944Z" fill="#D4FF8B"/>
<path d="M221.272 365.849C197.158 360.378 175.492 339.057 156.746 302.264C133.197 256.038 135.834 168.302 135.834 167.453V166.321H136.871C157.851 161.982 178.55 156.374 198.853 149.529L200.172 149.057V150.378L235.496 251.981C280.9 135.566 340.904 145.283 343.448 145.755H344.861V147.17L301.435 329.34C301.435 329.812 268.372 370.944 228.055 367.076C225.767 366.833 223.5 366.424 221.272 365.849ZM138.566 168.585C138.566 178.68 137.342 258.208 159.101 300.661C179.26 340.189 202.621 361.415 228.714 363.963C266.393 367.548 296.819 330.755 299.457 327.548L341.564 148.302C332.144 147.642 277.603 148.302 236.438 256.51L235.119 260L198.571 152.453C178.896 158.985 158.861 164.371 138.566 168.585Z" fill="black"/>
<path d="M237.003 269.34C237.003 269.34 240.771 251.321 236.155 248.868C231.54 246.415 226.076 271.038 226.076 271.038L237.003 269.34Z" fill="#137ABB"/>
<path d="M226.829 271.321L224.285 270.66C225.133 267.17 229.654 249.623 234.364 247.547C234.746 247.363 235.165 247.268 235.589 247.268C236.013 247.268 236.431 247.363 236.814 247.547C241.994 250.377 238.98 266.415 238.321 269.528H235.683C237.379 261.321 237.85 251.698 235.683 250.66C233.517 249.623 229.654 260.189 226.829 271.321Z" fill="black"/>
<path d="M405.522 140.283C347.308 140.283 310.099 168.585 303.976 194.623C286.738 269.057 285.137 286.321 282.688 437.83H543.24C541.356 276.321 539.472 252.359 513.662 188.868C501.51 158.774 479.279 140.283 405.522 140.283Z" fill="#D4FF8B"/>
<path d="M544.656 439.151H280.9V437.83C283.161 287.924 284.763 269.717 302.189 194.339C308.406 167.452 346.557 138.962 405.054 138.962C479.471 138.962 502.078 157.83 514.418 188.302C540.417 252.264 542.678 276.603 544.185 437.83L544.656 439.151ZM284.009 436.509H541.924C540.04 276.886 538.156 252.641 512.44 189.339C500.477 160.377 478.434 141.509 405.525 141.509C348.441 141.509 311.326 168.868 305.298 194.717C287.871 269.811 286.27 288.113 284.009 436.509Z" fill="black"/>
<path d="M293.898 217.925H314.716L343.729 156.793H329.694C329.694 156.793 303.13 167.17 293.898 217.925Z" fill="#D4FF8B"/>
<path d="M361.721 250C356.189 223.38 355.678 195.959 360.214 169.151C364.83 138.208 383.199 127.264 397.893 127.264C401.897 127.209 405.865 128.024 409.524 129.652C413.183 131.281 416.446 133.685 419.088 136.698C437.08 158.585 395.633 215.661 361.721 250Z" fill="#FFE9C0"/>
<path d="M397.516 128.68C401.356 128.705 405.146 129.561 408.625 131.19C412.104 132.818 415.191 135.18 417.675 138.114C435.195 158.774 395.444 213.585 362.474 247.642C357.594 221.924 357.275 195.546 361.532 169.717C366.054 139.623 383.763 129.057 397.516 129.057V128.68ZM397.516 125.944C381.22 125.944 363.322 139.057 358.895 168.868C353.935 196.619 354.672 225.091 361.061 252.548C389.321 224.246 440.659 160.661 419.653 136.038C416.946 132.811 413.554 130.23 409.724 128.484C405.894 126.737 401.724 125.87 397.516 125.944Z" fill="black"/>
<path d="M359.743 179.245C356.498 179.258 353.288 178.583 350.323 177.264C336.664 171.132 316.223 143.868 323.759 117.547C324.426 115.158 325.276 112.824 326.302 110.566C328.577 105.479 329.235 99.8141 328.186 94.3398C328.186 90.7549 328.186 87.736 328.186 84.9058C328.209 78.339 329.791 71.8718 332.802 66.0379C336.664 58.7737 346.743 54.6228 361.061 54.6228C374.79 54.2246 388.286 58.2236 399.589 66.0379C413.53 78.302 426.435 126.038 414.095 144.717C414.095 144.717 384.799 178.962 359.743 178.962V179.245Z" fill="#FFE9C0"/>
<path d="M360.496 55.7547C374.135 55.3708 387.537 59.3712 398.741 67.1697C412.305 79.2452 425.022 125.943 413.059 144.057C413.059 144.057 383.858 177.736 359.743 177.736C356.51 177.826 353.297 177.214 350.323 175.943C340.597 170.074 332.911 161.347 328.31 150.95C323.709 140.553 322.416 128.989 324.607 117.83C325.185 115.487 326.006 113.21 327.056 111.038C329.613 105.871 330.534 100.045 329.693 94.3396C329.693 90.849 329.693 87.8301 329.693 84.9056C329.737 78.5029 331.286 72.2006 334.215 66.5094C337.795 59.7169 347.403 55.7547 360.779 55.7547H360.496ZM360.496 53.1131C347.685 53.1131 336.099 56.6037 331.577 65.1886C328.432 71.2844 326.785 78.044 326.773 84.9056C326.595 88.0477 326.595 91.1974 326.773 94.3396C327.621 109.151 325.36 106.415 322.252 117.075C319.867 128.873 321.217 141.121 326.114 152.113C331.011 163.105 339.21 172.293 349.569 178.396C352.747 179.787 356.181 180.494 359.649 180.472C385.082 180.472 414.66 146.415 415.131 145.66C427.942 126.792 415.131 78.1131 400.436 65.1886C388.726 56.976 374.693 52.7433 360.402 53.1131H360.496Z" fill="black"/>
<path d="M328.846 133.679V133.208C330.165 130.472 334.121 123.774 334.121 123.774L332.331 122.642C332.331 122.642 328.375 129.717 326.962 132.076C326.797 132.396 326.711 132.752 326.711 133.113C326.711 133.474 326.797 133.83 326.962 134.151C327.904 137.076 333.65 139.906 334.309 140.283L335.157 138.396C332.991 137.547 329.694 135.283 328.846 133.679ZM358.613 155.944C358.613 158.396 358.613 159.057 357.859 159.245C355.222 161.415 346.744 159.245 342.034 156.887L341.186 158.774C345.414 160.674 349.94 161.824 354.562 162.17C356.191 162.253 357.805 161.824 359.178 160.944C359.898 160.292 360.42 159.452 360.687 158.518C360.953 157.584 360.953 156.594 360.685 155.661L358.613 155.944ZM356.634 102.453C354.939 102.453 353.903 102.453 353.243 101.038L351.548 102.359C352.149 103.016 352.875 103.547 353.684 103.919C354.493 104.292 355.368 104.499 356.258 104.528C359.46 105.094 363.04 105.661 366.431 113.962L368.315 113.113C364.547 103.774 359.931 103.019 356.634 102.453ZM325.926 100.661L327.245 102.359C328.208 101.632 329.382 101.238 330.589 101.238C331.795 101.238 332.969 101.632 333.933 102.359L335.157 100.755C333.84 99.7312 332.224 99.1678 330.557 99.1508C328.89 99.1338 327.263 99.664 325.926 100.661ZM354.374 121.604C353.78 121.74 353.262 122.101 352.928 122.611C352.595 123.121 352.471 123.74 352.584 124.34C352.739 124.923 353.104 125.428 353.608 125.759C354.112 126.089 354.72 126.222 355.316 126.132C355.817 125.919 356.228 125.538 356.48 125.054C356.732 124.571 356.809 124.015 356.698 123.481C356.587 122.947 356.295 122.469 355.871 122.126C355.447 121.784 354.918 121.599 354.374 121.604ZM330.636 112.076C330.17 112.076 329.715 112.214 329.327 112.473C328.94 112.732 328.638 113.101 328.46 113.532C328.282 113.962 328.235 114.437 328.326 114.894C328.417 115.352 328.641 115.772 328.97 116.102C329.3 116.432 329.719 116.656 330.176 116.747C330.633 116.838 331.107 116.792 331.537 116.613C331.967 116.435 332.335 116.132 332.594 115.744C332.853 115.357 332.991 114.901 332.991 114.434C332.991 113.809 332.743 113.209 332.301 112.766C331.859 112.324 331.26 112.076 330.636 112.076Z" fill="black"/>
<path d="M368.033 124.529C365.009 120.476 360.792 117.476 355.975 115.953C351.158 114.429 345.985 114.459 341.186 116.038C339.549 114.721 337.604 113.845 335.534 113.491C334.376 110.219 332.545 107.227 330.16 104.708C327.775 102.19 324.888 100.2 321.687 98.8684C321.037 98.3868 320.288 98.0558 319.494 97.8992C318.701 97.7425 317.883 97.7643 317.099 97.9629C316.315 98.1614 315.584 98.5318 314.961 99.0474C314.337 99.5629 313.835 100.211 313.492 100.944C312.13 105.724 312.227 110.803 313.772 115.528C315.316 120.252 318.237 124.405 322.158 127.453C323.177 127.983 324.307 128.259 325.455 128.259C326.603 128.259 327.733 127.983 328.752 127.453C332.351 124.789 334.781 120.834 335.534 116.416C336.95 116.787 338.268 117.463 339.396 118.397C339.442 123.846 341.057 129.165 344.048 133.717C347.039 138.269 351.279 141.86 356.258 144.057C357.714 144.554 359.241 144.808 360.779 144.812C362.725 144.872 364.628 144.237 366.149 143.019C367.562 141.581 368.668 139.868 369.397 137.986C370.126 136.104 370.463 134.093 370.388 132.076C370.415 131.463 370.627 130.873 370.998 130.384C371.368 129.895 371.878 129.531 372.46 129.34L400.06 119.906V115.378L371.235 124.812C370.732 125.084 370.161 125.202 369.592 125.152C369.022 125.101 368.48 124.885 368.033 124.529ZM333.368 115.567C333.368 117.736 331.107 123.963 327.716 125.661C327.034 126.024 326.274 126.214 325.502 126.214C324.73 126.214 323.97 126.024 323.288 125.661C319.926 122.913 317.42 119.258 316.068 115.129C314.715 110.999 314.573 106.567 315.658 102.359C315.833 101.844 316.162 101.396 316.6 101.075C317.038 100.754 317.565 100.577 318.107 100.567C318.992 100.606 319.859 100.831 320.651 101.227C323.734 102.432 326.496 104.337 328.719 106.793C330.942 109.248 332.566 112.187 333.462 115.378C333.462 115.378 333.368 115.472 333.368 115.567ZM364.641 141.51C363.518 142.235 362.231 142.666 360.898 142.765C359.566 142.864 358.229 142.627 357.011 142.076C342.128 137.359 341.845 118.585 341.845 118.397C356.352 112.17 367.279 127.831 367.75 127.831C367.849 128.329 367.849 128.842 367.75 129.34C367.75 129.34 368.692 138.302 364.641 141.51Z" fill="black"/>
<path d="M462.044 50.9429C462.044 50.9429 474.572 34.9995 451.494 28.3014C451.494 28.3014 454.414 12.8297 435.103 16.9807C435.103 16.9807 417.865 -17.5476 396.105 11.6033C396.105 11.6033 385.837 -12.4533 376.7 10.8486C376.7 10.8486 350.136 -11.6986 346.651 21.3203C346.651 21.3203 323.195 6.50896 328.47 38.9618C328.47 38.9618 304.262 22.5467 317.543 47.2637C317.543 47.2637 292.958 58.0184 314.812 71.6033C314.812 71.6033 303.131 85.3769 319.051 84.9995C319.051 84.9995 315.471 98.5844 325.833 94.4335C325.41 89.2284 326.318 84.0013 328.47 79.2448C328.47 79.2448 337.89 87.4523 346.462 74.3391C346.059 76.2628 346.215 78.2619 346.912 80.0996C347.608 81.9372 348.816 83.5364 350.392 84.7078C351.968 85.8792 353.847 86.5737 355.805 86.709C357.763 86.8443 359.718 86.4147 361.44 85.4712C361.44 85.4712 358.991 92.2637 365.49 92.1693C365.49 92.1693 364.737 108.018 374.91 103.207C374.91 103.207 381.127 112.641 386.026 108.113C384.679 109.567 383.718 111.336 383.229 113.258C382.74 115.18 382.739 117.194 383.226 119.116C383.713 121.038 384.672 122.808 386.017 124.264C387.361 125.72 389.048 126.816 390.924 127.452C389.946 129.217 389.489 131.224 389.605 133.239C389.722 135.254 390.407 137.194 391.581 138.835C392.755 140.475 394.37 141.748 396.238 142.505C398.106 143.263 400.151 143.473 402.134 143.113C402.134 143.113 410.423 155.943 418.995 143.113C418.995 143.113 437.175 157.452 446.124 138.301C446.124 138.301 467.978 136.603 460.066 120.754C460.066 120.754 480.036 111.32 465.247 96.4146C465.247 96.4146 484.651 91.3203 469.58 77.5467C469.58 78.4901 490.492 60.0939 462.044 50.9429Z" fill="black"/>
<path d="M176.809 63.3959C173.418 62.0751 163.527 69.7166 166.919 79.528C174.172 100.094 155.426 113.113 173.418 136.132L188.396 103.773C188.396 103.773 182.838 84.0563 181.048 80.2827C179.259 76.5091 178.976 64.2449 176.809 63.3959Z" fill="white"/>
<path d="M180.673 72.1705C179.636 66.6045 178.977 62.7366 177.187 62.7366C175.757 62.5806 174.311 62.7835 172.979 63.327C171.647 63.8705 170.471 64.7375 169.557 65.8498C167.622 67.6247 166.25 69.9307 165.614 72.4804C164.978 75.0302 165.104 77.7111 165.978 80.1894C168.102 87.5224 168.102 95.3092 165.978 102.642C164.045 108.406 163.637 114.572 164.793 120.541C165.948 126.509 168.628 132.076 172.572 136.699L174.267 135.378C170.501 131.016 167.938 125.745 166.831 120.086C165.724 114.427 166.112 108.577 167.956 103.114C170.222 95.4161 170.222 87.2269 167.956 79.529C167.229 77.4183 167.136 75.1405 167.688 72.9774C168.241 70.8143 169.415 68.861 171.064 67.3592C173.137 65.2837 175.492 64.3403 176.434 64.7177C177.621 67.3086 178.354 70.0851 178.6 72.9253C178.917 75.6313 179.55 78.291 180.484 80.8498C182.18 84.529 187.737 104.057 187.737 104.246L189.81 103.68C189.81 102.925 184.158 83.7743 182.368 80.0007C181.533 77.4568 180.964 74.8326 180.673 72.1705Z" fill="#00222A"/>
<path d="M487.099 363.302L453.471 354.906C452.439 354.767 451.394 354.767 450.362 354.906C448.049 354.99 445.775 355.536 443.674 356.51C442.319 357.185 440.849 357.601 439.341 357.736C437.457 357.736 434.631 356.698 429.921 349.34L427.754 345.755C420.501 334.246 416.451 327.925 409.951 327.925C407.414 328.071 404.953 328.849 402.792 330.189L401.567 330.849L402.321 331.982C403.465 334.439 404.379 336.997 405.053 339.623C407.219 341.415 410.61 345.283 410.422 347.548C410.333 347.884 410.167 348.195 409.939 348.457C409.71 348.718 409.424 348.924 409.103 349.057C408.701 349.153 408.281 349.153 407.879 349.057C403.734 349.057 397.894 341.227 396.01 338.208L391.205 336.227C388.851 334.017 387.017 331.31 385.836 328.302C384.046 323.585 381.597 315 381.597 314.906L379.713 308.302L378.96 315.189C378.819 317.759 377.971 320.241 376.511 322.359H375.851C374.438 322.359 372.272 320.189 372.083 316.321C372.03 314.5 371.745 312.693 371.235 310.944C370.564 309.462 370.217 307.854 370.217 306.227C370.217 304.6 370.564 302.991 371.235 301.51C373.185 298.269 375.458 295.235 378.018 292.453C379.242 290.661 380.278 289.057 381.126 287.548C381.974 286.038 388.285 285.849 395.35 285.755C400.437 285.755 406.842 285.755 414.19 285.095H416.356C424.363 285.095 426.718 289.434 430.58 296.604C434.235 304.174 439.396 310.916 445.746 316.415C453.376 322.831 466.847 325.849 485.592 325.849C495.781 325.782 505.95 324.962 516.018 323.397C516.018 328.868 515.265 350 487.099 363.302Z" fill="#FFE9C0"/>
<path d="M415.979 286.037C423.232 286.037 425.399 289.905 429.072 296.886C432.78 304.609 438.039 311.482 444.521 317.075C452.434 323.679 466.092 326.509 485.215 326.509C494.955 326.458 504.681 325.733 514.322 324.339C514.322 331.226 511.873 349.434 486.91 361.415L453.847 353.113C452.689 352.975 451.519 352.975 450.361 353.113C447.846 353.204 445.377 353.814 443.108 354.905C441.925 355.477 440.648 355.829 439.34 355.943C438.492 355.943 435.949 355.943 431.051 348.207L428.884 344.717C421.348 332.736 417.203 325.849 410.044 325.849C407.281 325.958 404.59 326.769 402.226 328.207L399.777 329.528L401.19 331.981C402.479 334.307 403.49 336.777 404.204 339.339V340.188H404.769C407.218 342.264 409.856 345.66 409.668 346.981C409.479 348.302 409.668 346.981 409.102 347.547H408.537C405.617 347.547 400.436 341.415 397.893 337.358V336.509H396.951L392.429 334.622C390.267 332.624 388.619 330.132 387.625 327.358C385.835 322.641 383.386 314.151 383.386 314.056L379.241 301.886L377.828 315.66C377.68 317.839 377.07 319.962 376.039 321.886C375.473 321.886 373.778 320.471 373.684 317.075C373.556 315.193 373.24 313.328 372.742 311.509C372.19 310.212 371.905 308.816 371.905 307.405C371.905 305.995 372.19 304.599 372.742 303.302C374.381 299.808 376.37 296.489 378.676 293.396C379.901 291.603 381.031 290 381.879 288.49C386.319 287.078 390.982 286.502 395.632 286.792C400.719 286.792 407.124 286.792 414.472 286.132L415.979 286.037ZM415.979 283.396H413.718C394.878 285 382.162 282.641 379.995 286.509C376.557 291.348 373.412 296.388 370.575 301.603C367.655 308.019 370.575 311.037 370.575 316.603C370.575 322.17 373.401 323.962 375.662 323.962C376.176 323.995 376.683 323.826 377.075 323.49C379.43 321.886 380.089 315.377 380.089 315.377C380.089 315.377 382.538 324.056 384.422 328.868C385.65 332.159 387.653 335.104 390.263 337.453C392.012 338.273 393.804 338.997 395.632 339.622C395.632 339.622 402.791 351.132 408.631 351.132C409.253 351.261 409.894 351.261 410.515 351.132C416.638 347.83 406.653 339.434 406.653 339.434C405.842 336.621 404.737 333.901 403.356 331.32C405.311 330.085 407.548 329.371 409.856 329.245C416.261 329.245 420.218 336.698 428.696 350C433.217 357.075 436.326 359.434 439.246 359.434C442.166 359.434 445.745 356.603 450.267 356.603C451.205 356.478 452.155 356.478 453.093 356.603L487.099 365.094C521.01 349.339 516.771 322.075 516.771 322.075C506.305 323.777 495.723 324.66 485.12 324.717C471.452 325.782 457.798 322.479 446.122 315.283C428.036 299.717 431.804 283.019 415.979 283.019V283.396Z" fill="black"/>
<path d="M487.852 288.774C493.033 298.14 499.055 307.013 505.844 315.283L488.606 318.868C488.606 318.868 485.215 376.321 482.766 383.302C503.097 388.092 523.964 390.217 544.842 389.623C591.471 385.189 611.441 366.793 599.101 315.095C585.63 258.491 555.016 195.566 494.635 161.227L487.852 288.774Z" fill="#D4FF8B"/>
<path d="M535.329 391.415C517.503 390.891 499.772 388.616 482.39 384.623H480.977V383.208C482.861 377.736 485.592 338.868 486.817 319.057V318.113L502.925 314.623C496.633 306.818 491.024 298.485 486.157 289.717L488.512 288.396C493.635 297.686 499.628 306.468 506.41 314.623L507.917 316.415L489.078 320.283C489.078 327.83 485.875 372.17 483.614 382.642C503.401 387.222 523.697 389.22 543.995 388.585C569.335 386.132 585.066 379.717 593.355 368.113C601.645 356.51 602.775 339.811 597.029 315.661C585.348 266.132 557.748 199.34 493.411 162.642L494.73 160.283C560.103 197.547 587.986 265 599.855 315C605.695 339.717 604.376 357.547 595.71 369.717C587.044 381.887 570.653 388.585 544.372 391.227C541.923 391.227 538.626 391.415 535.329 391.415Z" fill="black"/>
<path d="M0.847656 99.3398H296.725V429.529C296.725 432.031 295.732 434.43 293.966 436.199C292.199 437.969 289.803 438.962 287.305 438.962H10.2675C7.7692 438.962 5.37323 437.969 3.60666 436.199C1.8401 434.43 0.847656 432.031 0.847656 429.529V99.3398Z" fill="white"/>
<path d="M287.964 440H9.41984C6.92154 440 4.52557 439.006 2.75901 437.237C0.992444 435.467 0 433.068 0 430.566V99.3393C0 99.1141 0.08932 98.8981 0.248311 98.7389C0.407301 98.5797 0.622939 98.4902 0.847785 98.4902H296.725C296.95 98.4902 297.165 98.5797 297.324 98.7389C297.483 98.8981 297.573 99.1141 297.573 99.3393V430.471C297.586 431.734 297.345 432.987 296.866 434.155C296.386 435.323 295.677 436.383 294.781 437.271C293.885 438.16 292.82 438.859 291.649 439.328C290.478 439.797 289.225 440.025 287.964 440ZM1.69557 100.188V430.377C1.72036 432.462 2.56494 434.454 4.04618 435.92C5.52741 437.385 7.52588 438.207 9.60823 438.207H287.964C290.047 438.207 292.045 437.385 293.526 435.92C295.008 434.454 295.852 432.462 295.877 430.377V100.188H1.69557Z" fill="#000100"/>
<path d="M10.2675 64.4336H287.305C289.803 64.4336 292.199 65.4275 293.966 67.1967C295.732 68.966 296.725 71.3655 296.725 73.8676V99.3393H0.847656V73.8676C0.847656 71.3655 1.8401 68.966 3.60666 67.1967C5.37322 65.4275 7.7692 64.4336 10.2675 64.4336Z" fill="#E1E9FF"/>
<path d="M296.725 100.189H0.847785C0.622939 100.189 0.407301 100.099 0.248311 99.9398C0.08932 99.7806 0 99.5647 0 99.3395L0 73.2074C0 70.7054 0.992444 68.3058 2.75901 66.5366C4.52557 64.7674 6.92154 63.7734 9.41984 63.7734H287.964C290.463 63.7734 292.859 64.7674 294.625 66.5366C296.392 68.3058 297.384 70.7054 297.384 73.2074V99.3395C297.389 99.5355 297.326 99.7271 297.206 99.8819C297.086 100.037 296.916 100.145 296.725 100.189ZM1.69557 98.4904H295.877V73.2074C295.852 71.1221 295.008 69.1306 293.526 67.6648C292.045 66.199 290.047 65.3771 287.964 65.3772H9.41984C7.33749 65.3771 5.33902 66.199 3.85778 67.6648C2.37655 69.1306 1.53196 71.1221 1.50717 73.2074L1.69557 98.4904Z" fill="#000100"/>
<path d="M22.6068 81.8865C22.6068 82.4564 22.4947 83.0207 22.2769 83.5472C22.0592 84.0737 21.74 84.5521 21.3376 84.9551C20.9353 85.358 20.4576 85.6777 19.9319 85.8958C19.4061 86.1139 18.8427 86.2261 18.2736 86.2261C17.7011 86.239 17.1319 86.1356 16.6003 85.922C16.0688 85.7085 15.586 85.3893 15.181 84.9838C14.776 84.5782 14.4573 84.0947 14.2441 83.5623C14.0309 83.03 13.9277 82.4599 13.9405 81.8865C13.9405 80.7356 14.397 79.6318 15.2097 78.8179C16.0223 78.0041 17.1244 77.5469 18.2736 77.5469C19.4153 77.571 20.5036 78.0359 21.311 78.8446C22.1185 79.6532 22.5827 80.7431 22.6068 81.8865Z" fill="#04226B"/>
<path d="M18.2748 87.0756C17.5944 87.0756 16.9207 86.9414 16.2921 86.6806C15.6636 86.4199 15.0924 86.0377 14.6113 85.5559C14.1302 85.0741 13.7486 84.5021 13.4882 83.8725C13.2279 83.243 13.0939 82.5683 13.0939 81.8869C13.0939 81.2055 13.2279 80.5308 13.4882 79.9013C13.7486 79.2718 14.1302 78.6998 14.6113 78.218C15.0924 77.7362 15.6636 77.354 16.2921 77.0932C16.9207 76.8325 17.5944 76.6982 18.2748 76.6982C18.9552 76.6982 19.6289 76.8325 20.2574 77.0932C20.886 77.354 21.4571 77.7362 21.9382 78.218C22.4193 78.6998 22.801 79.2718 23.0613 79.9013C23.3217 80.5308 23.4557 81.2055 23.4557 81.8869C23.4557 82.5683 23.3217 83.243 23.0613 83.8725C22.801 84.5021 22.4193 85.0741 21.9382 85.5559C21.4571 86.0377 20.886 86.4199 20.2574 86.6806C19.6289 86.9414 18.9552 87.0756 18.2748 87.0756ZM18.2748 78.3964C17.5854 78.3964 16.9116 78.6011 16.3384 78.9846C15.7653 79.3682 15.3185 79.9133 15.0547 80.5511C14.791 81.189 14.7219 81.8908 14.8564 82.5679C14.9909 83.245 15.3228 83.867 15.8103 84.3551C16.2977 84.8433 16.9187 85.1757 17.5948 85.3104C18.2709 85.4451 18.9717 85.376 19.6086 85.1118C20.2454 84.8476 20.7898 84.4002 21.1727 83.8262C21.5557 83.2522 21.7601 82.5773 21.7601 81.8869C21.7363 80.9687 21.3614 80.0946 20.7129 79.4451C20.0644 78.7956 19.1916 78.4202 18.2748 78.3964Z" fill="#04226B"/>
<path d="M44.3665 81.8865C44.3665 82.4564 44.2545 83.0207 44.0367 83.5472C43.8189 84.0737 43.4998 84.5521 43.0974 84.9551C42.695 85.358 42.2173 85.6777 41.6916 85.8958C41.1659 86.1139 40.6024 86.2261 40.0334 86.2261C39.4609 86.239 38.8916 86.1356 38.3601 85.922C37.8286 85.7085 37.3457 85.3893 36.9408 84.9838C36.5358 84.5782 36.2171 84.0947 36.0039 83.5623C35.7907 83.03 35.6874 82.4599 35.7003 81.8865C35.7003 80.7356 36.1568 79.6318 36.9694 78.8179C37.7821 78.0041 38.8842 77.5469 40.0334 77.5469C41.1751 77.571 42.2633 78.0359 43.0708 78.8446C43.8783 79.6532 44.3425 80.7431 44.3665 81.8865Z" fill="#04226B"/>
<path d="M40.0347 87.0756C39.01 87.0756 38.0083 86.7713 37.1563 86.2012C36.3043 85.631 35.6403 84.8207 35.2481 83.8726C34.856 82.9244 34.7534 81.8812 34.9533 80.8747C35.1532 79.8682 35.6467 78.9436 36.3712 78.218C37.0958 77.4923 38.0189 76.9981 39.0239 76.7979C40.0289 76.5977 41.0706 76.7005 42.0173 77.0932C42.964 77.4859 43.7732 78.151 44.3424 79.0043C44.9117 79.8575 45.2156 80.8607 45.2156 81.8869C45.2156 83.2631 44.6697 84.5828 43.6981 85.5559C42.7265 86.5289 41.4087 87.0756 40.0347 87.0756ZM40.0347 78.3964C39.1103 78.3964 38.2238 78.7641 37.5702 79.4187C36.9165 80.0733 36.5493 80.9612 36.5493 81.8869C36.5493 82.8127 36.9165 83.7005 37.5702 84.3551C38.2238 85.0097 39.1103 85.3775 40.0347 85.3775C40.959 85.3775 41.8456 85.0097 42.4992 84.3551C43.1528 83.7005 43.52 82.8127 43.52 81.8869C43.52 80.9612 43.1528 80.0733 42.4992 79.4187C41.8456 78.7641 40.959 78.3964 40.0347 78.3964Z" fill="#04226B"/>
<path d="M65.9388 81.8865C65.9388 82.4564 65.8267 83.0207 65.609 83.5472C65.3912 84.0737 65.072 84.5521 64.6697 84.9551C64.2673 85.358 63.7896 85.6777 63.2639 85.8958C62.7382 86.1139 62.1747 86.2261 61.6057 86.2261C61.0331 86.239 60.4639 86.1356 59.9324 85.922C59.4008 85.7085 58.918 85.3893 58.513 84.9838C58.1081 84.5782 57.7894 84.0947 57.5762 83.5623C57.363 83.03 57.2597 82.4599 57.2726 81.8865C57.2726 80.7356 57.7291 79.6318 58.5417 78.8179C59.3543 78.0041 60.4565 77.5469 61.6057 77.5469C62.7474 77.571 63.8356 78.0359 64.6431 78.8446C65.4505 79.6532 65.9148 80.7431 65.9388 81.8865Z" fill="#04226B"/>
<path d="M61.7942 87.0756C60.7695 87.0756 59.7678 86.7713 58.9158 86.2012C58.0638 85.631 57.3998 84.8207 57.0077 83.8726C56.6155 82.9244 56.5129 81.8812 56.7128 80.8747C56.9127 79.8682 57.4062 78.9436 58.1307 78.218C58.8553 77.4923 59.7785 76.9981 60.7834 76.7979C61.7884 76.5977 62.8302 76.7005 63.7768 77.0932C64.7235 77.4859 65.5327 78.151 66.102 79.0043C66.6713 79.8575 66.9751 80.8607 66.9751 81.8869C66.9751 83.2631 66.4293 84.5828 65.4577 85.5559C64.486 86.5289 63.1683 87.0756 61.7942 87.0756ZM61.7942 78.3964C60.8698 78.3964 59.9833 78.7641 59.3297 79.4187C58.6761 80.0733 58.3089 80.9612 58.3089 81.8869C58.3089 82.8127 58.6761 83.7005 59.3297 84.3551C59.9833 85.0097 60.8698 85.3775 61.7942 85.3775C62.7186 85.3775 63.6051 85.0097 64.2587 84.3551C64.9123 83.7005 65.2795 82.8127 65.2795 81.8869C65.2795 80.9612 64.9123 80.0733 64.2587 79.4187C63.6051 78.7641 62.7186 78.3964 61.7942 78.3964Z" fill="#04226B"/>
<path d="M270.633 182.075H183.594V190.754H270.633V182.075Z" fill="#04226B"/>
<path d="M270.633 216.981H227.113V225.661H270.633V216.981Z" fill="#04226B"/>
<path d="M270.633 147.264H183.594V155.943H270.633V147.264Z" fill="#04226B"/>
<path d="M270.631 251.793H223.344V260.472H270.631V251.793Z" fill="#04226B"/>
<path d="M269.313 286.698H125.66V295.377H269.313V286.698Z" fill="#04226B"/>
<path d="M199.795 321.509H112.756V330.188H199.795V321.509Z" fill="#04226B"/>
<path d="M269.313 321.509H217.127V330.188H269.313V321.509Z" fill="#04226B"/>
<path d="M269.314 356.415H147.516V365.094H269.314V356.415Z" fill="#04226B"/>
<path d="M182.274 391.227H77.9023V399.906H182.274V391.227Z" fill="#04226B"/>
<path d="M269.408 391.227H199.795V399.906H269.408V391.227Z" fill="#04226B"/>
<path d="M161.832 195.189C161.832 208.119 158.004 220.759 150.831 231.511C143.658 242.262 133.463 250.641 121.534 255.59C109.606 260.538 96.4805 261.833 83.8175 259.31C71.1546 256.787 59.5229 250.561 50.3934 241.418C41.2639 232.274 35.0466 220.625 32.5278 207.943C30.009 195.261 31.3017 182.116 36.2426 170.17C41.1834 158.224 49.5505 148.013 60.2856 140.83C71.0208 133.646 83.6419 129.812 96.5529 129.812C105.126 129.812 113.614 131.503 121.534 134.788C129.454 138.074 136.651 142.889 142.713 148.96C148.774 155.031 153.583 162.238 156.863 170.17C160.144 178.102 161.832 186.603 161.832 195.189Z" fill="#04226B"/>
<path d="M96.5541 261.415C83.5126 261.415 70.764 257.542 59.9205 250.286C49.0769 243.03 40.6253 232.716 35.6346 220.649C30.6438 208.582 29.338 195.304 31.8823 182.494C34.4265 169.684 40.7066 157.917 49.9283 148.682C59.15 139.446 70.8992 133.157 83.6901 130.609C96.481 128.061 109.739 129.368 121.788 134.367C133.837 139.365 144.135 147.829 151.38 158.689C158.626 169.549 162.493 182.317 162.493 195.378C162.493 212.892 155.546 229.689 143.18 242.073C130.814 254.458 114.042 261.415 96.5541 261.415ZM96.5541 130.661C83.8107 130.661 71.3535 134.445 60.7578 141.536C50.1621 148.626 41.9037 158.704 37.027 170.495C32.1503 182.286 30.8744 195.261 33.3605 207.778C35.8466 220.295 41.9831 231.793 50.994 240.817C60.005 249.842 71.4856 255.988 83.9841 258.477C96.4827 260.967 109.438 259.689 121.211 254.805C132.984 249.921 143.047 241.651 150.127 231.039C157.207 220.427 160.986 207.951 160.986 195.189C160.986 178.075 154.198 161.662 142.114 149.561C130.031 137.459 113.642 130.661 96.5541 130.661Z" fill="#000100"/>
<path d="M86.9451 208.113L67.3519 188.679L54.5409 201.415L80.4454 227.453C82.1917 229.138 84.5198 230.084 86.9451 230.094C89.3378 230.06 91.628 229.116 93.3506 227.453L138.66 182.075L125.755 169.245L86.9451 208.113Z" fill="white"/>
</g>
<defs>
<clipPath id="clip0_297_2478">
<rect width="604" height="440" fill="white"/>
</clipPath>
</defs>
</svg>
