<svg width="12" height="14" viewBox="0 0 12 14" fill="none" xmlns="http://www.w3.org/2000/svg">
<path d="M11.2002 5.36662H0.700195M8.28353 0.699951V3.03328M3.61686 0.699951V3.03328M3.5002 12.3666H8.40019C9.38029 12.3666 9.87033 12.3666 10.2447 12.1759C10.574 12.0081 10.8417 11.7404 11.0095 11.4111C11.2002 11.0368 11.2002 10.5467 11.2002 9.56662V4.66662C11.2002 3.68653 11.2002 3.19648 11.0095 2.82213C10.8417 2.49285 10.574 2.22513 10.2447 2.05736C9.87033 1.86662 9.38029 1.86662 8.4002 1.86662H3.5002C2.5201 1.86662 2.03006 1.86662 1.65571 2.05736C1.32643 2.22513 1.05871 2.49285 0.890934 2.82213C0.700195 3.19648 0.700195 3.68653 0.700195 4.66662V9.56662C0.700195 10.5467 0.700195 11.0368 0.890934 11.4111C1.05871 11.7404 1.32643 12.0081 1.65571 12.1759C2.03006 12.3666 2.5201 12.3666 3.5002 12.3666Z" stroke="#36500C" stroke-width="1.4" stroke-linecap="round" stroke-linejoin="round"/>
</svg>
