<svg width="83" height="90" viewBox="0 0 83 90" fill="none" xmlns="http://www.w3.org/2000/svg">
<path d="M57.8437 32.1667V19.6667C57.8437 10.4619 50.3817 3 41.177 3C31.9723 3 24.5103 10.4619 24.5103 19.6667V32.1667M6.14367 37.7999L3.64367 64.4665C2.93285 72.0486 2.57744 75.8397 3.83554 78.7678C4.94074 81.3401 6.87749 83.4669 9.33541 84.8074C12.1334 86.3333 15.941 86.3333 23.5564 86.3333H58.7976C66.413 86.3333 70.2206 86.3333 73.0186 84.8074C75.4765 83.4669 77.4133 81.3401 78.5185 78.7678C79.7765 75.8397 79.4211 72.0486 78.7103 64.4665L76.2103 37.7999C75.6101 31.3973 75.31 28.196 73.8701 25.7757C72.602 23.6441 70.7284 21.938 68.4878 20.8744C65.9436 19.6667 62.7283 19.6667 56.2976 19.6667L26.0564 19.6667C19.6257 19.6667 16.4104 19.6667 13.8662 20.8743C11.6256 21.938 9.75203 23.6441 8.48392 25.7757C7.04404 28.196 6.74392 31.3973 6.14367 37.7999Z" stroke="#34352E" stroke-width="6" stroke-linecap="round" stroke-linejoin="round"/>
</svg>
