<svg width="493" height="543" viewBox="0 0 493 543" fill="none" xmlns="http://www.w3.org/2000/svg">
<g clip-path="url(#clip0_313_11079)">
<path d="M332.897 130.885C296.486 127.24 263.509 193.36 268.086 241.569C272.663 289.779 324.367 303.315 336.642 271.662C347.045 243.548 329.048 232.823 326.239 209.811C323.43 186.8 332.897 130.885 332.897 130.885Z" fill="#34352E"/>
<path d="M326.863 209.707C323.951 187.112 333.625 131.614 333.729 131.093V129.739H332.897C326.115 129.597 319.395 131.06 313.285 134.009C307.174 136.959 301.846 141.311 297.735 146.712C275.721 173.324 264.573 207.283 266.526 241.778C269.543 273.015 291.805 290.092 311.259 290.092C316.96 290.268 322.57 288.629 327.281 285.411C331.992 282.192 335.561 277.56 337.475 272.182C340.235 265.463 341.363 258.184 340.766 250.944C340.17 243.703 337.865 236.708 334.042 230.532C330.598 223.999 328.177 216.976 326.863 209.707ZM335.082 271.141C333.341 276.053 330.085 280.285 325.784 283.223C321.483 286.162 316.36 287.656 311.155 287.488C292.846 287.488 271.727 271.349 268.919 241.361C266.889 207.617 277.705 174.356 299.191 148.274C302.959 143.37 307.771 139.368 313.277 136.558C318.784 133.748 324.846 132.202 331.025 132.03C329.568 140.777 321.766 188.778 324.471 210.02C325.759 217.64 328.215 225.016 331.753 231.886C335.286 237.655 337.426 244.169 338.004 250.911C338.582 257.653 337.582 264.437 335.082 270.724V271.141Z" fill="black"/>
<path d="M252.274 222.619H230.635C208.639 221.95 186.672 224.69 165.512 230.74L208.997 478.974H287.02C303.248 380.576 325.511 232.615 321.038 225.743C314.484 222.931 285.979 222.619 252.274 222.619Z" fill="#34352E"/>
<path d="M252.274 221.369H230.636C208.119 220.416 185.605 223.303 164.056 229.907L208.061 480.64H288.164C288.164 480.64 329.777 228.658 321.662 224.805C313.548 220.953 287.332 221.369 252.274 221.369ZM285.876 478.037H210.142L166.969 231.678C187.695 225.979 209.15 223.383 230.636 223.972H252.274C274.821 223.014 297.409 223.989 319.79 226.888C323.119 240.112 301.688 382.658 285.876 478.037Z" fill="black"/>
<path d="M322.494 223.764C315.524 220.432 287.956 220.12 252.586 220.12H230.636C207.975 219.152 185.315 222.075 163.64 228.762C163.385 228.874 163.175 229.068 163.043 229.314C162.911 229.559 162.865 229.841 162.912 230.116L206.709 480.848C206.758 481.142 206.911 481.409 207.14 481.6C207.369 481.791 207.659 481.893 207.957 481.889H288.06C288.358 481.893 288.648 481.791 288.877 481.6C289.106 481.409 289.259 481.142 289.309 480.848C289.309 480.223 299.712 417.124 309.074 354.336C328.008 226.575 324.055 224.701 322.494 223.764ZM287.124 478.974H208.893L165.408 230.74C186.596 224.652 208.603 221.912 230.636 222.619H252.17C285.98 222.619 314.588 222.619 321.038 225.951C325.615 232.615 303.353 380.784 287.124 478.974Z" fill="black"/>
<path d="M208.061 370.268C193.288 333.824 176.851 292.382 188.503 221.265V220.016H187.254C164.264 220.016 111.624 238.55 103.094 255.002C77.7105 304.877 77.9185 362.354 78.0226 408.586C78.6266 426.767 77.8965 444.968 75.8379 463.043C72.2336 488.228 67.0567 513.163 60.3374 537.7V539.054H267.358V538.013C267.358 517.188 226.37 415.458 210.869 377.036L208.061 370.268Z" fill="#D4FF8B"/>
<path d="M209.205 369.955C194.433 333.512 177.996 292.278 189.647 221.369V218.974H187.254C164.056 218.974 110.792 237.821 102.158 254.585C76.6702 304.669 76.8782 362.25 76.9823 408.586C77.5372 426.698 76.8072 444.826 74.7976 462.835C71.2669 487.999 66.0889 512.903 59.2971 537.388L58.4648 540.095H268.398V538.013C268.398 519.687 238.229 442.114 211.91 376.619C210.973 374.849 210.037 372.142 209.205 369.955ZM61.2737 538.013C68.116 513.464 73.3289 488.489 76.8782 463.251C84.3684 415.041 67.3074 327.889 104.342 255.002C112.457 239.383 164.472 220.536 187.567 220.536C174.771 296.339 194.329 337.885 209.933 376.723C226.682 418.373 266.318 517.396 266.318 537.388L61.2737 538.013Z" fill="black"/>
<path d="M195.577 91.0049C195.577 91.0049 165.304 185.342 146.995 209.707C128.686 234.072 142.314 298.317 171.754 279.471C190.064 267.705 175.811 247.609 175.811 247.609C175.811 247.609 193.497 236.571 186.214 223.452C178.932 210.332 214.303 233.031 231.156 221.369C248.008 209.707 211.598 71.5336 195.577 91.0049Z" fill="#34352E"/>
<path d="M442.337 438.573C444.314 435.658 449.203 428.161 447.018 422.122C446.372 420.697 445.355 419.472 444.074 418.575C442.793 417.677 441.295 417.14 439.736 417.02C427.565 414.729 406.446 347.568 392.09 290.82C382.624 253.648 369.412 235.009 350.478 232.094H349.334L344.132 412.126C344.132 416.291 354.535 514.064 362.026 534.889V535.618H460.854C465.772 535.553 470.487 533.646 474.069 530.273C477.651 526.899 479.84 522.305 480.204 517.396C485.614 491.885 469.905 451.693 442.337 438.573Z" fill="#137ABB"/>
<path d="M443.898 438.157C445.706 435.861 447.012 433.209 447.729 430.375C448.445 427.54 448.558 424.586 448.059 421.705C447.29 420.149 446.145 418.81 444.728 417.81C443.311 416.81 441.667 416.18 439.945 415.978C430.478 414.208 411.648 363.916 393.131 290.508C383.56 252.919 370.036 234.072 350.686 231.053H348.294V233.448L343.3 411.813C343.3 415.978 353.703 513.96 361.194 534.889V536.242H460.855C466.08 536.261 471.12 534.312 474.975 530.781C478.83 527.251 481.217 522.398 481.661 517.188C486.654 492.093 471.154 452.005 443.898 438.157ZM460.855 534.472H362.962C355.576 513.647 345.173 411.917 345.173 411.917L350.27 233.135C367.955 235.947 381.479 252.607 391.05 291.029C400.621 329.451 424.652 415.249 439.528 418.061C454.405 420.872 440.777 438.886 440.777 438.886C481.661 457.108 494.664 534.472 460.855 534.472Z" fill="black"/>
<path d="M274.016 212.206C272.305 207.828 271.603 203.12 271.964 198.432C272.324 193.744 273.737 189.199 276.096 185.134L213.054 161.914C214.232 179.548 210.638 197.174 202.651 212.935C201.269 215.528 199.278 217.745 196.85 219.395C194.421 221.046 191.628 222.081 188.711 222.411C188.711 229.699 189.959 266.351 210.141 287.072C214.956 292.003 220.746 295.874 227.141 298.438C233.536 301.002 240.395 302.202 247.28 301.962H248.528C254.877 302.085 261.178 300.849 267.009 298.334C272.84 295.82 278.067 292.087 282.338 287.384C300.544 266.559 298.359 229.283 297.735 222.306C293.244 222.842 288.692 222.191 284.531 220.419C280.37 218.647 276.745 215.816 274.016 212.206Z" fill="#FFE9C0"/>
<path d="M277.865 184.405L211.702 160.04C211.702 217.933 192.56 221.057 188.295 221.057H187.255C187.255 221.057 184.758 303.107 246.968 303.107H248.216C308.138 302.066 298.671 220.953 298.671 220.953C257.475 220.953 277.865 184.405 277.865 184.405ZM280.882 286.343C276.775 290.944 271.716 294.593 266.057 297.039C260.397 299.484 254.274 300.667 248.112 300.504H246.864C240.18 300.749 233.518 299.598 227.303 297.124C221.088 294.65 215.456 290.907 210.765 286.135C191.832 266.768 189.959 232.927 189.959 223.66C197.241 222.723 213.366 214.705 214.094 163.892L274.12 185.967C271.861 190.08 270.556 194.65 270.304 199.337C270.052 204.024 270.859 208.707 272.663 213.039C275.412 216.644 279.03 219.491 283.179 221.312C287.328 223.134 291.871 223.87 296.382 223.452C297.215 232.615 298.463 266.872 280.882 286.343Z" fill="black"/>
<path d="M366.395 460.127C363.064 445.155 363.928 429.553 368.892 415.041C373.293 399.489 375.567 383.412 375.654 367.248C375.654 322.683 366.083 240.112 365.979 239.279V238.654H365.459C363.794 237.821 323.847 220.12 299.087 220.12H297.735V221.369C309.074 274.577 301.688 292.07 292.325 314.248C282.238 336.292 276.818 360.186 276.409 384.428C273.808 446.903 230.115 464.813 187.879 482.722C167.641 489.718 148.824 500.299 132.327 513.96C126.751 521.064 122.905 529.371 121.091 538.221V539.262H385.745V538.012C385.745 538.012 374.509 492.302 366.395 460.127Z" fill="#D4FF8B"/>
<path d="M367.435 459.815C364.153 445.013 365.017 429.591 369.932 415.249C374.381 399.634 376.69 383.486 376.798 367.248C376.798 322.578 367.123 240.007 367.019 239.174V237.925L365.875 237.404C364.21 236.675 324.263 218.87 299.087 218.87H296.487L297.007 221.369C308.346 274.264 300.96 291.549 291.701 313.624C281.516 335.785 276.059 359.829 275.681 384.22C273.08 445.446 229.699 463.772 187.775 481.577C167.481 488.589 148.599 499.167 132.015 512.814C126.313 520.103 122.395 528.625 120.571 537.7V539.783H387.097L386.473 537.179C386.473 537.179 375.446 491.989 367.435 459.815ZM122.34 538.012C124.202 529.388 128.009 521.303 133.471 514.376C175.083 473.663 273.808 478.037 277.657 384.22C281.09 300.087 319.269 313.832 298.463 220.953C323.431 220.953 364.419 239.383 364.419 239.383C364.419 239.383 374.093 322.682 374.093 367.248C374.093 411.813 356.72 427.848 364.835 460.335C372.949 492.822 384.913 538.012 384.913 538.012H122.34Z" fill="black"/>
<path d="M199.947 101.105C198.971 101.147 198.014 101.39 197.136 101.821C196.259 102.251 195.48 102.858 194.849 103.604C193.675 105.711 192.948 108.038 192.715 110.439C192.483 112.84 192.749 115.264 193.497 117.557C195.265 126.095 198.282 130.989 201.819 130.989H203.068C204.524 128.907 212.742 116.203 209.517 107.977C208.642 106.109 207.302 104.496 205.627 103.293C203.951 102.09 201.996 101.337 199.947 101.105Z" fill="#FFE9C0"/>
<path d="M200.05 99.8557C199.01 99.8557 188.815 99.8557 192.352 117.765C194.849 130.26 199.322 132.239 201.923 132.239C202.643 132.39 203.387 132.39 204.108 132.239C204.108 132.239 223.457 104.125 200.05 99.8557ZM202.339 129.635H201.819C200.779 129.635 197.138 128.802 194.849 117.245C194.118 115.156 193.833 112.936 194.012 110.73C194.191 108.524 194.831 106.38 195.889 104.437C196.364 103.865 196.95 103.394 197.612 103.054C198.273 102.714 198.997 102.512 199.738 102.459C201.544 102.603 203.282 103.217 204.778 104.24C206.274 105.262 207.477 106.659 208.269 108.29C210.87 114.537 205.252 124.95 202.339 129.635Z" fill="black"/>
<path d="M327.592 121.41C325.869 120.894 324.084 120.614 322.286 120.577C320.891 120.515 319.499 120.774 318.219 121.333C316.939 121.893 315.804 122.738 314.9 123.804C311.161 130.478 309.769 138.215 310.947 145.775C311.738 146.512 312.779 146.922 313.86 146.92C316.044 146.92 319.894 145.462 325.511 138.382C327.277 136.725 328.657 134.701 329.556 132.452C330.455 130.203 330.85 127.785 330.713 125.366C330.176 123.718 329.069 122.315 327.592 121.41Z" fill="#FFE9C0"/>
<path d="M327.904 120.16C326.086 119.578 324.194 119.262 322.286 119.223C305.745 119.223 309.699 146.712 309.699 146.712C310.194 147.339 310.827 147.844 311.548 148.187C312.27 148.53 313.061 148.702 313.86 148.69C316.565 148.69 320.726 146.816 326.552 139.631C338.411 124.95 327.904 120.16 327.904 120.16ZM324.575 137.965C318.853 144.942 315.42 146.087 314.172 146.087C313.464 146.257 312.718 146.145 312.091 145.775C310.943 138.621 312.225 131.288 315.732 124.95C316.533 124.04 317.529 123.323 318.647 122.854C319.764 122.385 320.973 122.176 322.182 122.243C323.762 122.259 325.335 122.468 326.864 122.867C327.505 123.249 328.059 123.761 328.489 124.371C328.919 124.981 329.216 125.675 329.36 126.408C329.383 128.558 328.971 130.69 328.149 132.676C327.326 134.663 326.111 136.462 324.575 137.965Z" fill="black"/>
<path d="M293.262 50.6047C283.269 46.0028 272.31 43.8948 261.324 44.4613C240.518 44.4613 221.481 49.5634 217.736 56.4356C213.499 66.6534 210.901 77.4769 210.037 88.5061C209.339 95.5433 208.052 102.509 206.188 109.331C201.715 123.908 199.426 152.959 212.742 168.786C214.807 171.415 216.717 174.162 218.464 177.012C221.802 182.468 226.48 186.979 232.052 190.113C237.624 193.248 243.905 194.904 250.297 194.922C257.546 194.155 264.486 191.577 270.479 187.425C274.016 185.654 278.177 183.572 283.379 181.281C300.128 173.68 313.652 152.335 321.246 121.305C323.535 108.084 322.134 94.4874 317.196 82.0126C312.258 69.5377 303.976 58.6693 293.262 50.6047Z" fill="#FFE9C0"/>
<path d="M293.886 49.4592C283.696 44.7655 272.53 42.5874 261.324 43.1076C241.559 43.1076 220.961 47.8974 216.591 55.8108C209.309 68.6182 209.205 95.5865 204.94 109.123C200.675 122.659 197.97 153.376 211.702 169.723C221.273 180.969 223.249 191.694 243.951 195.234C246.044 195.633 248.167 195.842 250.297 195.859C260.7 195.859 266.526 190.652 284.003 182.739C301.48 174.825 315.212 152.439 322.598 121.93C325.033 108.372 323.635 94.4035 318.562 81.5986C313.489 68.7937 304.942 57.6621 293.886 49.4592ZM320.102 121.305C312.507 151.918 299.296 173.368 282.859 180.344L269.959 186.592C264.061 190.415 257.303 192.706 250.297 193.256C248.323 193.392 246.342 193.392 244.368 193.256C239.183 192.666 234.219 190.823 229.905 187.884C225.591 184.945 222.057 180.999 219.608 176.387C217.84 173.888 215.967 171.181 213.783 168.578C200.779 153.167 203.38 124.637 207.437 110.372C209.268 103.538 210.59 96.5774 211.39 89.5473C212.224 78.8152 214.716 68.2776 218.776 58.3098C222.417 51.9582 241.039 46.9602 261.324 46.9602C272.061 46.4382 282.765 48.5096 292.534 52.9995C302.913 60.7882 310.968 71.2686 315.826 83.3077C320.685 95.3467 322.164 108.486 320.102 121.305Z" fill="black"/>
<path d="M303.873 28.1137C283.067 3.1238 231.78 -18.7424 198.594 31.654C189.231 45.9191 179.973 88.8185 191.728 104.541C203.483 120.264 209.309 94.1288 209.309 94.1288C259.556 84.8617 273.392 64.0368 274.952 61.4337C266.869 74.5092 256.259 85.8374 243.743 94.7536C256.316 95.9889 268.909 92.6019 279.17 85.225C289.43 77.8481 296.658 66.9856 299.504 54.6655C314.9 73.7204 328.632 187.737 344.133 99.8557C357.448 26.5519 303.873 28.1137 303.873 28.1137Z" fill="#34352E"/>
<path d="M304.497 26.9683C297.718 18.9238 289.346 12.3739 279.91 7.73203C270.473 3.09022 260.178 0.457443 249.673 0C239.036 0.219972 228.64 3.21804 219.516 8.69717C210.393 14.1763 202.858 21.9463 197.658 31.2374C187.983 45.8149 178.724 89.5473 190.792 105.583C191.633 107.062 192.802 108.328 194.209 109.285C195.616 110.241 197.222 110.863 198.906 111.101C205.98 111.101 209.309 98.7103 210.35 95.17C230.248 92.2759 249.158 84.6333 265.486 72.8873C258.999 80.6923 251.594 87.6846 243.431 93.7123L240.414 95.7948H244.055C256.443 96.8923 268.827 93.6508 279.092 86.6241C289.357 79.5974 296.866 69.2214 300.336 57.2686C305.928 68.9296 310.286 81.1439 313.34 93.7123C320.83 118.702 325.823 133.904 332.169 133.904C335.602 133.904 340.388 130.052 345.693 100.064C350.271 74.3451 347.15 54.7696 336.434 42.0664C332.434 37.488 327.533 33.7843 322.038 31.1866C316.543 28.5889 310.571 27.1529 304.497 26.9683ZM343.404 99.8556C338.515 127.553 334.25 131.718 332.169 131.718C327.176 131.718 320.83 110.893 315.732 93.1917C312.567 79.5275 307.563 66.3569 300.856 54.0407L299.192 52.0624L298.671 54.6655C296.008 66.0563 289.484 76.1716 280.209 83.2905C270.935 90.4095 259.482 94.0923 247.801 93.7123C259.24 85.0333 268.886 74.212 276.201 61.8501L274.016 60.7047C274.016 60.7047 261.429 83.2998 209.101 92.671H208.269L208.061 93.7123C207.229 97.8773 203.796 108.602 198.906 108.602C197.034 108.602 194.953 107.04 192.769 104.021C181.221 88.7143 190.376 46.6479 199.635 32.4869C204.65 23.5569 211.901 16.0868 220.674 10.8107C229.447 5.53472 239.441 2.63441 249.673 2.39487C259.987 2.8484 270.094 5.44291 279.353 10.0138C288.611 14.5846 296.82 21.032 303.457 28.9467H304.081C309.981 28.9411 315.816 30.1916 321.196 32.6151C326.577 35.0386 331.381 38.5798 335.29 43.0035C344.861 55.6026 347.774 74.4492 343.3 99.4391L343.404 99.8556Z" fill="black"/>
<path d="M235.005 98.6061C232.652 98.3219 230.266 98.652 228.078 99.5643C225.891 100.477 223.976 101.94 222.521 103.812L224.498 105.27C225.731 103.738 227.332 102.543 229.151 101.796C230.97 101.05 232.948 100.776 234.901 101.001C239.502 101.916 244.239 101.916 248.841 101.001L248.321 98.6061C243.922 99.4524 239.403 99.4524 235.005 98.6061ZM234.485 109.539C234.001 109.34 233.482 109.242 232.959 109.25C232.436 109.258 231.921 109.373 231.444 109.587C230.967 109.802 230.538 110.111 230.185 110.497C229.831 110.882 229.56 111.336 229.387 111.83C229.009 112.797 229.027 113.874 229.435 114.829C229.844 115.783 230.611 116.539 231.572 116.932C232.063 117.133 232.589 117.232 233.119 117.225C233.649 117.218 234.172 117.104 234.658 116.89C235.143 116.677 235.58 116.367 235.944 115.981C236.307 115.595 236.589 115.139 236.773 114.641C236.972 114.157 237.07 113.638 237.062 113.114C237.054 112.591 236.939 112.075 236.725 111.598C236.511 111.12 236.202 110.691 235.816 110.338C235.431 109.984 234.978 109.712 234.485 109.539Z" fill="#34352E"/>
<path d="M234.901 108.394C233.63 107.914 232.223 107.95 230.979 108.495C229.735 109.04 228.753 110.05 228.243 111.309C227.989 111.945 227.864 112.625 227.873 113.309C227.882 113.993 228.026 114.669 228.297 115.298C228.568 115.927 228.959 116.496 229.45 116.973C229.94 117.45 230.52 117.825 231.156 118.077H233.028C234.088 118.1 235.129 117.791 236.005 117.194C236.881 116.597 237.55 115.741 237.918 114.745C238.299 113.501 238.201 112.158 237.643 110.983C237.084 109.807 236.106 108.883 234.901 108.394ZM235.629 114.225C235.351 114.889 234.83 115.421 234.172 115.712C233.514 116.002 232.769 116.029 232.092 115.787C231.746 115.671 231.426 115.485 231.153 115.242C230.88 114.999 230.66 114.703 230.504 114.373C230.348 114.042 230.261 113.683 230.248 113.317C230.235 112.952 230.296 112.588 230.427 112.246C230.635 111.725 230.994 111.278 231.457 110.963C231.921 110.647 232.468 110.478 233.028 110.476H234.068C234.476 110.589 234.851 110.796 235.164 111.081C235.477 111.365 235.719 111.719 235.871 112.113C236.022 112.508 236.079 112.933 236.037 113.354C235.995 113.775 235.856 114.18 235.629 114.537V114.225ZM300.128 99.9598C298.301 98.5238 296.086 97.6673 293.769 97.5003C291.452 97.3333 289.138 97.8635 287.124 99.0226L287.748 100.064L288.372 101.001C290.018 100.157 291.868 99.797 293.709 99.9629C295.551 100.129 297.307 100.814 298.775 101.938C302.172 104.516 304.945 107.825 306.89 111.622L309.074 110.58C306.948 106.399 303.886 102.764 300.128 99.9598Z" fill="#34352E"/>
<path d="M288.372 101.106V101.002L287.748 100.064L288.372 101.106Z" fill="black"/>
<path d="M293.054 119.223C292.005 119.223 291 119.64 290.258 120.382C289.517 121.124 289.1 122.13 289.1 123.18C289.007 123.76 289.04 124.354 289.198 124.921C289.356 125.487 289.635 126.012 290.016 126.46C290.397 126.908 290.871 127.268 291.404 127.514C291.937 127.761 292.518 127.889 293.106 127.889C293.693 127.889 294.274 127.761 294.807 127.514C295.34 127.268 295.814 126.908 296.195 126.46C296.576 126.012 296.855 125.487 297.013 124.921C297.171 124.354 297.204 123.76 297.111 123.18C297.058 122.129 296.611 121.138 295.859 120.404C295.106 119.67 294.104 119.248 293.054 119.223Z" fill="#34352E"/>
<path d="M293.054 118.077C292.02 118.078 291.011 118.386 290.153 118.963C289.296 119.539 288.629 120.359 288.239 121.316C287.848 122.274 287.752 123.326 287.961 124.338C288.17 125.351 288.676 126.278 289.414 127.002C290.152 127.726 291.088 128.213 292.104 128.402C293.12 128.591 294.169 128.473 295.117 128.063C296.066 127.653 296.871 126.97 297.429 126.1C297.988 125.23 298.276 124.213 298.255 123.18C298.255 122.501 298.12 121.829 297.857 121.203C297.595 120.577 297.21 120.01 296.725 119.535C296.241 119.059 295.667 118.686 295.036 118.436C294.406 118.185 293.732 118.064 293.054 118.077ZM293.054 125.991C292.498 125.991 291.955 125.826 291.493 125.517C291.031 125.208 290.671 124.769 290.459 124.255C290.246 123.742 290.19 123.176 290.299 122.631C290.407 122.086 290.675 121.585 291.067 121.192C291.46 120.798 291.961 120.531 292.506 120.422C293.05 120.314 293.615 120.369 294.128 120.582C294.642 120.795 295.08 121.155 295.389 121.618C295.698 122.08 295.862 122.624 295.862 123.18C295.862 123.925 295.566 124.64 295.04 125.168C294.513 125.695 293.799 125.991 293.054 125.991ZM242.911 161.289C240.726 157.853 244.159 152.23 244.159 152.126L242.079 150.877C242.079 150.877 237.813 157.853 240.83 162.643C242.495 165.35 246.136 166.704 251.233 166.704H256.331V164.309C249.673 164.829 244.575 163.892 242.911 161.289ZM268.606 139.423C268.606 139.423 269.543 143.692 267.67 145.671C266.945 146.277 266.078 146.69 265.151 146.872C264.223 147.054 263.265 146.999 262.365 146.712V149.107C263.125 149.2 263.893 149.2 264.653 149.107C265.611 149.165 266.57 149.019 267.467 148.678C268.364 148.337 269.178 147.809 269.855 147.128C270.698 145.914 271.274 144.534 271.543 143.08C271.812 141.625 271.769 140.13 271.415 138.694L268.606 139.423Z" fill="#34352E"/>
<path d="M414.665 443.988C412.897 445.446 410.504 447.216 407.695 449.194C395.316 458.149 375.55 472.31 379.503 491.469L381.896 490.948C378.255 473.351 396.772 459.711 409.048 451.173C411.961 449.09 414.353 447.32 416.226 445.758C425.693 437.74 463.56 443.676 463.872 443.78V441.385C462.727 441.072 424.964 435.241 414.665 443.988ZM413.417 422.538L412.689 424.829C416.839 425.853 421.108 426.308 425.38 426.183C437.623 425.844 449.826 424.626 461.895 422.538V420.143C461.895 420.143 425.485 426.287 413.417 422.538Z" fill="#00162C"/>
<path d="M135.24 405.462C127.437 374.224 128.582 372.246 142.002 347.464C143.146 345.382 144.29 343.091 145.539 340.696C161.767 310.5 128.686 274.785 123.068 269.058C128.894 258.646 119.115 243.548 118.699 242.923L116.514 244.277C116.514 244.277 126.293 259.479 120.363 268.538L119.739 269.475L120.467 270.204C120.467 270.204 159.583 308.938 143.25 339.447L139.713 346.215C125.877 371.309 124.837 373.912 132.535 406.087C133.471 409.731 134.511 413.896 135.76 418.582C144.394 451.381 158.75 506.255 146.995 525.309C146.078 526.902 144.835 528.282 143.346 529.359C141.858 530.436 140.159 531.185 138.361 531.557V534.056C140.515 533.658 142.559 532.801 144.354 531.543C146.148 530.286 147.652 528.657 148.764 526.767C161.143 506.671 146.579 451.068 137.84 417.853C137.112 413.271 135.968 409.106 135.24 405.462Z" fill="#000100"/>
<path d="M104.863 215.642C107.464 211.061 109.336 207.729 98.621 198.878L93.6275 194.713C79.6874 183.468 75.5262 180.032 79.8955 169.723L80.7277 167.745L82.0801 169.411C83.441 171.237 85.4532 172.468 87.6978 172.847H89.1542V173.784C90.0905 176.075 93.4194 182.635 96.5404 182.635C97.2789 182.609 97.9822 182.312 98.5169 181.802C101.95 178.782 96.0202 166.912 91.4429 160.144C91.0379 158.16 90.4814 156.211 89.7784 154.313C87.6703 151.279 84.8476 148.811 81.56 147.128C76.4625 144.421 67.2038 140.464 67.0998 140.36L61.4821 137.861H67.828C70.8586 137.911 73.833 137.04 76.3585 135.362C76.5319 135.061 76.6233 134.72 76.6233 134.373C76.6233 134.026 76.5319 133.685 76.3585 133.384C75.7585 132.194 74.8564 131.182 73.7425 130.451C72.6287 129.72 71.3424 129.295 70.0126 129.219C67.986 128.812 66.001 128.219 64.0829 127.449C62.1408 126.599 60.0618 126.105 57.9451 125.991C56.4928 125.996 55.0514 126.242 53.6798 126.72C49.4906 128.213 45.4505 130.095 41.6123 132.343C39.5317 133.384 37.5551 134.425 35.6826 135.154C33.81 135.883 32.6657 142.755 31.5214 151.189C30.7932 156.916 29.8569 164.101 28.1924 172.014C25.9037 183.051 30.7932 186.592 38.5954 192.318C46.5901 197.443 53.4284 204.182 58.6733 212.102C73.0295 234.281 59.6096 283.428 56.9048 292.486C59.0726 292.83 61.2639 293.004 63.4587 293.007C72.4185 292.671 81.1304 289.971 88.712 285.18C96.2936 280.39 102.475 273.678 106.631 265.726C106.631 262.082 103.302 237.613 101.846 226.575C101.516 222.688 102.586 218.81 104.863 215.642Z" fill="#FFE9C0"/>
<path d="M99.4529 197.837C81.4556 183.051 76.5662 180.656 80.9355 170.244C82.5816 172.332 84.9639 173.711 87.5934 174.097H88.2176C88.2176 174.097 92.1707 183.78 96.8521 183.78C97.911 183.728 98.9123 183.282 99.6609 182.531C105.279 177.637 92.7949 159.207 92.7949 159.207C92.351 157.165 91.7953 155.149 91.1304 153.168C88.8476 150.001 85.8072 147.459 82.2878 145.775C77.0863 142.963 67.7236 139.007 67.7236 139.007C69.076 139.007 75.1097 139.007 77.0863 136.716C79.0629 134.425 77.0863 129.427 70.2203 128.386C65.539 127.24 62.418 124.95 58.1528 124.95C56.5613 125.009 54.9857 125.289 53.4714 125.783C47.2295 128.203 41.1487 131.02 35.2661 134.217C30.5847 136.091 31.313 151.293 26.9437 171.91C22.5744 192.527 42.6523 189.299 58.1528 212.935C73.6533 236.571 55.8641 293.528 55.8641 293.528C58.5162 294.194 61.2444 294.51 63.9785 294.465C73.249 294.147 82.2658 291.353 90.0945 286.373C97.9233 281.393 104.279 274.409 108.504 266.143C108.504 266.143 105.279 238.446 103.614 226.471C101.95 214.497 117.45 212.727 99.4529 197.837ZM63.7704 291.549C61.7939 291.549 60.1294 291.549 58.881 291.549C62.314 279.575 74.0694 233.135 60.1294 211.477C54.6549 203.412 47.5707 196.57 39.3233 191.381C31.417 185.759 27.0477 182.635 28.9203 172.431C30.5847 164.517 31.521 157.333 32.2492 151.606C32.9774 145.879 34.1218 137.341 35.5782 136.716C37.0346 136.091 39.4273 134.842 41.612 133.8C45.4621 131.633 49.5012 129.821 53.6795 128.386C54.9235 127.984 56.2214 127.773 57.5286 127.761C59.5036 127.85 61.4444 128.309 63.2503 129.115C65.2356 129.898 67.2908 130.491 69.3881 130.885C70.4777 130.962 71.5315 131.306 72.4568 131.887C73.382 132.468 74.1502 133.268 74.6936 134.217C74.6936 134.217 74.6936 134.737 74.6936 134.842C72.354 136.046 69.7181 136.552 67.0994 136.299L54.3037 135.362L66.6833 140.673C66.6833 140.673 75.942 144.629 81.0395 147.337C84.1172 148.886 86.7624 151.176 88.7377 154.001C89.3999 155.797 89.9216 157.642 90.2982 159.519C95.4997 167.328 99.765 177.533 97.5803 179.407C97.2923 179.753 96.883 179.977 96.436 180.032C94.6675 180.032 91.7546 175.763 90.2982 171.91L89.466 170.036H87.4894C85.9651 170.017 84.4806 169.546 83.2241 168.682L80.4153 165.246L78.7508 169.307C74.0695 180.448 78.7508 184.613 92.8989 195.755L97.9964 199.92C107.879 207.937 106.423 210.332 103.926 215.018C101.646 218.452 100.651 222.582 101.117 226.68C102.47 237.092 105.175 260.416 105.799 265.31C101.712 272.992 95.6759 279.461 88.2981 284.067C80.9203 288.674 72.4608 291.254 63.7704 291.549Z" fill="black"/>
<path d="M68.7641 137.549C65.5392 137.028 58.3611 135.258 58.3611 135.258H57.7369C54.3494 138.584 50.2619 141.11 45.7734 142.651H44.7331V143.796C45.5673 146.65 45.3834 149.706 44.2129 152.439C44.0996 152.546 44.0093 152.675 43.9476 152.818C43.8858 152.961 43.854 153.116 43.854 153.272C43.854 153.428 43.8858 153.582 43.9476 153.725C44.0093 153.868 44.0996 153.998 44.2129 154.105H44.8371C45.0493 154.098 45.2562 154.037 45.4382 153.927C45.6202 153.818 45.7714 153.664 45.8774 153.48C47.1939 150.542 47.5577 147.264 46.9177 144.109C51.1196 142.396 54.9918 139.965 58.3611 136.924C60.2336 136.924 65.9553 138.694 68.7641 139.111C69.0919 139.145 69.4208 139.057 69.689 138.866C69.9572 138.674 70.1462 138.391 70.2205 138.069C70.0715 137.831 69.8468 137.651 69.5826 137.556C69.3183 137.462 69.03 137.459 68.7641 137.549ZM81.8719 152.855C77.8147 152.855 71.4689 157.749 67.8278 161.081C64.8514 164.279 62.2027 167.767 59.9215 171.493C59.7359 171.731 59.6351 172.025 59.6351 172.326C59.6351 172.628 59.7359 172.922 59.9215 173.159H60.5457C60.8423 173.318 61.18 173.383 61.5142 173.346C61.8485 173.309 62.1637 173.171 62.4182 172.951C64.5121 169.207 67.025 165.714 69.9084 162.539C73.5495 158.79 79.3752 154.834 81.976 155.146C85.6764 156.227 89.1861 157.878 92.379 160.04C92.6535 160.178 92.9693 160.21 93.2659 160.13C93.5625 160.049 93.819 159.862 93.9865 159.604C94.1539 159.347 94.2205 159.036 94.1734 158.732C94.1264 158.428 93.969 158.152 93.7314 157.957C90.0675 155.649 86.0662 153.928 81.8719 152.855Z" fill="#00162C"/>
<path d="M63.0425 136.612C54.0004 142.083 46.204 149.39 40.1558 158.061C40.0424 158.168 39.9521 158.297 39.8904 158.441C39.8287 158.584 39.7969 158.738 39.7969 158.894C39.7969 159.05 39.8287 159.205 39.8904 159.348C39.9521 159.491 40.0424 159.62 40.1558 159.727H40.884C41.1843 159.849 41.52 159.849 41.8203 159.727C47.6898 151.365 55.1924 144.28 63.8747 138.902C64.0794 138.673 64.1926 138.377 64.1926 138.069C64.1926 137.762 64.0794 137.465 63.8747 137.236C63.7841 137.082 63.6639 136.948 63.521 136.841C63.3782 136.733 63.2155 136.656 63.0425 136.612ZM68.0359 146.295C60.4187 150.142 53.6044 155.408 47.9581 161.81C47.8447 161.917 47.7544 162.046 47.6927 162.189C47.631 162.332 47.5992 162.487 47.5992 162.643C47.5992 162.799 47.631 162.953 47.6927 163.096C47.7544 163.24 47.8447 163.369 47.9581 163.476C48.2257 163.58 48.5227 163.58 48.7903 163.476C49.0906 163.597 49.4263 163.597 49.7266 163.476C55.1131 157.421 61.5663 152.409 68.7642 148.69C75.11 146.399 86.7614 154.729 90.6105 158.061C90.7265 158.178 90.8643 158.27 91.0161 158.333C91.1678 158.396 91.3305 158.429 91.4948 158.429C91.6591 158.429 91.8218 158.396 91.9735 158.333C92.1253 158.27 92.2631 158.178 92.3791 158.061C92.5838 157.832 92.6969 157.536 92.6969 157.228C92.6969 156.921 92.5838 156.624 92.3791 156.395C91.7549 156.187 77.0866 143.067 68.0359 146.295Z" fill="#00162C"/>
<path d="M137.736 355.69C166.24 317.06 127.333 274.473 122.444 269.058C129.102 255.106 112.041 236.988 111.416 236.155L110.792 235.426L109.96 236.155C71.6769 268.225 49.5184 271.661 41.6121 271.661H39.5315H38.5952V272.599C38.5952 274.16 -4.99353 432.118 2.18457 490.219C7.80221 535.201 25.4874 539.887 64.6028 539.887H86.1371C95.4998 539.887 106.111 539.887 117.346 539.887C122.531 540.468 127.78 539.83 132.674 538.022C137.569 536.215 141.974 533.287 145.538 529.474C159.166 512.085 150.428 476.267 142.001 441.697C133.575 407.128 125.565 372.142 137.736 355.69Z" fill="#D4FF8B"/>
<path d="M138.568 356.315C166.865 317.997 130.558 276.139 123.692 268.85C129.83 254.273 113.289 236.259 112.249 235.426L110.792 233.968L109.336 235.322C70.2204 268.017 47.7498 270.724 41.612 270.724H39.5314H37.6589L37.1387 272.599C35.2662 279.158 -6.55404 432.326 0.624056 490.636C6.34573 536.555 24.343 541.344 64.1866 541.344H85.7209C95.0836 541.344 105.695 541.344 116.93 541.344C122.325 541.832 127.759 541.05 132.799 539.062C137.838 537.073 142.343 533.932 145.955 529.891C159.895 512.085 151.156 476.058 142.626 441.176C135.239 406.607 126.709 372.35 138.568 356.315ZM117.762 537.804C96.9562 537.804 79.063 538.533 64.6028 538.533C24.1349 538.533 8.3223 532.91 2.91272 489.386C-4.26537 430.868 39.3234 272.182 39.3234 272.182H41.612C48.6861 272.182 71.3647 269.162 110.48 236.363C110.48 236.363 128.269 255.21 120.883 268.746C120.883 268.746 166.761 313.728 136.592 354.545C106.423 395.362 198.386 537.804 117.554 537.804H117.762Z" fill="black"/>
<path d="M454.197 225.847H354.119C336.481 225.847 322.182 240.158 322.182 257.813V509.482C322.182 527.137 336.481 541.449 354.119 541.449H454.197C471.835 541.449 486.134 527.137 486.134 509.482V257.813C486.134 240.158 471.835 225.847 454.197 225.847Z" fill="#000100"/>
<path d="M460.855 542.073H347.358C340.506 542.073 333.933 539.356 329.078 534.516C324.223 529.677 321.482 523.109 321.454 516.25V251.045C321.482 244.186 324.223 237.618 329.078 232.779C333.933 227.939 340.506 225.222 347.358 225.222H460.855C467.707 225.222 474.28 227.939 479.135 232.779C483.99 237.618 486.731 244.186 486.758 251.045V516.25C486.731 523.109 483.99 529.677 479.135 534.516C474.28 539.356 467.707 542.073 460.855 542.073ZM347.358 226.471C344.111 226.444 343.009 229.662 340 230.883C336.991 232.104 334.81 234.623 332.5 236.906C330.19 239.189 328.758 239.933 327.5 242.929C326.242 245.925 324.514 247.795 324.5 251.045L324 516.25C324.028 522.777 326.379 523.916 331 528.521C335.621 533.127 340.629 540.824 347.15 540.824H460.855C467.376 540.824 473.631 538.238 478.252 533.633C482.873 529.027 485.482 522.777 485.51 516.25V251.045C485.482 244.518 482.873 238.268 478.252 233.662C473.631 229.057 467.376 226.471 460.855 226.471H347.358Z" fill="#000100"/>
<path d="M462.563 224.013L360.361 225.846C342.723 225.846 328.424 240.158 328.424 257.813V509.482C328.424 527.137 342.723 541.449 360.361 541.449L462.563 542.921C480.201 542.921 494.5 528.609 494.5 510.954V255.979C494.5 238.324 480.201 224.013 462.563 224.013Z" fill="white"/>
<path d="M467.201 542.073H353.703C346.851 542.073 340.278 539.356 335.423 534.516C330.569 529.677 327.827 523.109 327.8 516.25V251.045C327.827 244.186 330.569 237.618 335.423 232.779C340.278 227.939 346.851 225.222 353.703 225.222H467.201C474.043 225.222 480.605 227.942 485.444 232.785C490.282 237.628 493 244.196 493 251.045V516.25C493 523.099 490.282 529.667 485.444 534.51C480.605 539.353 474.043 542.073 467.201 542.073ZM353.703 226.471C347.182 226.471 340.927 229.057 336.306 233.662C331.685 238.268 329.076 244.518 329.048 251.045V516.25C329.076 522.777 331.685 529.027 336.306 533.633C340.927 538.238 347.182 540.824 353.703 540.824H467.201C473.712 540.824 479.957 538.235 484.561 533.626C489.165 529.018 491.752 522.768 491.752 516.25V251.045C491.752 244.527 489.165 238.277 484.561 233.669C479.957 229.06 473.712 226.471 467.201 226.471H353.703Z" fill="#000100"/>
<path d="M432.454 247.921H388.345C387.932 247.936 387.519 247.865 387.134 247.713C386.749 247.561 386.399 247.331 386.106 247.038C385.814 246.745 385.584 246.395 385.432 246.01C385.281 245.624 385.21 245.211 385.225 244.797C385.211 244.378 385.281 243.961 385.432 243.57C385.582 243.179 385.81 242.822 386.101 242.521C386.392 242.22 386.741 241.98 387.127 241.817C387.512 241.653 387.927 241.569 388.345 241.569H432.454C432.878 241.569 433.297 241.653 433.688 241.815C434.08 241.977 434.435 242.215 434.735 242.515C435.034 242.815 435.272 243.17 435.434 243.562C435.596 243.954 435.679 244.373 435.679 244.797C435.68 245.216 435.595 245.631 435.432 246.017C435.269 246.403 435.03 246.752 434.729 247.044C434.428 247.335 434.071 247.563 433.681 247.714C433.29 247.865 432.873 247.935 432.454 247.921ZM448.267 249.899C447.652 249.899 447.043 249.778 446.475 249.543C445.907 249.307 445.391 248.962 444.957 248.527C444.522 248.092 444.177 247.575 443.942 247.007C443.707 246.438 443.586 245.829 443.586 245.214C443.585 243.961 444.075 242.759 444.95 241.863C445.825 240.968 447.016 240.451 448.267 240.424C449.528 240.451 450.73 240.964 451.621 241.856C452.513 242.749 453.026 243.952 453.052 245.214C453.025 246.466 452.509 247.658 451.614 248.534C450.72 249.409 449.518 249.9 448.267 249.899Z" fill="black"/>
<path d="M467.2 377.348C467.2 388.592 463.869 399.584 457.628 408.933C451.386 418.283 442.515 425.57 432.136 429.873C421.757 434.176 410.337 435.301 399.318 433.108C388.3 430.914 378.179 425.499 370.236 417.549C362.292 409.598 356.882 399.468 354.691 388.439C352.499 377.411 353.624 365.98 357.923 355.592C362.222 345.203 369.502 336.324 378.843 330.077C388.184 323.83 399.166 320.496 410.4 320.496C417.863 320.482 425.255 321.943 432.153 324.796C439.05 327.648 445.317 331.835 450.594 337.117C455.872 342.399 460.055 348.672 462.905 355.575C465.754 362.479 467.214 369.878 467.2 377.348Z" fill="#04226B"/>
<path d="M410.4 434.825C399.056 434.763 387.984 431.34 378.582 424.987C369.179 418.634 361.868 409.636 357.569 399.128C353.271 388.62 352.178 377.073 354.429 365.945C356.68 354.816 362.173 344.604 370.217 336.597C378.26 328.59 388.492 323.146 399.623 320.954C410.754 318.761 422.284 319.918 432.759 324.277C443.234 328.636 452.184 336.003 458.48 345.448C464.776 354.893 468.137 365.994 468.137 377.348C468.137 384.922 466.641 392.422 463.736 399.416C460.83 406.41 456.573 412.76 451.207 418.101C445.842 423.443 439.474 427.67 432.471 430.54C425.468 433.41 417.967 434.866 410.4 434.825ZM410.4 321.121C399.289 321.121 388.428 324.418 379.19 330.597C369.952 336.775 362.751 345.557 358.5 355.831C354.248 366.105 353.135 377.41 355.303 388.318C357.47 399.225 362.821 409.243 370.677 417.107C378.534 424.97 388.543 430.326 399.44 432.495C410.337 434.665 421.633 433.551 431.898 429.295C442.163 425.04 450.936 417.833 457.109 408.586C463.282 399.34 466.576 388.469 466.576 377.348C466.576 362.436 460.658 348.134 450.123 337.589C439.587 327.045 425.299 321.121 410.4 321.121Z" fill="#000100"/>
<path d="M377.838 351.317C376.981 352.175 376.35 353.234 376.005 354.398C375.66 355.562 375.611 356.793 375.862 357.981C378.99 371.076 385.682 383.048 395.194 392.568C404.706 402.089 416.667 408.786 429.75 411.918C430.961 412.174 432.217 412.118 433.4 411.754C434.583 411.389 435.654 410.729 436.512 409.835L445.146 401.297L429.125 385.262L421.531 392.967C415.692 390.135 410.352 386.372 405.719 381.826C401.412 377.231 397.896 371.953 395.315 366.207L402.91 358.606L386.473 342.571L377.838 351.317Z" fill="#F1F1EC"/>
</g>
<defs>
<clipPath id="clip0_313_11079">
<rect width="493" height="542.073" fill="white"/>
</clipPath>
</defs>
</svg>
