<svg width="37" height="37" viewBox="0 0 37 37" fill="none" xmlns="http://www.w3.org/2000/svg">
<path d="M14.8333 23.1667L9.70791 28.3562C8.99298 29.08 8.63551 29.442 8.32825 29.4675C8.06169 29.4896 7.80069 29.3825 7.6266 29.1794C7.42593 28.9453 7.42593 28.4366 7.42593 27.4192V24.8194C7.42593 23.9066 6.67846 23.2462 5.77534 23.1139C3.58957 22.7937 1.87296 21.0771 1.55279 18.8913C1.5 18.5309 1.5 18.1009 1.5 17.2407V9.5C1.5 6.69974 1.5 5.29961 2.04497 4.23005C2.52433 3.28924 3.28924 2.52433 4.23005 2.04497C5.29961 1.5 6.69974 1.5 9.5 1.5H21.8333C24.6336 1.5 26.0337 1.5 27.1033 2.04497C28.0441 2.52433 28.809 3.28924 29.2884 4.23005C29.8333 5.29961 29.8333 6.69974 29.8333 9.5V16.5M29.8333 34.8333L26.206 32.3115C25.6961 31.957 25.4411 31.7797 25.1637 31.6541C24.9174 31.5425 24.6585 31.4614 24.3926 31.4124C24.0931 31.3571 23.7826 31.3571 23.1615 31.3571H20.1667C18.2998 31.3571 17.3664 31.3571 16.6534 30.9938C16.0262 30.6743 15.5162 30.1643 15.1966 29.5371C14.8333 28.8241 14.8333 27.8907 14.8333 26.0238V21.8333C14.8333 19.9665 14.8333 19.0331 15.1966 18.32C15.5162 17.6928 16.0262 17.1829 16.6534 16.8633C17.3664 16.5 18.2998 16.5 20.1667 16.5H29.5C31.3668 16.5 32.3003 16.5 33.0133 16.8633C33.6405 17.1829 34.1504 17.6928 34.47 18.32C34.8333 19.0331 34.8333 19.9665 34.8333 21.8333V26.3571C34.8333 27.9103 34.8333 28.6869 34.5796 29.2994C34.2413 30.1162 33.5924 30.7651 32.7756 31.1034C32.163 31.3571 31.3865 31.3571 29.8333 31.3571V34.8333Z" stroke="#FFC107" stroke-width="3" stroke-linecap="round" stroke-linejoin="round"/>
</svg>
