<svg width="90" height="90" viewBox="0 0 90 90" fill="none" xmlns="http://www.w3.org/2000/svg">
<circle cx="45" cy="45" r="45" fill="#34352E"/>
<path d="M20.7792 53.0003C20.572 53.0008 20.3736 53.0832 20.2274 53.2294C20.0813 53.3756 19.9995 53.5736 20 53.7798C20.0005 53.986 20.0833 54.1836 20.2302 54.3291C20.377 54.4745 20.5759 54.556 20.7831 54.5554H27.3996C27.8149 54.5605 28.2154 54.4014 28.5131 54.113C28.8107 53.8246 28.9814 53.4304 28.9875 53.017V51.117C29.3998 51.1914 29.8049 51.3013 30.1981 51.4455L47.012 57.5408C47.0295 57.5473 47.0471 57.553 47.065 57.5579C47.517 57.6866 47.994 57.7016 48.4533 57.6016C48.9125 57.5016 49.3397 57.2896 49.6964 56.9848L68.5015 41.753C69.3186 41.052 69.8424 40.0719 69.9698 39.0057C70.0972 37.9395 69.8189 36.8644 69.1898 35.9923C68.8659 35.5592 68.4555 35.1974 67.9844 34.9298C67.5133 34.6622 66.9917 34.4944 66.4523 34.4371C65.9226 34.3798 65.3867 34.4322 64.8783 34.5908C64.3698 34.7495 63.8998 35.0111 63.4978 35.3592L54.0916 43.1691C54.2244 43.6373 54.2927 44.1213 54.2946 44.6077C54.2946 44.755 54.2816 44.9002 54.2712 45.0459L64.5081 36.546C64.7496 36.3351 65.0324 36.1762 65.3387 36.0795C65.6449 35.9827 65.968 35.9502 66.2875 35.9839C66.6145 36.0197 66.9305 36.1225 67.2157 36.2858C67.5008 36.449 67.749 36.6692 67.9445 36.9326C68.3373 37.484 68.5093 38.1614 68.4267 38.8324C68.3442 39.5033 68.013 40.1194 67.4981 40.5601L48.6934 55.792C48.5348 55.93 48.3449 56.0273 48.1399 56.0755C47.935 56.1238 47.7213 56.1215 47.5175 56.0688L30.897 50.0381L30.696 49.9709C30.1446 49.7657 29.5713 49.6241 28.9875 49.549V37.4768L30.8324 36.3351C30.8913 36.3087 30.9466 36.2856 31.0007 36.2635C31.0248 36.2537 31.051 36.2418 31.0742 36.2328C31.1366 36.2087 31.1936 36.1895 31.2499 36.1709C31.2697 36.1645 31.2913 36.1561 31.3104 36.1503C31.3536 36.137 31.3924 36.1279 31.4323 36.1177C31.4617 36.1103 31.4929 36.101 31.5208 36.0951C31.5441 36.0901 31.5649 36.0876 31.5872 36.0836C31.6273 36.0764 31.6679 36.0686 31.7052 36.0643C31.7138 36.0633 31.7216 36.0634 31.7301 36.0625C31.7776 36.0577 31.8239 36.0541 31.8677 36.0533C31.8717 36.0532 31.8753 36.0536 31.8793 36.0535C31.9255 36.053 31.9702 36.054 32.0134 36.0568C32.0475 36.0591 32.0807 36.0629 32.1138 36.0667C32.1257 36.0681 32.1381 36.0688 32.1499 36.0704C32.1959 36.0764 32.2414 36.0835 32.2873 36.091L48.0421 41.4667C48.0698 41.4761 48.0979 41.4841 48.1264 41.4906C49.5961 41.8141 51.1691 43.1441 51.1691 44.6077C51.1719 45.0329 51.0832 45.4536 50.9089 45.8418C50.7347 46.2299 50.4789 46.5764 50.1588 46.8579C49.8783 47.107 49.548 47.2942 49.1897 47.4072C48.8313 47.5203 48.453 47.5566 48.0795 47.5137L38.3403 44.4684C38.2424 44.4377 38.1393 44.4266 38.0371 44.4356C37.9349 44.4446 37.8355 44.4736 37.7445 44.5208C37.6535 44.5681 37.5728 44.6327 37.5069 44.711C37.441 44.7893 37.3913 44.8798 37.3605 44.9773C37.3297 45.0747 37.3185 45.1772 37.3276 45.279C37.3366 45.3807 37.3657 45.4797 37.4132 45.5703C37.4607 45.6608 37.5256 45.7412 37.6043 45.8068C37.683 45.8724 37.7738 45.9219 37.8717 45.9525L47.6778 49.0188C47.7197 49.0317 47.7625 49.0412 47.8059 49.0473C47.9947 49.073 48.185 49.0859 48.3756 49.086C49.4098 49.0837 50.4083 48.7086 51.1863 48.0302C51.6744 47.6026 52.0649 47.076 52.3315 46.4856C52.5981 45.8953 52.7346 45.255 52.7318 44.6077C52.7318 42.3105 50.5926 40.4603 48.5091 39.9818L32.7333 34.5989C32.6934 34.5851 32.6525 34.5747 32.6109 34.5677C32.5332 34.5546 32.4542 34.5423 32.3732 34.5317C31.8579 34.4594 31.3328 34.5069 30.839 34.6704C30.5999 34.7441 30.3661 34.8338 30.1393 34.9391C30.1105 34.9524 30.0826 34.9675 30.0558 34.9843L28.9875 35.6454V33.5386C28.9814 33.1251 28.8107 32.731 28.5131 32.4426C28.2154 32.1542 27.8149 31.9951 27.3996 32.0001H20.7831C20.5759 32.0001 20.3772 32.0821 20.2306 32.2279C20.0841 32.3738 20.0018 32.5716 20.0018 32.7779C20.0018 32.9842 20.0841 33.182 20.2306 33.3279C20.3772 33.4737 20.5759 33.5557 20.7831 33.5557L27.4248 33.5386L27.3996 52.9999H20.7831V52.9666C20.7806 52.9776 20.7813 52.9892 20.7792 53.0003Z" fill="#FFC107"/>
</svg>
