<svg width="90" height="90" viewBox="0 0 90 90" fill="none" xmlns="http://www.w3.org/2000/svg">
<circle cx="45" cy="45" r="45" fill="#34352E"/>
<path d="M27.7505 56.9748L39.3084 65.0392C39.3184 65.0463 39.3279 65.0538 39.3382 65.0606C40.7031 66.0184 42.3292 66.534 43.9966 66.5376C44.7498 66.5363 45.4988 66.4251 46.2199 66.2074C46.2154 66.5455 46.2958 66.8793 46.4538 67.1783C46.6117 67.4772 46.8422 67.7318 47.124 67.9186L51.2313 70.656C51.6798 70.9536 52.2275 71.0632 52.7559 70.9612C53.2844 70.8593 53.7517 70.5539 54.0572 70.1109L63.7414 55.9398C63.8926 55.7186 63.9983 55.4695 64.0524 55.2071C64.1065 54.9447 64.1079 54.6742 64.0566 54.4112C64.0052 54.1483 63.9021 53.8981 63.7533 53.6754C63.6044 53.4526 63.4128 53.2616 63.1895 53.1135L58.7434 50.1499C58.54 50.0159 58.3091 49.9291 58.0678 49.8959C57.8265 49.8627 57.5808 49.8839 57.3487 49.958C58.1792 43.9682 56.8993 37.8761 53.7287 32.7268C53.4046 32.1802 52.9479 31.724 52.4009 31.4005C52.0584 31.1809 51.6672 31.0486 51.2617 31.0152C50.8562 30.9818 50.4487 31.0483 50.0749 31.2089C49.6008 31.4528 49.1897 31.8031 48.8737 32.2324C48.5577 32.6618 48.3454 33.1584 48.2535 33.6835C47.9746 34.9231 48.2047 36.5509 48.4483 38.2743C48.6807 39.6328 48.7979 41.0085 48.7986 42.3867L32.8501 31.4418C30.9696 30.1294 28.8007 30.4472 27.4542 32.2327C27.4352 32.2581 27.4176 32.2845 27.4014 32.3118C26.4065 34.0134 26.9 35.9062 28.665 37.1374L32.238 39.5882C31.5568 39.8256 30.9653 40.2671 30.5439 40.8526C30.2323 41.2784 30.009 41.7621 29.8871 42.2755C29.7652 42.7888 29.7472 43.3213 29.8342 43.8417C29.9232 44.3662 30.1198 44.8666 30.4118 45.3112C29.6094 45.506 28.9035 45.9823 28.4226 46.6536C27.9818 47.2533 27.7393 47.9759 27.7291 48.7202C27.719 49.4644 27.9416 50.1933 28.3659 50.8049C27.5939 50.9988 26.914 51.4566 26.4441 52.0991C26.2166 52.4155 26.0557 52.7748 25.971 53.1552C25.8863 53.5357 25.8796 53.9293 25.9514 54.3124C26.1754 55.4029 26.8223 56.3602 27.7505 56.9748ZM57.842 51.502L62.2886 54.4659C62.3332 54.4952 62.3716 54.5332 62.4013 54.5775C62.4311 54.6219 62.4517 54.6718 62.4619 54.7242C62.4721 54.7756 62.4718 54.8285 62.4611 54.8797C62.4504 54.931 62.4295 54.9795 62.3996 55.0225L52.7155 69.1941C52.6521 69.285 52.5555 69.3475 52.4465 69.368C52.3376 69.3886 52.2249 69.3656 52.1327 69.304L48.0254 66.5666C47.9806 66.5372 47.9422 66.4992 47.9124 66.4548C47.8825 66.4104 47.8619 66.3604 47.8516 66.3079C47.8417 66.2565 47.8421 66.2037 47.8528 66.1525C47.8635 66.1012 47.8842 66.0527 47.9139 66.0096L57.842 51.502ZM27.7652 53.0456C28.3655 52.2085 29.7207 52.0522 30.6649 52.7112L32.9211 54.2858C33.0978 54.4084 33.3159 54.4558 33.5275 54.4179C33.7391 54.3799 33.9271 54.2596 34.0502 54.0834C34.1733 53.9071 34.2215 53.6892 34.1843 53.4774C34.147 53.2657 34.0273 53.0773 33.8514 52.9536L30.2932 50.4701C30.0569 50.3126 29.8545 50.1096 29.6978 49.8728C29.541 49.6361 29.4331 49.3704 29.3803 49.0915C29.337 48.8312 29.3469 48.5648 29.4093 48.3084C29.4718 48.052 29.5855 47.811 29.7437 47.5998C30.4673 46.5893 31.8682 46.6603 32.8068 47.3125L36.2496 49.7151C36.3372 49.7762 36.4358 49.8198 36.54 49.8428C36.6442 49.8657 36.7519 49.8679 36.857 49.8492C36.9621 49.8305 37.0624 49.7913 37.1523 49.7338C37.2422 49.6763 37.3199 49.6017 37.381 49.5142C37.442 49.4267 37.4852 49.328 37.5082 49.2238C37.5311 49.1196 37.5333 49.0119 37.5146 48.9069C37.4959 48.8018 37.4567 48.7015 37.3992 48.6116C37.3417 48.5217 37.2671 48.444 37.1796 48.3829L33.7408 45.9827L33.7376 45.9807L32.3542 45.0153C32.1123 44.8473 31.9064 44.6326 31.7487 44.3838C31.5909 44.1351 31.4846 43.8573 31.4358 43.5668C31.3859 43.2584 31.3982 42.9431 31.4719 42.6395C31.5456 42.3358 31.6793 42.05 31.865 41.7988C32.5169 40.8879 33.8781 40.7229 34.9222 41.4298L34.95 41.4489L34.9536 41.4513L39.8568 44.8149C39.9687 44.888 40.0968 44.9326 40.23 44.9446C40.3631 44.9567 40.4972 44.9359 40.6205 44.8842C40.7455 44.8317 40.8561 44.7498 40.9426 44.6454C41.0292 44.541 41.0892 44.4171 41.1176 44.2845C41.1517 44.1263 41.1378 43.9614 41.0775 43.8112C41.0173 43.6609 40.9135 43.5321 40.7796 43.4413L35.8839 40.1188L35.8684 40.1081C35.8541 40.0982 35.8399 40.0885 35.8256 40.079L29.5894 35.8011C29.0935 35.4549 28.0307 34.5109 28.7809 33.1729C29.9905 31.6154 31.487 32.4727 31.9253 32.778L48.5181 44.1651C48.4069 44.5198 48.2415 44.8553 48.0278 45.1595C47.9022 45.3347 47.8515 45.5526 47.8866 45.7652C47.9217 45.9778 48.0398 46.1678 48.215 46.2933C48.3902 46.4189 48.6081 46.4697 48.8207 46.4345C49.0334 46.3994 49.2234 46.2813 49.3489 46.1061C49.7558 45.5261 50.0456 44.8723 50.2023 44.1813C50.2574 44.0661 50.2844 43.9395 50.2812 43.8118C50.6168 42.0059 50.3248 39.9399 50.057 38.0467C49.8349 36.4747 49.625 34.9899 49.8388 34.0402C49.8806 33.765 49.9818 33.5022 50.1355 33.2701C50.2892 33.038 50.4916 32.8423 50.7287 32.6965C50.8701 32.6392 51.024 32.6196 51.1753 32.6395C51.3265 32.6594 51.4701 32.7181 51.592 32.8099C51.9012 32.997 52.1585 33.2588 52.3402 33.5712C56.2916 40.0652 56.6817 47.5412 55.0664 52.6627L47.4237 63.8467C46.3776 64.5526 45.1422 64.9249 43.8802 64.9144C42.6183 64.9039 41.3892 64.5112 40.355 63.7879L40.3515 63.7851L28.6805 55.6422C28.1113 55.2732 27.7072 54.698 27.553 54.0375C27.5185 53.8664 27.5196 53.6901 27.5561 53.5195C27.5926 53.3489 27.6638 53.1876 27.7652 53.0456ZM42.5632 22.25C42.7787 22.25 42.9854 22.1644 43.1377 22.012C43.2901 21.8596 43.3757 21.653 43.3757 21.4375V19.8125C43.3757 19.597 43.2901 19.3903 43.1378 19.238C42.9854 19.0856 42.7787 19 42.5632 19C42.3477 19 42.1411 19.0856 41.9887 19.238C41.8363 19.3903 41.7507 19.597 41.7507 19.8125V21.4375C41.7507 21.653 41.8364 21.8596 41.9887 22.012C42.1411 22.1644 42.3478 22.25 42.5632 22.25ZM48.021 24.5108C48.1277 24.5109 48.2334 24.4899 48.332 24.4491C48.4306 24.4082 48.5201 24.3483 48.5955 24.2727L49.7444 23.1236C49.8201 23.0482 49.8801 22.9586 49.9212 22.86C49.9622 22.7614 49.9833 22.6556 49.9834 22.5488C49.9835 22.442 49.9626 22.3362 49.9218 22.2375C49.8809 22.1388 49.821 22.0491 49.7455 21.9736C49.67 21.898 49.5803 21.8381 49.4816 21.7973C49.3829 21.7565 49.2771 21.7355 49.1703 21.7356C49.0634 21.7357 48.9577 21.7569 48.8591 21.7979C48.7604 21.8389 48.6709 21.899 48.5955 21.9747L47.4466 23.1238C47.3329 23.2374 47.2555 23.3822 47.2241 23.5398C47.1928 23.6974 47.2088 23.8608 47.2703 24.0092C47.3318 24.1577 47.436 24.2846 47.5696 24.3739C47.7032 24.4631 47.8603 24.5108 48.021 24.5108ZM49.4695 29.1562C49.4695 29.3717 49.5551 29.5784 49.7075 29.7308C49.8598 29.8831 50.0665 29.9687 50.282 29.9687H51.907C52.1225 29.9687 52.3291 29.8831 52.4815 29.7308C52.6339 29.5784 52.7195 29.3717 52.7195 29.1562C52.7195 28.9408 52.6339 28.7341 52.4815 28.5817C52.3291 28.4294 52.1225 28.3437 51.907 28.3437H50.282C50.0665 28.3438 49.8598 28.4294 49.7075 28.5817C49.5551 28.7341 49.4695 28.9408 49.4695 29.1562ZM33.2195 29.9687H34.8445C35.06 29.9687 35.2666 29.8831 35.419 29.7308C35.5714 29.5784 35.657 29.3717 35.657 29.1562C35.657 28.9408 35.5714 28.7341 35.419 28.5817C35.2666 28.4294 35.06 28.3437 34.8445 28.3437H33.2195C33.004 28.3437 32.7973 28.4294 32.645 28.5817C32.4926 28.7341 32.407 28.9408 32.407 29.1562C32.407 29.3717 32.4926 29.5784 32.645 29.7308C32.7973 29.8831 33.004 29.9687 33.2195 29.9687ZM36.5306 24.2727C36.606 24.3484 36.6955 24.4085 36.7942 24.4495C36.8928 24.4905 36.9985 24.5117 37.1053 24.5118C37.2122 24.5119 37.318 24.4909 37.4167 24.4501C37.5154 24.4092 37.6051 24.3493 37.6806 24.2738C37.7561 24.1983 37.816 24.1086 37.8568 24.0099C37.8977 23.9112 37.9186 23.8054 37.9185 23.6986C37.9184 23.5918 37.8973 23.486 37.8562 23.3874C37.8152 23.2888 37.7552 23.1992 37.6795 23.1238L36.5306 21.9747C36.4552 21.899 36.3656 21.8389 36.267 21.7979C36.1683 21.7569 36.0626 21.7357 35.9558 21.7356C35.849 21.7355 35.7432 21.7565 35.6445 21.7973C35.5458 21.8382 35.4561 21.898 35.3805 21.9736C35.305 22.0491 35.2451 22.1388 35.2043 22.2375C35.1635 22.3362 35.1425 22.442 35.1426 22.5488C35.1427 22.6556 35.1639 22.7614 35.2049 22.86C35.2459 22.9586 35.306 23.0482 35.3816 23.1236L36.5306 24.2727Z" fill="#FFC107"/>
</svg>
