<svg width="188" height="41" viewBox="0 0 188 41" fill="none" xmlns="http://www.w3.org/2000/svg">
<path d="M124.526 18.3723H119.045V23.2541C119.045 24.147 118.757 24.8814 118.181 25.4571C117.617 26.0328 116.895 26.3206 116.014 26.3206C115.144 26.3206 114.427 26.0328 113.864 25.4571C113.3 24.8696 113.018 24.1353 113.018 23.2541V4.73157C113.018 3.83863 113.305 3.10431 113.881 2.5286C114.457 1.95289 115.191 1.66504 116.084 1.66504H124.596C126.934 1.66504 128.902 2.44636 130.5 4.00899C132.098 5.57163 132.897 7.56899 132.897 10.0011C132.897 12.5036 132.104 14.5245 130.518 16.0636C128.932 17.6028 126.934 18.3723 124.526 18.3723ZM119.045 6.56444V13.4729H123.116C124.197 13.4729 125.096 13.1498 125.812 12.5036C126.541 11.8457 126.905 11.0115 126.905 10.0011C126.905 9.01413 126.541 8.19757 125.812 7.55136C125.096 6.89341 124.209 6.56444 123.151 6.56444H119.045Z" fill="white"/>
<path d="M108.382 21.7735C108.793 22.1848 108.999 22.7487 108.999 23.4654C108.999 24.2644 108.717 24.9458 108.153 25.5098C107.589 26.0737 106.908 26.3557 106.109 26.3557C105.286 26.3557 104.493 25.9445 103.73 25.122L99.9757 21.0862L96.1513 25.122C95.3759 25.9445 94.5828 26.3557 93.7721 26.3557C92.9732 26.3557 92.2917 26.0737 91.7278 25.5098C91.1638 24.9341 90.8818 24.2526 90.8818 23.4654C90.8818 22.7487 91.0757 22.1848 91.4634 21.7735L96.3276 16.7508L91.7806 11.9924C91.3929 11.5812 91.1991 11.0113 91.1991 10.2829C91.1991 9.48393 91.4752 8.80248 92.0274 8.23852C92.5796 7.67456 93.2552 7.39258 94.0541 7.39258C94.9235 7.39258 95.7284 7.8038 96.4686 8.62624L99.9404 12.4858L103.589 8.62624C104.387 7.8038 105.192 7.39258 106.003 7.39258C106.802 7.39258 107.483 7.68043 108.047 8.25614C108.611 8.8201 108.893 9.49568 108.893 10.2829C108.893 10.9996 108.688 11.5694 108.276 11.9924L103.589 16.7508L108.382 21.7735Z" fill="white"/>
<path d="M75.8667 26.3203C74.3041 26.3203 72.8237 25.9444 71.4256 25.1924C70.0274 24.4287 68.876 23.3125 67.9713 21.8439C67.0784 20.3753 66.6319 18.7245 66.6319 16.8916C66.6319 15.0353 67.0784 13.3786 67.9713 11.9217C68.876 10.4531 70.0274 9.3428 71.4256 8.59085C72.8237 7.82716 74.2923 7.44531 75.8315 7.44531C77.0534 7.44531 78.1754 7.69792 79.1976 8.20313C80.2198 8.70835 80.9717 9.35455 81.4535 10.1417L81.5239 9.34867C81.6179 8.79646 81.9234 8.35 82.4404 8.00927C82.9691 7.6568 83.6035 7.48056 84.3437 7.48056C85.1427 7.48056 85.8006 7.76254 86.3176 8.3265C86.8346 8.89046 87.093 9.60716 87.093 10.4766V23.289C87.093 24.1585 86.8463 24.8811 86.3528 25.4568C85.8594 26.0325 85.1897 26.3203 84.3437 26.3203C83.5448 26.3203 82.9045 26.1382 82.4228 25.774C81.9528 25.4098 81.6532 24.9633 81.5239 24.4346L81.4535 23.6415C80.9952 24.464 80.2433 25.116 79.1976 25.5978C78.1519 26.0795 77.0416 26.3203 75.8667 26.3203ZM73.8752 19.8524C74.6977 20.6749 75.6846 21.0861 76.836 21.0861C77.9875 21.0861 78.9744 20.6749 79.7968 19.8524C80.6193 19.03 81.0305 18.043 81.0305 16.8916C81.0305 15.7402 80.6193 14.7592 79.7968 13.9485C78.9744 13.126 77.9875 12.7148 76.836 12.7148C75.6846 12.7148 74.6977 13.126 73.8752 13.9485C73.0646 14.7592 72.6592 15.7402 72.6592 16.8916C72.6592 18.043 73.0646 19.03 73.8752 19.8524Z" fill="white"/>
<path d="M65.5399 1.66504C66.2566 1.66504 66.8734 1.92352 67.3904 2.44048C67.9073 2.95745 68.1658 3.58015 68.1658 4.3086C68.1658 5.0253 67.9073 5.63625 67.3904 6.14147C66.8734 6.64668 66.2566 6.89929 65.5399 6.89929H60.5876V23.166C60.5876 24.0354 60.2821 24.7815 59.6712 25.4042C59.0602 26.0152 58.32 26.3206 57.4506 26.3206C56.5811 26.3206 55.8409 26.0152 55.23 25.4042C54.619 24.7815 54.3136 24.0354 54.3136 23.166V6.89929H49.3613C48.6446 6.89929 48.0278 6.64668 47.5108 6.14147C46.9938 5.63625 46.7354 5.0253 46.7354 4.3086C46.7354 3.58015 46.9938 2.95745 47.5108 2.44048C48.0278 1.92352 48.6446 1.66504 49.3613 1.66504H65.5399Z" fill="white"/>
<path d="M185.374 21.2011C186.115 21.1541 186.714 21.3656 187.172 21.8355C187.63 22.3055 187.859 22.8871 187.859 23.5803C187.859 24.1795 187.654 24.7023 187.242 25.1488C186.831 25.5953 186.314 25.8655 185.692 25.9595C185.022 26.077 184.47 26.1416 184.035 26.1534C181.72 26.1534 179.846 25.466 178.413 24.0914C176.991 22.7167 176.28 20.972 176.28 18.8571V12.5478H175.188C174.542 12.5478 173.984 12.3129 173.514 11.8429C173.044 11.3729 172.809 10.809 172.809 10.151C172.809 9.48131 173.044 8.91735 173.514 8.45913C173.984 8.00091 174.542 7.7718 175.188 7.7718H176.28V6.11517C176.28 5.29273 176.568 4.58778 177.144 4.00033C177.72 3.41287 178.419 3.11914 179.241 3.11914C180.075 3.11914 180.786 3.41287 181.374 4.00033C181.973 4.58778 182.273 5.29273 182.273 6.11517V7.7718H185.621C186.291 7.7718 186.855 8.00091 187.313 8.45913C187.771 8.91735 188 9.48131 188 10.151C188 10.809 187.771 11.3729 187.313 11.8429C186.855 12.3129 186.291 12.5478 185.621 12.5478H182.273V18.3108C182.273 19.2272 182.49 19.9498 182.925 20.4785C183.371 21.0072 183.982 21.2716 184.757 21.2716C184.828 21.2716 185.034 21.2481 185.374 21.2011Z" fill="white"/>
<path d="M146.234 26.4241C145.488 26.7268 144.715 26.7047 143.918 26.3577C143.132 26.0153 142.59 25.4653 142.292 24.7076C142.009 23.9439 142.044 23.1581 142.395 22.3501L150.506 3.71892C150.863 2.9002 151.414 2.33947 152.161 2.03672C152.924 1.72789 153.698 1.74465 154.484 2.087C155.282 2.43404 155.821 2.98943 156.104 3.75317C156.391 4.50614 156.357 5.29198 156 6.1107L147.889 24.7419C147.533 25.5606 146.981 26.1213 146.234 26.4241Z" fill="white"/>
<path d="M141.305 7.52126C140.443 7.14608 139.834 6.52858 139.478 5.66877C139.127 4.79819 139.139 3.932 139.514 3.07019C139.88 2.22993 140.501 1.64182 141.378 1.30587C142.254 0.969923 143.124 0.989539 143.985 1.36472C144.826 1.73052 145.425 2.35644 145.782 3.24249C146.15 4.13322 146.156 4.98795 145.8 5.80666C145.434 6.64692 144.8 7.23573 143.897 7.57307C143.009 7.90433 142.145 7.88706 141.305 7.52126ZM135.482 26.2835C134.735 26.5863 133.963 26.5641 133.166 26.2171C132.38 25.8747 131.838 25.3247 131.539 24.5671C131.257 23.8033 131.291 23.0175 131.643 22.2096L136.715 10.559C137.072 9.74028 137.623 9.17955 138.37 8.8768C139.128 8.57874 139.9 8.60089 140.686 8.94324C141.483 9.29028 142.026 9.84028 142.313 10.5932C142.6 11.3462 142.566 12.1321 142.209 12.9508L137.137 24.6013C136.781 25.42 136.229 25.9808 135.482 26.2835Z" fill="white"/>
<path fill-rule="evenodd" clip-rule="evenodd" d="M164.12 20.9432C165.966 20.9432 167.462 19.447 167.462 17.6013C167.462 15.7555 165.966 14.2593 164.12 14.2593C162.274 14.2593 160.778 15.7555 160.778 17.6013C160.778 19.447 162.274 20.9432 164.12 20.9432ZM164.12 26.2904C168.919 26.2904 172.809 22.4001 172.809 17.6013C172.809 12.8024 168.919 8.91211 164.12 8.91211C159.321 8.91211 155.431 12.8024 155.431 17.6013C155.431 22.4001 159.321 26.2904 164.12 26.2904Z" fill="white"/>
<path d="M169.164 36.511C169.321 36.3499 169.506 36.2324 169.719 36.1584C169.937 36.08 170.156 36.0409 170.378 36.0409C170.831 36.0409 171.158 36.1475 171.358 36.3608C171.558 36.5741 171.658 36.8984 171.658 37.3336V38.646C171.658 38.733 171.662 38.8245 171.671 38.9202C171.68 39.0116 171.691 39.0965 171.704 39.1748H171.214C171.197 39.1052 171.186 39.029 171.181 38.9463C171.181 38.8593 171.181 38.7831 171.181 38.7178H171.168C171.068 38.8745 170.933 39.0029 170.764 39.103C170.598 39.2031 170.398 39.2532 170.163 39.2532C170.006 39.2532 169.858 39.2336 169.719 39.1944C169.584 39.1553 169.464 39.0987 169.36 39.0247C169.26 38.9463 169.179 38.8506 169.118 38.7374C169.057 38.6242 169.027 38.4936 169.027 38.3456C169.027 38.0932 169.092 37.8951 169.223 37.7515C169.353 37.6079 169.514 37.5012 169.706 37.4316C169.902 37.3619 170.111 37.3184 170.333 37.301C170.559 37.2836 170.766 37.2749 170.953 37.2749H171.149V37.1835C171.149 36.9615 171.081 36.7939 170.946 36.6807C170.816 36.5675 170.631 36.511 170.391 36.511C170.226 36.511 170.063 36.5393 169.902 36.5958C169.745 36.6481 169.606 36.7308 169.484 36.8439L169.164 36.511ZM170.64 37.7058C170.313 37.7058 170.054 37.7515 169.863 37.8429C169.671 37.9343 169.575 38.0845 169.575 38.2934C169.575 38.4849 169.638 38.622 169.765 38.7048C169.895 38.7831 170.056 38.8223 170.248 38.8223C170.396 38.8223 170.524 38.7983 170.633 38.7505C170.746 38.6982 170.84 38.6308 170.914 38.5481C170.988 38.4653 171.044 38.3696 171.084 38.2608C171.123 38.1476 171.144 38.0279 171.149 37.9017V37.7058H170.64ZM170.868 35.3879H170.405L169.471 34.4478H170.189L170.868 35.3879Z" fill="#D7D7D7"/>
<path d="M168.579 36.5503H167.678V38.0781C167.678 38.1782 167.68 38.2718 167.685 38.3588C167.689 38.4415 167.706 38.5155 167.737 38.5808C167.767 38.6418 167.813 38.6918 167.874 38.731C167.935 38.7658 168.022 38.7832 168.135 38.7832C168.209 38.7832 168.285 38.7745 168.364 38.7571C168.442 38.7397 168.516 38.7136 168.586 38.6788L168.605 39.1423C168.518 39.1815 168.42 39.2098 168.311 39.2272C168.207 39.2446 168.107 39.2533 168.011 39.2533C167.828 39.2533 167.682 39.2294 167.574 39.1815C167.465 39.1336 167.38 39.0662 167.319 38.9791C167.258 38.8921 167.217 38.7854 167.195 38.6592C167.178 38.5286 167.169 38.385 167.169 38.2283V36.5503H166.503V36.1194H167.169V35.251H167.678V36.1194H168.579V36.5503Z" fill="#D7D7D7"/>
<path d="M165.385 36.1192H165.894V39.1749H165.385V36.1192ZM165.267 34.9244C165.267 34.8243 165.302 34.7372 165.372 34.6632C165.446 34.5892 165.535 34.5522 165.639 34.5522C165.744 34.5522 165.831 34.5892 165.901 34.6632C165.975 34.7372 166.012 34.8243 166.012 34.9244C166.012 35.0332 165.977 35.1225 165.907 35.1921C165.837 35.2617 165.748 35.2966 165.639 35.2966C165.531 35.2966 165.441 35.2617 165.372 35.1921C165.302 35.1225 165.267 35.0332 165.267 34.9244Z" fill="#D7D7D7"/>
<path d="M163.81 34.2388H164.32V39.1748H163.81V34.2388Z" fill="#D7D7D7"/>
<path d="M160.339 36.5111C160.496 36.3501 160.681 36.2325 160.894 36.1585C161.112 36.0802 161.331 36.041 161.553 36.041C162.006 36.041 162.333 36.1477 162.533 36.3609C162.733 36.5742 162.833 36.8985 162.833 37.3338V38.6461C162.833 38.7332 162.838 38.8246 162.846 38.9204C162.855 39.0118 162.866 39.0967 162.879 39.175H162.389C162.372 39.1054 162.361 39.0292 162.357 38.9465C162.357 38.8594 162.357 38.7833 162.357 38.718H162.343C162.243 38.8747 162.108 39.0031 161.939 39.1032C161.773 39.2033 161.573 39.2534 161.338 39.2534C161.181 39.2534 161.033 39.2338 160.894 39.1946C160.759 39.1554 160.639 39.0988 160.535 39.0248C160.435 38.9465 160.354 38.8507 160.293 38.7375C160.232 38.6244 160.202 38.4938 160.202 38.3458C160.202 38.0933 160.267 37.8953 160.398 37.7516C160.528 37.608 160.689 37.5014 160.881 37.4317C161.077 37.3621 161.286 37.3185 161.508 37.3011C161.734 37.2837 161.941 37.275 162.128 37.275H162.324V37.1836C162.324 36.9616 162.256 36.794 162.122 36.6809C161.991 36.5677 161.806 36.5111 161.567 36.5111C161.401 36.5111 161.238 36.5394 161.077 36.596C160.92 36.6482 160.781 36.7309 160.659 36.8441L160.339 36.5111ZM161.815 37.7059C161.488 37.7059 161.229 37.7516 161.038 37.8431C160.846 37.9345 160.75 38.0846 160.75 38.2936C160.75 38.4851 160.813 38.6222 160.94 38.7049C161.07 38.7833 161.231 38.8224 161.423 38.8224C161.571 38.8224 161.699 38.7985 161.808 38.7506C161.921 38.6984 162.015 38.6309 162.089 38.5482C162.163 38.4655 162.219 38.3697 162.259 38.2609C162.298 38.1478 162.32 38.028 162.324 37.9018V37.7059H161.815Z" fill="#D7D7D7"/>
<path d="M159.403 36.8828C159.294 36.7522 159.177 36.6586 159.05 36.602C158.924 36.5411 158.785 36.5106 158.633 36.5106C158.463 36.5106 158.313 36.5411 158.182 36.602C158.052 36.6586 157.943 36.7391 157.856 36.8436C157.773 36.9481 157.71 37.07 157.666 37.2092C157.623 37.3442 157.601 37.49 157.601 37.6467C157.601 37.8034 157.625 37.9514 157.673 38.0907C157.725 38.2256 157.795 38.3453 157.882 38.4498C157.973 38.5542 158.082 38.6369 158.208 38.6979C158.334 38.7545 158.476 38.7828 158.633 38.7828C158.968 38.7828 159.227 38.6565 159.41 38.4041L159.788 38.7632C159.64 38.9329 159.466 39.057 159.266 39.1353C159.066 39.2137 158.855 39.2529 158.633 39.2529C158.398 39.2529 158.182 39.2137 157.986 39.1353C157.79 39.057 157.623 38.946 157.483 38.8024C157.349 38.6587 157.242 38.489 157.164 38.2931C157.09 38.0972 157.053 37.8817 157.053 37.6467C157.053 37.416 157.09 37.2027 157.164 37.0068C157.242 36.811 157.351 36.6412 157.49 36.4976C157.629 36.3539 157.795 36.2429 157.986 36.1646C158.182 36.0819 158.398 36.0405 158.633 36.0405C158.859 36.0405 159.072 36.0797 159.272 36.1581C159.477 36.2364 159.656 36.3583 159.808 36.5237L159.403 36.8828Z" fill="#D7D7D7"/>
<path d="M154.514 38.3719C154.614 38.4981 154.723 38.5983 154.84 38.6723C154.962 38.7463 155.115 38.7833 155.297 38.7833C155.376 38.7833 155.454 38.7745 155.533 38.7571C155.615 38.7397 155.689 38.7114 155.755 38.6723C155.82 38.6331 155.872 38.5852 155.911 38.5286C155.95 38.4677 155.97 38.3959 155.97 38.3132C155.97 38.2305 155.95 38.163 155.911 38.1108C155.876 38.0585 155.828 38.015 155.768 37.9802C155.707 37.941 155.637 37.9105 155.559 37.8888C155.48 37.867 155.4 37.8474 155.317 37.83C155.173 37.7995 155.036 37.7647 154.906 37.7255C154.775 37.6864 154.66 37.6363 154.56 37.5754C154.464 37.5101 154.386 37.4274 154.325 37.3273C154.268 37.2271 154.24 37.0987 154.24 36.942C154.24 36.794 154.272 36.6635 154.338 36.5503C154.403 36.4371 154.49 36.3435 154.599 36.2695C154.708 36.1955 154.83 36.139 154.964 36.0998C155.099 36.0606 155.239 36.041 155.382 36.041C155.6 36.041 155.8 36.0845 155.983 36.1716C156.17 36.2587 156.316 36.4001 156.42 36.596L155.996 36.8767C155.931 36.7679 155.844 36.6809 155.735 36.6156C155.63 36.5459 155.502 36.5111 155.35 36.5111C155.28 36.5111 155.208 36.5198 155.134 36.5372C155.065 36.5546 155.001 36.5808 154.945 36.6156C154.888 36.6504 154.84 36.6961 154.801 36.7527C154.766 36.8049 154.749 36.8659 154.749 36.9355C154.749 37.0008 154.769 37.0574 154.808 37.1053C154.851 37.1488 154.908 37.188 154.978 37.2228C155.052 37.2576 155.134 37.2881 155.226 37.3142C155.321 37.3403 155.419 37.3621 155.519 37.3795C155.654 37.4056 155.783 37.4404 155.905 37.484C156.027 37.5231 156.133 37.5775 156.225 37.6472C156.316 37.7168 156.388 37.8039 156.44 37.9083C156.492 38.0128 156.518 38.1412 156.518 38.2936C156.518 38.4677 156.484 38.6157 156.414 38.7375C156.344 38.8594 156.251 38.9595 156.133 39.0379C156.02 39.1119 155.889 39.1663 155.741 39.2011C155.598 39.2359 155.45 39.2534 155.297 39.2534C155.036 39.2534 154.81 39.2142 154.618 39.1358C154.431 39.0531 154.262 38.903 154.109 38.6853L154.514 38.3719Z" fill="#D7D7D7"/>
<path d="M152.926 36.1192H153.435V39.1749H152.926V36.1192ZM152.808 34.9244C152.808 34.8243 152.843 34.7372 152.913 34.6632C152.987 34.5892 153.076 34.5522 153.181 34.5522C153.285 34.5522 153.372 34.5892 153.442 34.6632C153.516 34.7372 153.553 34.8243 153.553 34.9244C153.553 35.0332 153.518 35.1225 153.448 35.1921C153.379 35.2617 153.289 35.2966 153.181 35.2966C153.072 35.2966 152.982 35.2617 152.913 35.1921C152.843 35.1225 152.808 35.0332 152.808 34.9244Z" fill="#D7D7D7"/>
<path d="M149.344 34.5518H152.21V35.061H149.892V36.5888H152.047V37.0981H149.892V39.1744H149.344V34.5518Z" fill="#D7D7D7"/>
<path d="M144.01 36.5106C144.167 36.3496 144.352 36.232 144.565 36.1581C144.783 36.0797 145.002 36.0405 145.224 36.0405C145.677 36.0405 146.004 36.1472 146.204 36.3605C146.404 36.5737 146.504 36.898 146.504 37.3333V38.6457C146.504 38.7327 146.509 38.8241 146.517 38.9199C146.526 39.0113 146.537 39.0962 146.55 39.1745H146.06C146.043 39.1049 146.032 39.0287 146.028 38.946C146.028 38.8589 146.028 38.7828 146.028 38.7175H146.014C145.914 38.8742 145.779 39.0026 145.61 39.1027C145.444 39.2028 145.244 39.2529 145.009 39.2529C144.852 39.2529 144.704 39.2333 144.565 39.1941C144.43 39.1549 144.31 39.0983 144.206 39.0243C144.106 38.946 144.025 38.8502 143.964 38.7371C143.903 38.6239 143.873 38.4933 143.873 38.3453C143.873 38.0929 143.938 37.8948 144.069 37.7512C144.199 37.6075 144.36 37.5009 144.552 37.4312C144.748 37.3616 144.957 37.3181 145.179 37.3007C145.405 37.2832 145.612 37.2745 145.799 37.2745H145.995V37.1831C145.995 36.9611 145.927 36.7936 145.792 36.6804C145.662 36.5672 145.477 36.5106 145.238 36.5106C145.072 36.5106 144.909 36.5389 144.748 36.5955C144.591 36.6477 144.452 36.7304 144.33 36.8436L144.01 36.5106ZM145.486 37.7055C145.159 37.7055 144.9 37.7512 144.709 37.8426C144.517 37.934 144.421 38.0841 144.421 38.2931C144.421 38.4846 144.484 38.6217 144.611 38.7044C144.741 38.7828 144.902 38.8219 145.094 38.8219C145.242 38.8219 145.37 38.798 145.479 38.7501C145.592 38.6979 145.686 38.6304 145.76 38.5477C145.834 38.465 145.89 38.3693 145.93 38.2604C145.969 38.1473 145.991 38.0276 145.995 37.9013V37.7055H145.486Z" fill="#D7D7D7"/>
<path d="M143.086 38.45C143.086 38.5893 143.09 38.7199 143.099 38.8418C143.107 38.9637 143.112 39.0747 143.112 39.1748H142.629C142.629 39.0921 142.626 39.0094 142.622 38.9267C142.618 38.844 142.615 38.7591 142.615 38.672H142.602C142.568 38.746 142.518 38.8178 142.452 38.8875C142.391 38.9571 142.317 39.0203 142.23 39.0768C142.143 39.1291 142.045 39.1704 141.936 39.2009C141.828 39.2357 141.71 39.2531 141.584 39.2531C141.384 39.2531 141.21 39.2227 141.062 39.1617C140.918 39.1008 140.798 39.0159 140.702 38.9071C140.607 38.7983 140.535 38.6677 140.487 38.5153C140.443 38.3586 140.422 38.1889 140.422 38.0061V36.1191H140.931V37.9538C140.931 38.2106 140.988 38.413 141.101 38.561C141.214 38.709 141.39 38.783 141.63 38.783C141.795 38.783 141.936 38.7547 142.054 38.6981C142.176 38.6416 142.274 38.561 142.348 38.4566C142.426 38.3521 142.483 38.2281 142.518 38.0844C142.557 37.9408 142.576 37.7819 142.576 37.6078V36.1191H143.086V38.45Z" fill="#D7D7D7"/>
<path d="M140.464 35.061H138.936V39.1744H138.388V35.061H136.86V34.5518H140.464V35.061Z" fill="#D7D7D7"/>
<path d="M132.029 36.5106C132.186 36.3496 132.371 36.232 132.584 36.1581C132.802 36.0797 133.022 36.0405 133.244 36.0405C133.696 36.0405 134.023 36.1472 134.223 36.3605C134.423 36.5737 134.523 36.898 134.523 37.3333V38.6457C134.523 38.7327 134.528 38.8241 134.537 38.9199C134.545 39.0113 134.556 39.0962 134.569 39.1745H134.079C134.062 39.1049 134.051 39.0287 134.047 38.946C134.047 38.8589 134.047 38.7828 134.047 38.7175H134.034C133.934 38.8742 133.799 39.0026 133.629 39.1027C133.464 39.2028 133.263 39.2529 133.028 39.2529C132.872 39.2529 132.724 39.2333 132.584 39.1941C132.449 39.1549 132.33 39.0983 132.225 39.0243C132.125 38.946 132.045 38.8502 131.984 38.7371C131.923 38.6239 131.892 38.4933 131.892 38.3453C131.892 38.0929 131.958 37.8948 132.088 37.7512C132.219 37.6075 132.38 37.5009 132.571 37.4312C132.767 37.3616 132.976 37.3181 133.198 37.3007C133.424 37.2832 133.631 37.2745 133.818 37.2745H134.014V37.1831C134.014 36.9611 133.947 36.7936 133.812 36.6804C133.681 36.5672 133.496 36.5106 133.257 36.5106C133.091 36.5106 132.928 36.5389 132.767 36.5955C132.61 36.6477 132.471 36.7304 132.349 36.8436L132.029 36.5106ZM133.505 37.7055C133.178 37.7055 132.919 37.7512 132.728 37.8426C132.536 37.934 132.441 38.0841 132.441 38.2931C132.441 38.4846 132.504 38.6217 132.63 38.7044C132.761 38.7828 132.922 38.8219 133.113 38.8219C133.261 38.8219 133.39 38.798 133.498 38.7501C133.612 38.6979 133.705 38.6304 133.779 38.5477C133.853 38.465 133.91 38.3693 133.949 38.2604C133.988 38.1473 134.01 38.0276 134.014 37.9013V37.7055H133.505Z" fill="#D7D7D7"/>
<path d="M130.546 34.2388H131.055V39.1748H130.546V34.2388Z" fill="#D7D7D7"/>
<path d="M126.387 36.8436C126.387 36.7043 126.383 36.5737 126.374 36.4519C126.366 36.33 126.361 36.219 126.361 36.1189H126.844C126.844 36.2016 126.847 36.2843 126.851 36.367C126.855 36.4497 126.857 36.5346 126.857 36.6216H126.87C126.905 36.5476 126.953 36.4758 127.014 36.4062C127.079 36.3365 127.156 36.2756 127.243 36.2233C127.33 36.1668 127.428 36.1232 127.536 36.0928C127.645 36.0579 127.763 36.0405 127.889 36.0405C127.924 36.0405 127.959 36.0427 127.993 36.0471C128.028 36.0514 128.063 36.0601 128.098 36.0732L128.065 36.589C127.978 36.5629 127.887 36.5498 127.791 36.5498C127.478 36.5498 127.249 36.6521 127.106 36.8567C126.966 37.0569 126.897 37.3333 126.897 37.6859V39.1745H126.387V36.8436Z" fill="#D7D7D7"/>
<path d="M125.488 38.62C125.305 38.8551 125.105 39.0205 124.888 39.1162C124.67 39.2076 124.417 39.2534 124.13 39.2534C123.891 39.2534 123.675 39.212 123.484 39.1293C123.292 39.0422 123.129 38.9269 122.994 38.7833C122.864 38.6396 122.761 38.4699 122.687 38.274C122.618 38.0781 122.583 37.8692 122.583 37.6472C122.583 37.4121 122.622 37.1967 122.7 37.0008C122.779 36.8006 122.887 36.6308 123.027 36.4915C123.166 36.3479 123.331 36.2369 123.523 36.1585C123.715 36.0802 123.923 36.041 124.15 36.041C124.363 36.041 124.559 36.078 124.737 36.152C124.916 36.2217 125.068 36.3261 125.194 36.4654C125.325 36.6003 125.425 36.7679 125.495 36.9682C125.564 37.164 125.599 37.3882 125.599 37.6407V37.8039H123.131C123.14 37.9345 123.17 38.0607 123.223 38.1826C123.279 38.3001 123.351 38.4046 123.438 38.496C123.525 38.583 123.627 38.6527 123.745 38.7049C123.863 38.7571 123.991 38.7833 124.13 38.7833C124.352 38.7833 124.539 38.7441 124.692 38.6657C124.844 38.5874 124.981 38.472 125.103 38.3197L125.488 38.62ZM125.051 37.373C125.042 37.1118 124.957 36.9029 124.796 36.7462C124.635 36.5895 124.413 36.5111 124.13 36.5111C123.847 36.5111 123.619 36.5895 123.445 36.7462C123.271 36.9029 123.166 37.1118 123.131 37.373H125.051Z" fill="#D7D7D7"/>
<path d="M118.742 36.1189H119.251V36.5629H119.264C119.404 36.3975 119.565 36.269 119.748 36.1776C119.935 36.0862 120.139 36.0405 120.361 36.0405C120.601 36.0405 120.818 36.0819 121.014 36.1646C121.214 36.2429 121.384 36.3539 121.523 36.4976C121.663 36.6412 121.772 36.811 121.85 37.0068C121.928 37.2027 121.967 37.416 121.967 37.6467C121.967 37.8774 121.928 38.0907 121.85 38.2866C121.772 38.4824 121.663 38.6522 121.523 38.7958C121.389 38.9395 121.227 39.0526 121.04 39.1353C120.853 39.2137 120.653 39.2529 120.44 39.2529C120.165 39.2529 119.924 39.1941 119.715 39.0766C119.51 38.9547 119.36 38.8067 119.264 38.6326H119.251V40.6632H118.742V36.1189ZM119.251 37.6467C119.251 37.8077 119.275 37.9579 119.323 38.0972C119.375 38.2321 119.449 38.3518 119.545 38.4563C119.641 38.5564 119.754 38.6369 119.885 38.6979C120.02 38.7545 120.17 38.7828 120.335 38.7828C120.501 38.7828 120.649 38.7545 120.779 38.6979C120.914 38.6369 121.029 38.5564 121.125 38.4563C121.221 38.3518 121.293 38.2321 121.341 38.0972C121.393 37.9579 121.419 37.8077 121.419 37.6467C121.419 37.4856 121.393 37.3376 121.341 37.2027C121.293 37.0634 121.221 36.9437 121.125 36.8436C121.029 36.7391 120.914 36.6586 120.779 36.602C120.649 36.5411 120.501 36.5106 120.335 36.5106C120.17 36.5106 120.02 36.5411 119.885 36.602C119.754 36.6586 119.641 36.7391 119.545 36.8436C119.449 36.9437 119.375 37.0634 119.323 37.2027C119.275 37.3376 119.251 37.4856 119.251 37.6467Z" fill="#D7D7D7"/>
<path d="M113.527 36.5111C113.683 36.3501 113.868 36.2325 114.082 36.1585C114.299 36.0802 114.519 36.041 114.741 36.041C115.194 36.041 115.52 36.1477 115.72 36.3609C115.921 36.5742 116.021 36.8985 116.021 37.3338V38.6461C116.021 38.7332 116.025 38.8246 116.034 38.9204C116.042 39.0118 116.053 39.0967 116.066 39.175H115.577C115.559 39.1054 115.548 39.0292 115.544 38.9465C115.544 38.8594 115.544 38.7833 115.544 38.718H115.531C115.431 38.8747 115.296 39.0031 115.126 39.1032C114.961 39.2033 114.761 39.2534 114.526 39.2534C114.369 39.2534 114.221 39.2338 114.082 39.1946C113.947 39.1554 113.827 39.0988 113.722 39.0248C113.622 38.9465 113.542 38.8507 113.481 38.7375C113.42 38.6244 113.389 38.4938 113.389 38.3458C113.389 38.0933 113.455 37.8953 113.585 37.7516C113.716 37.608 113.877 37.5014 114.068 37.4317C114.264 37.3621 114.473 37.3185 114.695 37.3011C114.922 37.2837 115.128 37.275 115.316 37.275H115.511V37.1836C115.511 36.9616 115.444 36.794 115.309 36.6809C115.178 36.5677 114.993 36.5111 114.754 36.5111C114.589 36.5111 114.425 36.5394 114.264 36.596C114.108 36.6482 113.968 36.7309 113.846 36.8441L113.527 36.5111ZM115.002 37.7059C114.676 37.7059 114.417 37.7516 114.225 37.8431C114.034 37.9345 113.938 38.0846 113.938 38.2936C113.938 38.4851 114.001 38.6222 114.127 38.7049C114.258 38.7833 114.419 38.8224 114.61 38.8224C114.758 38.8224 114.887 38.7985 114.996 38.7506C115.109 38.6984 115.202 38.6309 115.276 38.5482C115.35 38.4655 115.407 38.3697 115.446 38.2609C115.485 38.1478 115.507 38.028 115.511 37.9018V37.7059H115.002Z" fill="#D7D7D7"/>
<path d="M111.806 39.1748H111.245L109.998 36.1191H110.592L111.545 38.5153H111.558L112.466 36.1191H113.014L111.806 39.1748Z" fill="#D7D7D7"/>
<path d="M108.893 36.1192H109.402V39.1749H108.893V36.1192ZM108.775 34.9244C108.775 34.8243 108.81 34.7372 108.88 34.6632C108.954 34.5892 109.043 34.5522 109.147 34.5522C109.252 34.5522 109.339 34.5892 109.409 34.6632C109.483 34.7372 109.52 34.8243 109.52 34.9244C109.52 35.0332 109.485 35.1225 109.415 35.1921C109.346 35.2617 109.256 35.2966 109.147 35.2966C109.039 35.2966 108.949 35.2617 108.88 35.1921C108.81 35.1225 108.775 35.0332 108.775 34.9244Z" fill="#D7D7D7"/>
<path d="M108.217 36.5503H107.316V38.0781C107.316 38.1782 107.318 38.2718 107.322 38.3588C107.326 38.4415 107.344 38.5155 107.374 38.5808C107.405 38.6418 107.451 38.6918 107.511 38.731C107.572 38.7658 107.659 38.7832 107.773 38.7832C107.847 38.7832 107.923 38.7745 108.001 38.7571C108.079 38.7397 108.153 38.7136 108.223 38.6788L108.243 39.1423C108.156 39.1815 108.058 39.2098 107.949 39.2272C107.844 39.2446 107.744 39.2533 107.649 39.2533C107.466 39.2533 107.32 39.2294 107.211 39.1815C107.102 39.1336 107.017 39.0662 106.956 38.9791C106.896 38.8921 106.854 38.7854 106.832 38.6592C106.815 38.5286 106.806 38.385 106.806 38.2283V36.5503H106.14V36.1194H106.806V35.251H107.316V36.1194H108.217V36.5503Z" fill="#D7D7D7"/>
<path d="M103.12 36.5106C103.277 36.3496 103.462 36.232 103.675 36.1581C103.893 36.0797 104.113 36.0405 104.335 36.0405C104.788 36.0405 105.114 36.1472 105.314 36.3605C105.514 36.5737 105.615 36.898 105.615 37.3333V38.6457C105.615 38.7327 105.619 38.8241 105.628 38.9199C105.636 39.0113 105.647 39.0962 105.66 39.1745H105.171C105.153 39.1049 105.142 39.0287 105.138 38.946C105.138 38.8589 105.138 38.7828 105.138 38.7175H105.125C105.025 38.8742 104.89 39.0026 104.72 39.1027C104.555 39.2028 104.354 39.2529 104.119 39.2529C103.963 39.2529 103.815 39.2333 103.675 39.1941C103.54 39.1549 103.421 39.0983 103.316 39.0243C103.216 38.946 103.136 38.8502 103.075 38.7371C103.014 38.6239 102.983 38.4933 102.983 38.3453C102.983 38.0929 103.049 37.8948 103.179 37.7512C103.31 37.6075 103.471 37.5009 103.662 37.4312C103.858 37.3616 104.067 37.3181 104.289 37.3007C104.515 37.2832 104.722 37.2745 104.909 37.2745H105.105V37.1831C105.105 36.9611 105.038 36.7936 104.903 36.6804C104.772 36.5672 104.587 36.5106 104.348 36.5106C104.182 36.5106 104.019 36.5389 103.858 36.5955C103.702 36.6477 103.562 36.7304 103.44 36.8436L103.12 36.5106ZM104.596 37.7055C104.27 37.7055 104.011 37.7512 103.819 37.8426C103.628 37.934 103.532 38.0841 103.532 38.2931C103.532 38.4846 103.595 38.6217 103.721 38.7044C103.852 38.7828 104.013 38.8219 104.204 38.8219C104.352 38.8219 104.481 38.798 104.589 38.7501C104.703 38.6979 104.796 38.6304 104.87 38.5477C104.944 38.465 105.001 38.3693 105.04 38.2604C105.079 38.1473 105.101 38.0276 105.105 37.9013V37.7055H104.596Z" fill="#D7D7D7"/>
<path d="M101.4 39.1748H100.839L99.5916 36.1191H100.186L101.139 38.5153H101.152L102.06 36.1191H102.608L101.4 39.1748Z" fill="#D7D7D7"/>
<path d="M95.9568 37.6472C95.9568 37.4078 95.9982 37.1901 96.0809 36.9943C96.1636 36.7984 96.2767 36.6308 96.4204 36.4915C96.564 36.3479 96.736 36.2369 96.9362 36.1585C97.1364 36.0802 97.3541 36.041 97.5891 36.041C97.8242 36.041 98.0418 36.0802 98.242 36.1585C98.4422 36.2369 98.6142 36.3479 98.7578 36.4915C98.9015 36.6308 99.0146 36.7984 99.0973 36.9943C99.18 37.1901 99.2214 37.4078 99.2214 37.6472C99.2214 37.8866 99.18 38.1042 99.0973 38.3001C99.0146 38.496 98.9015 38.6657 98.7578 38.8094C98.6142 38.9487 98.4422 39.0575 98.242 39.1358C98.0418 39.2142 97.8242 39.2534 97.5891 39.2534C97.3541 39.2534 97.1364 39.2142 96.9362 39.1358C96.736 39.0575 96.564 38.9487 96.4204 38.8094C96.2767 38.6657 96.1636 38.496 96.0809 38.3001C95.9982 38.1042 95.9568 37.8866 95.9568 37.6472ZM96.5053 37.6472C96.5053 37.8082 96.5292 37.9584 96.5771 38.0977C96.6293 38.2326 96.7033 38.3523 96.7991 38.4568C96.8948 38.5569 97.008 38.6374 97.1386 38.6984C97.2735 38.755 97.4237 38.7833 97.5891 38.7833C97.7545 38.7833 97.9025 38.755 98.0331 38.6984C98.168 38.6374 98.2834 38.5569 98.3791 38.4568C98.4749 38.3523 98.5467 38.2326 98.5946 38.0977C98.6468 37.9584 98.6729 37.8082 98.6729 37.6472C98.6729 37.4861 98.6468 37.3381 98.5946 37.2032C98.5467 37.0639 98.4749 36.9442 98.3791 36.8441C98.2834 36.7396 98.168 36.6591 98.0331 36.6025C97.9025 36.5416 97.7545 36.5111 97.5891 36.5111C97.4237 36.5111 97.2735 36.5416 97.1386 36.6025C97.008 36.6591 96.8948 36.7396 96.7991 36.8441C96.7033 36.9442 96.6293 37.0639 96.5771 37.2032C96.5292 37.3381 96.5053 37.4861 96.5053 37.6472Z" fill="#D7D7D7"/>
<path d="M92.5046 36.8436C92.5046 36.7043 92.5003 36.5737 92.4916 36.4519C92.4829 36.33 92.4785 36.219 92.4785 36.1189H92.9617C92.9617 36.2016 92.9638 36.2843 92.9682 36.367C92.9726 36.4497 92.9747 36.5346 92.9747 36.6216H92.9878C93.0226 36.5476 93.0705 36.4758 93.1314 36.4062C93.1967 36.3365 93.2729 36.2756 93.3599 36.2233C93.447 36.1668 93.5449 36.1232 93.6538 36.0928C93.7626 36.0579 93.8801 36.0405 94.0063 36.0405C94.2066 36.0405 94.3785 36.071 94.5221 36.1319C94.6701 36.1929 94.792 36.2778 94.8878 36.3866C94.9835 36.4954 95.0532 36.6281 95.0967 36.7848C95.1446 36.9372 95.1685 37.1048 95.1685 37.2876V39.1745H94.6592V37.3398C94.6592 37.083 94.6027 36.8806 94.4895 36.7326C94.3763 36.5846 94.2 36.5106 93.9606 36.5106C93.7952 36.5106 93.6516 36.5389 93.5297 36.5955C93.4122 36.6521 93.3142 36.7326 93.2359 36.8371C93.1619 36.9415 93.1053 37.0656 93.0661 37.2092C93.0313 37.3529 93.0139 37.5118 93.0139 37.6859V39.1745H92.5046V36.8436Z" fill="#D7D7D7"/>
<path d="M88.8767 36.8436C88.8767 36.7043 88.8723 36.5737 88.8636 36.4519C88.8549 36.33 88.8506 36.219 88.8506 36.1189H89.3337C89.3337 36.2016 89.3359 36.2843 89.3402 36.367C89.3446 36.4497 89.3468 36.5346 89.3468 36.6216H89.3598C89.3946 36.5476 89.4425 36.4758 89.5035 36.4062C89.5688 36.3365 89.6449 36.2756 89.732 36.2233C89.819 36.1668 89.917 36.1232 90.0258 36.0928C90.1346 36.0579 90.2521 36.0405 90.3784 36.0405C90.5786 36.0405 90.7505 36.071 90.8942 36.1319C91.0422 36.1929 91.164 36.2778 91.2598 36.3866C91.3556 36.4954 91.4252 36.6281 91.4687 36.7848C91.5166 36.9372 91.5406 37.1048 91.5406 37.2876V39.1745H91.0313V37.3398C91.0313 37.083 90.9747 36.8806 90.8615 36.7326C90.7484 36.5846 90.5721 36.5106 90.3327 36.5106C90.1673 36.5106 90.0236 36.5389 89.9017 36.5955C89.7842 36.6521 89.6863 36.7326 89.6079 36.8371C89.5339 36.9415 89.4774 37.0656 89.4382 37.2092C89.4034 37.3529 89.3859 37.5118 89.3859 37.6859V39.1745H88.8767V36.8436Z" fill="#D7D7D7"/>
<path d="M87.2724 34.5522H87.8209V39.1749H87.2724V34.5522Z" fill="#D7D7D7"/>
<path d="M84.4649 38.6195C84.2821 38.8546 84.0819 39.02 83.8643 39.1158C83.6466 39.2072 83.3942 39.2529 83.1069 39.2529C82.8675 39.2529 82.652 39.2115 82.4605 39.1288C82.269 39.0418 82.1057 38.9264 81.9708 38.7828C81.8402 38.6391 81.7379 38.4694 81.6639 38.2735C81.5943 38.0776 81.5595 37.8687 81.5595 37.6467C81.5595 37.4116 81.5987 37.1962 81.677 37.0003C81.7554 36.8001 81.8642 36.6303 82.0035 36.491C82.1427 36.3474 82.3082 36.2364 82.4997 36.1581C82.6912 36.0797 82.9001 36.0405 83.1265 36.0405C83.3398 36.0405 83.5356 36.0775 83.7141 36.1515C83.8926 36.2212 84.0449 36.3256 84.1711 36.4649C84.3017 36.5999 84.4018 36.7674 84.4715 36.9677C84.5411 37.1635 84.5759 37.3877 84.5759 37.6402V37.8034H82.1079C82.1166 37.934 82.1471 38.0602 82.1993 38.1821C82.2559 38.2996 82.3277 38.4041 82.4148 38.4955C82.5019 38.5825 82.6041 38.6522 82.7217 38.7044C82.8392 38.7566 82.9676 38.7828 83.1069 38.7828C83.3289 38.7828 83.516 38.7436 83.6684 38.6652C83.8207 38.5869 83.9578 38.4715 84.0797 38.3192L84.4649 38.6195ZM84.0275 37.3725C84.0188 37.1113 83.9339 36.9024 83.7729 36.7457C83.6118 36.589 83.3898 36.5106 83.1069 36.5106C82.824 36.5106 82.5954 36.589 82.4213 36.7457C82.2472 36.9024 82.1427 37.1113 82.1079 37.3725H84.0275Z" fill="#D7D7D7"/>
<path d="M78.1079 36.8441C78.1079 36.7048 78.1036 36.5742 78.0949 36.4524C78.0862 36.3305 78.0818 36.2195 78.0818 36.1194H78.565C78.565 36.2021 78.5671 36.2848 78.5715 36.3675C78.5759 36.4502 78.578 36.5351 78.578 36.6221H78.5911C78.6259 36.5481 78.6738 36.4763 78.7347 36.4066C78.8 36.337 78.8762 36.2761 78.9632 36.2238C79.0503 36.1672 79.1482 36.1237 79.2571 36.0932C79.3659 36.0584 79.4834 36.041 79.6096 36.041C79.8099 36.041 79.9818 36.0715 80.1254 36.1324C80.2734 36.1934 80.3953 36.2782 80.4911 36.3871C80.5868 36.4959 80.6565 36.6286 80.7 36.7853C80.7479 36.9377 80.7718 37.1053 80.7718 37.2881V39.175H80.2625V37.3403C80.2625 37.0835 80.206 36.8811 80.0928 36.7331C79.9796 36.5851 79.8033 36.5111 79.5639 36.5111C79.3985 36.5111 79.2549 36.5394 79.133 36.596C79.0155 36.6526 78.9175 36.7331 78.8392 36.8376C78.7652 36.942 78.7086 37.0661 78.6694 37.2097C78.6346 37.3534 78.6172 37.5122 78.6172 37.6864V39.175H78.1079V36.8441Z" fill="#D7D7D7"/>
<path d="M74.0545 37.6467C74.0545 37.4073 74.0958 37.1897 74.1785 36.9938C74.2612 36.7979 74.3744 36.6303 74.518 36.491C74.6617 36.3474 74.8336 36.2364 75.0338 36.1581C75.2341 36.0797 75.4517 36.0405 75.6868 36.0405C75.9218 36.0405 76.1394 36.0797 76.3397 36.1581C76.5399 36.2364 76.7118 36.3474 76.8555 36.491C76.9991 36.6303 77.1123 36.7979 77.195 36.9938C77.2777 37.1897 77.319 37.4073 77.319 37.6467C77.319 37.8861 77.2777 38.1037 77.195 38.2996C77.1123 38.4955 76.9991 38.6652 76.8555 38.8089C76.7118 38.9482 76.5399 39.057 76.3397 39.1353C76.1394 39.2137 75.9218 39.2529 75.6868 39.2529C75.4517 39.2529 75.2341 39.2137 75.0338 39.1353C74.8336 39.057 74.6617 38.9482 74.518 38.8089C74.3744 38.6652 74.2612 38.4955 74.1785 38.2996C74.0958 38.1037 74.0545 37.8861 74.0545 37.6467ZM74.6029 37.6467C74.6029 37.8077 74.6269 37.9579 74.6747 38.0972C74.727 38.2321 74.801 38.3518 74.8967 38.4563C74.9925 38.5564 75.1057 38.6369 75.2362 38.6979C75.3712 38.7545 75.5214 38.7828 75.6868 38.7828C75.8522 38.7828 76.0002 38.7545 76.1307 38.6979C76.2657 38.6369 76.381 38.5564 76.4768 38.4563C76.5725 38.3518 76.6444 38.2321 76.6922 38.0972C76.7445 37.9579 76.7706 37.8077 76.7706 37.6467C76.7706 37.4856 76.7445 37.3376 76.6922 37.2027C76.6444 37.0634 76.5725 36.9437 76.4768 36.8436C76.381 36.7391 76.2657 36.6586 76.1307 36.602C76.0002 36.5411 75.8522 36.5106 75.6868 36.5106C75.5214 36.5106 75.3712 36.5411 75.2362 36.602C75.1057 36.6586 74.9925 36.7391 74.8967 36.8436C74.801 36.9437 74.727 37.0634 74.6747 37.2027C74.6269 37.3376 74.6029 37.4856 74.6029 37.6467Z" fill="#D7D7D7"/>
<path d="M72.708 36.1192H73.2173V39.1749H72.708V36.1192ZM72.5905 34.9244C72.5905 34.8243 72.6253 34.7372 72.695 34.6632C72.769 34.5892 72.8582 34.5522 72.9627 34.5522C73.0671 34.5522 73.1542 34.5892 73.2238 34.6632C73.2978 34.7372 73.3348 34.8243 73.3348 34.9244C73.3348 35.0332 73.3 35.1225 73.2304 35.1921C73.1607 35.2617 73.0715 35.2966 72.9627 35.2966C72.8539 35.2966 72.7646 35.2617 72.695 35.1921C72.6253 35.1225 72.5905 35.0332 72.5905 34.9244Z" fill="#D7D7D7"/>
<path d="M69.4742 38.7765L71.2697 36.5501H69.5525V36.1191H71.9357V36.5109L70.1402 38.7439H71.9814V39.1748H69.4742V38.7765Z" fill="#D7D7D7"/>
<path d="M68.7975 38.45C68.7975 38.5893 68.8018 38.7199 68.8105 38.8418C68.8192 38.9637 68.8236 39.0747 68.8236 39.1748H68.3404C68.3404 39.0921 68.3382 39.0094 68.3339 38.9267C68.3295 38.844 68.3274 38.7591 68.3274 38.672H68.3143C68.2795 38.746 68.2294 38.8178 68.1641 38.8875C68.1032 38.9571 68.0292 39.0203 67.9421 39.0768C67.8551 39.1291 67.7572 39.1704 67.6483 39.2009C67.5395 39.2357 67.422 39.2531 67.2958 39.2531C67.0955 39.2531 66.9214 39.2227 66.7734 39.1617C66.6298 39.1008 66.5101 39.0159 66.4143 38.9071C66.3186 38.7983 66.2467 38.6677 66.1989 38.5153C66.1553 38.3586 66.1336 38.1889 66.1336 38.0061V36.1191H66.6428V37.9538C66.6428 38.2106 66.6994 38.413 66.8126 38.561C66.9258 38.709 67.1021 38.783 67.3415 38.783C67.5069 38.783 67.6483 38.7547 67.7659 38.6981C67.8877 38.6416 67.9857 38.561 68.0597 38.4566C68.138 38.3521 68.1946 38.2281 68.2294 38.0844C68.2686 37.9408 68.2882 37.7819 68.2882 37.6078V36.1191H68.7975V38.45Z" fill="#D7D7D7"/>
<path d="M64.6101 34.2388H65.1194V39.1748H64.6101V34.2388Z" fill="#D7D7D7"/>
<path d="M60.5116 37.6467C60.5116 37.4073 60.5529 37.1897 60.6357 36.9938C60.7184 36.7979 60.8315 36.6303 60.9752 36.491C61.1188 36.3474 61.2907 36.2364 61.491 36.1581C61.6912 36.0797 61.9088 36.0405 62.1439 36.0405C62.3789 36.0405 62.5966 36.0797 62.7968 36.1581C62.997 36.2364 63.169 36.3474 63.3126 36.491C63.4562 36.6303 63.5694 36.7979 63.6521 36.9938C63.7348 37.1897 63.7762 37.4073 63.7762 37.6467C63.7762 37.8861 63.7348 38.1037 63.6521 38.2996C63.5694 38.4955 63.4562 38.6652 63.3126 38.8089C63.169 38.9482 62.997 39.057 62.7968 39.1353C62.5966 39.2137 62.3789 39.2529 62.1439 39.2529C61.9088 39.2529 61.6912 39.2137 61.491 39.1353C61.2907 39.057 61.1188 38.9482 60.9752 38.8089C60.8315 38.6652 60.7184 38.4955 60.6357 38.2996C60.5529 38.1037 60.5116 37.8861 60.5116 37.6467ZM61.06 37.6467C61.06 37.8077 61.084 37.9579 61.1319 38.0972C61.1841 38.2321 61.2581 38.3518 61.3539 38.4563C61.4496 38.5564 61.5628 38.6369 61.6934 38.6979C61.8283 38.7545 61.9785 38.7828 62.1439 38.7828C62.3093 38.7828 62.4573 38.7545 62.5879 38.6979C62.7228 38.6369 62.8381 38.5564 62.9339 38.4563C63.0297 38.3518 63.1015 38.2321 63.1494 38.0972C63.2016 37.9579 63.2277 37.8077 63.2277 37.6467C63.2277 37.4856 63.2016 37.3376 63.1494 37.2027C63.1015 37.0634 63.0297 36.9437 62.9339 36.8436C62.8381 36.7391 62.7228 36.6586 62.5879 36.602C62.4573 36.5411 62.3093 36.5106 62.1439 36.5106C61.9785 36.5106 61.8283 36.5411 61.6934 36.602C61.5628 36.6586 61.4496 36.7391 61.3539 36.8436C61.2581 36.9437 61.1841 37.0634 61.1319 37.2027C61.084 37.3376 61.06 37.4856 61.06 37.6467Z" fill="#D7D7D7"/>
<path d="M59.3452 35.3682C59.2538 35.2202 59.1319 35.1136 58.9796 35.0483C58.8273 34.9787 58.6684 34.9438 58.503 34.9438C58.3811 34.9438 58.2614 34.9591 58.1439 34.9895C58.0263 35.02 57.9197 35.0657 57.8239 35.1267C57.7325 35.1876 57.6585 35.2681 57.6019 35.3682C57.5454 35.4684 57.5171 35.5859 57.5171 35.7208C57.5171 35.8253 57.5323 35.9189 57.5628 36.0016C57.5976 36.0799 57.652 36.1517 57.726 36.217C57.8 36.2823 57.9001 36.3433 58.0263 36.3998C58.1526 36.4564 58.3071 36.513 58.4899 36.5696C58.6684 36.6262 58.8403 36.6871 59.0057 36.7524C59.1755 36.8177 59.3235 36.9004 59.4497 37.0005C59.5803 37.1006 59.6826 37.2269 59.7566 37.3792C59.8349 37.5272 59.8741 37.7144 59.8741 37.9407C59.8741 38.1714 59.8284 38.3716 59.737 38.5414C59.6456 38.7112 59.5237 38.8526 59.3713 38.9658C59.2234 39.0746 59.0514 39.1551 58.8555 39.2074C58.6597 39.264 58.4573 39.2922 58.2483 39.2922C58.1134 39.2922 57.9785 39.2792 57.8435 39.2531C57.7086 39.2313 57.578 39.1965 57.4518 39.1486C57.3299 39.0964 57.2146 39.0311 57.1057 38.9527C56.9969 38.87 56.9033 38.7699 56.825 38.6524L57.2951 38.2672C57.3952 38.4369 57.5345 38.5653 57.7129 38.6524C57.8914 38.7394 58.0808 38.783 58.281 38.783C58.3985 38.783 58.516 38.7656 58.6336 38.7307C58.7554 38.6959 58.8642 38.6459 58.96 38.5806C59.0558 38.5109 59.1341 38.426 59.1951 38.3259C59.256 38.2258 59.2865 38.1105 59.2865 37.9799C59.2865 37.8362 59.2625 37.7209 59.2146 37.6338C59.1668 37.5424 59.0928 37.4641 58.9927 37.3988C58.8925 37.3335 58.7663 37.2747 58.614 37.2225C58.4616 37.1703 58.2832 37.1093 58.0786 37.0397C57.9132 36.9875 57.7608 36.9287 57.6215 36.8634C57.4822 36.7938 57.3604 36.7111 57.2559 36.6153C57.1558 36.5152 57.0753 36.3977 57.0143 36.2627C56.9577 36.1234 56.9294 35.958 56.9294 35.7665C56.9294 35.5445 56.973 35.3508 57.06 35.1854C57.1471 35.02 57.2646 34.8829 57.4126 34.7741C57.5606 34.6609 57.7282 34.576 57.9153 34.5194C58.1025 34.4629 58.2984 34.4346 58.503 34.4346C58.7641 34.4346 59.0014 34.4759 59.2146 34.5586C59.4323 34.637 59.626 34.7763 59.7957 34.9765L59.3452 35.3682Z" fill="#D7D7D7"/>
<path d="M51.8176 36.5111C51.9743 36.3501 52.1593 36.2325 52.3725 36.1585C52.5902 36.0802 52.81 36.041 53.032 36.041C53.4847 36.041 53.8111 36.1477 54.0114 36.3609C54.2116 36.5742 54.3117 36.8985 54.3117 37.3338V38.6461C54.3117 38.7332 54.316 38.8246 54.3248 38.9204C54.3335 39.0118 54.3443 39.0967 54.3574 39.175H53.8677C53.8503 39.1054 53.8394 39.0292 53.8351 38.9465C53.8351 38.8594 53.8351 38.7833 53.8351 38.718H53.822C53.7219 38.8747 53.587 39.0031 53.4172 39.1032C53.2518 39.2033 53.0516 39.2534 52.8165 39.2534C52.6598 39.2534 52.5118 39.2338 52.3725 39.1946C52.2376 39.1554 52.1179 39.0988 52.0134 39.0248C51.9133 38.9465 51.8328 38.8507 51.7719 38.7375C51.7109 38.6244 51.6805 38.4938 51.6805 38.3458C51.6805 38.0933 51.7457 37.8953 51.8763 37.7516C52.0069 37.608 52.168 37.5014 52.3595 37.4317C52.5554 37.3621 52.7643 37.3185 52.9863 37.3011C53.2126 37.2837 53.4194 37.275 53.6065 37.275H53.8024V37.1836C53.8024 36.9616 53.735 36.794 53.6 36.6809C53.4694 36.5677 53.2844 36.5111 53.045 36.5111C52.8796 36.5111 52.7164 36.5394 52.5554 36.596C52.3987 36.6482 52.2594 36.7309 52.1375 36.8441L51.8176 36.5111ZM53.2931 37.7059C52.9667 37.7059 52.7077 37.7516 52.5162 37.8431C52.3247 37.9345 52.2289 38.0846 52.2289 38.2936C52.2289 38.4851 52.292 38.6222 52.4182 38.7049C52.5488 38.7833 52.7099 38.8224 52.9014 38.8224C53.0494 38.8224 53.1778 38.7985 53.2866 38.7506C53.3998 38.6984 53.4934 38.6309 53.5674 38.5482C53.6414 38.4655 53.698 38.3697 53.7371 38.2609C53.7763 38.1478 53.7981 38.028 53.8024 37.9018V37.7059H53.2931Z" fill="#D7D7D7"/>
<path d="M48.6841 34.5522H49.2326V38.6656H51.348V39.1749H48.6841V34.5522Z" fill="#D7D7D7"/>
<path d="M38.8312 19.4156C38.8312 30.1385 30.1385 38.8312 19.4156 38.8312C8.69265 38.8312 0 30.1385 0 19.4156C0 8.69265 8.69265 0 19.4156 0C30.1385 0 38.8312 8.69265 38.8312 19.4156Z" fill="white"/>
<path d="M12.7583 28.1608C12.2113 28.3825 11.646 28.3663 11.0622 28.1121C10.4863 27.8614 10.0892 27.4586 9.87097 26.9038C9.66402 26.3445 9.68934 25.769 9.94691 25.1774L15.8866 11.5337C16.1476 10.9342 16.5516 10.5235 17.0985 10.3018C17.6568 10.0757 18.2238 10.0879 18.7997 10.3386C19.3835 10.5928 19.7789 10.9995 19.9858 11.5588C20.1962 12.1102 20.1709 12.6857 19.9099 13.2852L13.9702 26.9289C13.7092 27.5284 13.3052 27.9391 12.7583 28.1608Z" fill="#373737"/>
<path d="M9.14738 14.3184C8.51627 14.0436 8.07033 13.5914 7.80956 12.9618C7.55222 12.3243 7.56092 11.69 7.83567 11.0589C8.10355 10.4435 8.55848 10.0129 9.20046 9.76684C9.84245 9.52082 10.479 9.53519 11.1101 9.80994C11.7254 10.0778 12.164 10.5362 12.4258 11.185C12.6955 11.8373 12.6998 12.4632 12.4388 13.0628C12.1709 13.6781 11.7064 14.1093 11.0452 14.3563C10.3953 14.5989 9.7627 14.5863 9.14738 14.3184Z" fill="#373737"/>
<path fill-rule="evenodd" clip-rule="evenodd" d="M25.8552 24.1473C27.2068 24.1473 28.3025 23.0516 28.3025 21.7C28.3025 20.3484 27.2068 19.2527 25.8552 19.2527C24.5036 19.2527 23.4078 20.3484 23.4078 21.7C23.4078 23.0516 24.5036 24.1473 25.8552 24.1473ZM25.8552 28.0631C29.3694 28.0631 32.2183 25.2142 32.2183 21.7C32.2183 18.1858 29.3694 15.3369 25.8552 15.3369C22.3409 15.3369 19.4921 18.1858 19.4921 21.7C19.4921 25.2142 22.3409 28.0631 25.8552 28.0631Z" fill="#373737"/>
</svg>
