<svg width="14" height="12" viewBox="0 0 14 12" fill="none" xmlns="http://www.w3.org/2000/svg">
<path d="M0.700195 1.63328C0.700195 1.30659 0.700195 1.14324 0.763775 1.01846C0.819701 0.908696 0.90894 0.819457 1.0187 0.763531C1.14348 0.699951 1.30683 0.699951 1.63353 0.699951H11.4335C11.7602 0.699951 11.9236 0.699951 12.0484 0.763531C12.1581 0.819457 12.2474 0.908696 12.3033 1.01846C12.3669 1.14324 12.3669 1.30659 12.3669 1.63328V2.02376C12.3669 2.18056 12.3669 2.25896 12.3477 2.33186C12.3307 2.39646 12.3028 2.45767 12.2651 2.51281C12.2225 2.57504 12.1633 2.62638 12.0448 2.72907L8.31393 5.9625C8.19544 6.06519 8.13619 6.11653 8.09365 6.17876C8.05595 6.2339 8.028 6.2951 8.01102 6.35971C7.99186 6.43261 7.99186 6.51101 7.99186 6.6678V9.71734C7.99186 9.83141 7.99186 9.88845 7.97346 9.93777C7.95721 9.98134 7.93076 10.0204 7.89634 10.0517C7.85739 10.0871 7.80443 10.1083 7.69851 10.1506L5.71518 10.944C5.50078 11.0297 5.39358 11.0726 5.30752 11.0547C5.23227 11.0391 5.16623 10.9944 5.12376 10.9303C5.0752 10.857 5.0752 10.7416 5.0752 10.5107V6.6678C5.0752 6.51101 5.0752 6.43261 5.05604 6.35971C5.03906 6.2951 5.01111 6.2339 4.97341 6.17876C4.93087 6.11653 4.87162 6.06519 4.75313 5.9625L1.02226 2.72907C0.90377 2.62638 0.844524 2.57504 0.801982 2.51281C0.764283 2.45767 0.736335 2.39646 0.719356 2.33186C0.700195 2.25896 0.700195 2.18056 0.700195 2.02376V1.63328Z" stroke="#3C0D6D" stroke-width="1.4" stroke-linecap="round" stroke-linejoin="round"/>
</svg>
