<svg width="188" height="41" viewBox="0 0 188 41" fill="none" xmlns="http://www.w3.org/2000/svg">
<path d="M124.526 18.3723H119.045V23.2541C119.045 24.147 118.757 24.8814 118.181 25.4571C117.617 26.0328 116.895 26.3206 116.014 26.3206C115.144 26.3206 114.427 26.0328 113.864 25.4571C113.3 24.8696 113.018 24.1353 113.018 23.2541V4.73157C113.018 3.83863 113.305 3.10431 113.881 2.5286C114.457 1.95289 115.191 1.66504 116.084 1.66504H124.596C126.934 1.66504 128.902 2.44636 130.5 4.00899C132.098 5.57163 132.897 7.56899 132.897 10.0011C132.897 12.5036 132.104 14.5245 130.518 16.0636C128.932 17.6028 126.934 18.3723 124.526 18.3723ZM119.045 6.56444V13.4729H123.116C124.197 13.4729 125.096 13.1498 125.812 12.5036C126.541 11.8457 126.905 11.0115 126.905 10.0011C126.905 9.01413 126.541 8.19757 125.812 7.55136C125.096 6.89341 124.209 6.56444 123.151 6.56444H119.045Z" fill="#007BFF"/>
<path d="M108.383 21.7735C108.794 22.1848 109 22.7487 109 23.4654C109 24.2644 108.718 24.9458 108.154 25.5098C107.59 26.0737 106.909 26.3557 106.11 26.3557C105.287 26.3557 104.494 25.9445 103.731 25.122L99.9767 21.0862L96.1523 25.122C95.3769 25.9445 94.5838 26.3557 93.7731 26.3557C92.9742 26.3557 92.2927 26.0737 91.7288 25.5098C91.1648 24.9341 90.8828 24.2526 90.8828 23.4654C90.8828 22.7487 91.0767 22.1848 91.4644 21.7735L96.3285 16.7508L91.7816 11.9924C91.3939 11.5812 91.2 11.0113 91.2 10.2829C91.2 9.48393 91.4761 8.80248 92.0284 8.23852C92.5806 7.67456 93.2561 7.39258 94.0551 7.39258C94.9245 7.39258 95.7293 7.8038 96.4695 8.62624L99.9414 12.4858L103.59 8.62624C104.388 7.8038 105.193 7.39258 106.004 7.39258C106.803 7.39258 107.484 7.68043 108.048 8.25614C108.612 8.8201 108.894 9.49568 108.894 10.2829C108.894 10.9996 108.689 11.5694 108.277 11.9924L103.59 16.7508L108.383 21.7735Z" fill="#007BFF"/>
<path d="M75.8676 26.3206C74.305 26.3206 72.8246 25.9446 71.4265 25.1926C70.0283 24.429 68.8769 23.3128 67.9722 21.8441C67.0793 20.3755 66.6328 18.7247 66.6328 16.8919C66.6328 15.0355 67.0793 13.3789 67.9722 11.922C68.8769 10.4533 70.0283 9.34304 71.4265 8.5911C72.8246 7.8274 74.2933 7.44556 75.8324 7.44556C77.0543 7.44556 78.1764 7.69816 79.1985 8.20338C80.2207 8.70859 80.9727 9.35479 81.4544 10.142L81.5249 9.34892C81.6189 8.79671 81.9243 8.35024 82.4413 8.00952C82.97 7.65704 83.6045 7.4808 84.3447 7.4808C85.1436 7.4808 85.8016 7.76278 86.3185 8.32674C86.8355 8.8907 87.094 9.6074 87.094 10.4768V23.2893C87.094 24.1587 86.8472 24.8813 86.3538 25.457C85.8603 26.0327 85.1906 26.3206 84.3447 26.3206C83.5457 26.3206 82.9054 26.1385 82.4237 25.7742C81.9537 25.41 81.6541 24.9635 81.5249 24.4348L81.4544 23.6418C80.9961 24.4642 80.2442 25.1163 79.1985 25.598C78.1529 26.0797 77.0426 26.3206 75.8676 26.3206ZM73.8762 19.8527C74.6986 20.6751 75.6855 21.0863 76.837 21.0863C77.9884 21.0863 78.9753 20.6751 79.7977 19.8527C80.6202 19.0302 81.0314 18.0433 81.0314 16.8919C81.0314 15.7405 80.6202 14.7594 79.7977 13.9487C78.9753 13.1263 77.9884 12.7151 76.837 12.7151C75.6855 12.7151 74.6986 13.1263 73.8762 13.9487C73.0655 14.7594 72.6601 15.7405 72.6601 16.8919C72.6601 18.0433 73.0655 19.0302 73.8762 19.8527Z" fill="#007BFF"/>
<path d="M65.5389 1.66504C66.2556 1.66504 66.8724 1.92352 67.3894 2.44048C67.9063 2.95745 68.1648 3.58015 68.1648 4.3086C68.1648 5.0253 67.9063 5.63625 67.3894 6.14147C66.8724 6.64668 66.2556 6.89929 65.5389 6.89929H60.5866V23.166C60.5866 24.0354 60.2811 24.7815 59.6702 25.4042C59.0592 26.0152 58.319 26.3206 57.4496 26.3206C56.5802 26.3206 55.84 26.0152 55.229 25.4042C54.6181 24.7815 54.3126 24.0354 54.3126 23.166V6.89929H49.3603C48.6436 6.89929 48.0268 6.64668 47.5098 6.14147C46.9929 5.63625 46.7344 5.0253 46.7344 4.3086C46.7344 3.58015 46.9929 2.95745 47.5098 2.44048C48.0268 1.92352 48.6436 1.66504 49.3603 1.66504H65.5389Z" fill="#007BFF"/>
<path d="M185.374 21.2011C186.115 21.1541 186.714 21.3656 187.172 21.8355C187.63 22.3055 187.859 22.8871 187.859 23.5803C187.859 24.1795 187.654 24.7023 187.242 25.1488C186.831 25.5953 186.314 25.8655 185.692 25.9595C185.022 26.077 184.47 26.1416 184.035 26.1534C181.72 26.1534 179.846 25.466 178.413 24.0914C176.991 22.7167 176.28 20.972 176.28 18.8571V12.5478H175.188C174.542 12.5478 173.984 12.3129 173.514 11.8429C173.044 11.3729 172.809 10.809 172.809 10.151C172.809 9.48131 173.044 8.91735 173.514 8.45913C173.984 8.00091 174.542 7.7718 175.188 7.7718H176.28V6.11517C176.28 5.29273 176.568 4.58778 177.144 4.00033C177.72 3.41287 178.419 3.11914 179.241 3.11914C180.075 3.11914 180.786 3.41287 181.374 4.00033C181.973 4.58778 182.273 5.29273 182.273 6.11517V7.7718H185.621C186.291 7.7718 186.855 8.00091 187.313 8.45913C187.771 8.91735 188 9.48131 188 10.151C188 10.809 187.771 11.3729 187.313 11.8429C186.855 12.3129 186.291 12.5478 185.621 12.5478H182.273V18.3108C182.273 19.2272 182.49 19.9498 182.925 20.4785C183.371 21.0072 183.982 21.2716 184.757 21.2716C184.828 21.2716 185.034 21.2481 185.374 21.2011Z" fill="#007BFF"/>
<path d="M146.235 26.4241C145.488 26.7268 144.716 26.7047 143.919 26.3577C143.133 26.0153 142.591 25.4653 142.293 24.7076C142.01 23.9439 142.045 23.1581 142.396 22.3501L150.507 3.71892C150.864 2.9002 151.415 2.33947 152.162 2.03672C152.925 1.72789 153.699 1.74465 154.485 2.087C155.282 2.43404 155.822 2.98943 156.105 3.75317C156.392 4.50614 156.358 5.29198 156.001 6.1107L147.89 24.7419C147.534 25.5606 146.982 26.1213 146.235 26.4241Z" fill="#007BFF"/>
<path d="M141.306 7.52126C140.444 7.14608 139.835 6.52858 139.479 5.66877C139.128 4.79819 139.14 3.932 139.515 3.07019C139.881 2.22993 140.502 1.64182 141.379 1.30587C142.255 0.969923 143.125 0.989539 143.986 1.36472C144.827 1.73052 145.426 2.35644 145.783 3.24249C146.151 4.13322 146.157 4.98795 145.801 5.80666C145.435 6.64692 144.801 7.23573 143.898 7.57307C143.01 7.90433 142.146 7.88706 141.306 7.52126ZM135.483 26.2835C134.736 26.5863 133.964 26.5641 133.167 26.2171C132.381 25.8747 131.838 25.3247 131.54 24.5671C131.258 23.8033 131.292 23.0175 131.644 22.2096L136.716 10.559C137.073 9.74028 137.624 9.17955 138.371 8.8768C139.129 8.57874 139.901 8.60089 140.687 8.94324C141.484 9.29028 142.027 9.84028 142.314 10.5932C142.601 11.3462 142.567 12.1321 142.21 12.9508L137.138 24.6013C136.782 25.42 136.23 25.9808 135.483 26.2835Z" fill="#007BFF"/>
<path fill-rule="evenodd" clip-rule="evenodd" d="M164.121 20.943C165.967 20.943 167.463 19.4467 167.463 17.601C167.463 15.7553 165.967 14.259 164.121 14.259C162.275 14.259 160.779 15.7553 160.779 17.601C160.779 19.4467 162.275 20.943 164.121 20.943ZM164.121 26.2902C168.92 26.2902 172.81 22.3999 172.81 17.601C172.81 12.8021 168.92 8.91187 164.121 8.91187C159.322 8.91187 155.432 12.8021 155.432 17.601C155.432 22.3999 159.322 26.2902 164.121 26.2902Z" fill="#007BFF"/>
<path d="M169.162 36.511C169.319 36.3499 169.504 36.2324 169.717 36.1584C169.935 36.08 170.155 36.0409 170.377 36.0409C170.83 36.0409 171.156 36.1475 171.356 36.3608C171.557 36.5741 171.657 36.8984 171.657 37.3336V38.646C171.657 38.733 171.661 38.8245 171.67 38.9202C171.678 39.0116 171.689 39.0965 171.702 39.1748H171.213C171.195 39.1052 171.184 39.029 171.18 38.9463C171.18 38.8593 171.18 38.7831 171.18 38.7178H171.167C171.067 38.8745 170.932 39.0029 170.762 39.103C170.597 39.2031 170.397 39.2532 170.161 39.2532C170.005 39.2532 169.857 39.2336 169.717 39.1944C169.583 39.1553 169.463 39.0987 169.358 39.0247C169.258 38.9463 169.178 38.8506 169.117 38.7374C169.056 38.6242 169.025 38.4936 169.025 38.3456C169.025 38.0932 169.091 37.8951 169.221 37.7515C169.352 37.6079 169.513 37.5012 169.704 37.4316C169.9 37.3619 170.109 37.3184 170.331 37.301C170.558 37.2836 170.764 37.2749 170.951 37.2749H171.147V37.1835C171.147 36.9615 171.08 36.7939 170.945 36.6807C170.814 36.5675 170.629 36.511 170.39 36.511C170.225 36.511 170.061 36.5393 169.9 36.5958C169.744 36.6481 169.604 36.7308 169.482 36.8439L169.162 36.511ZM170.638 37.7058C170.312 37.7058 170.053 37.7515 169.861 37.8429C169.67 37.9343 169.574 38.0845 169.574 38.2934C169.574 38.4849 169.637 38.622 169.763 38.7048C169.894 38.7831 170.055 38.8223 170.246 38.8223C170.394 38.8223 170.523 38.7983 170.632 38.7505C170.745 38.6982 170.838 38.6308 170.912 38.5481C170.986 38.4653 171.043 38.3696 171.082 38.2608C171.121 38.1476 171.143 38.0279 171.147 37.9017V37.7058H170.638ZM170.867 35.3879H170.403L169.469 34.4478H170.188L170.867 35.3879Z" fill="#525252"/>
<path d="M168.578 36.5503H167.677V38.0781C167.677 38.1782 167.68 38.2718 167.684 38.3588C167.688 38.4415 167.706 38.5155 167.736 38.5808C167.767 38.6418 167.812 38.6918 167.873 38.731C167.934 38.7658 168.021 38.7832 168.134 38.7832C168.208 38.7832 168.285 38.7745 168.363 38.7571C168.441 38.7397 168.515 38.7136 168.585 38.6788L168.605 39.1423C168.518 39.1815 168.42 39.2098 168.311 39.2272C168.206 39.2446 168.106 39.2533 168.01 39.2533C167.828 39.2533 167.682 39.2294 167.573 39.1815C167.464 39.1336 167.379 39.0662 167.318 38.9791C167.257 38.8921 167.216 38.7854 167.194 38.6592C167.177 38.5286 167.168 38.385 167.168 38.2283V36.5503H166.502V36.1194H167.168V35.251H167.677V36.1194H168.578V36.5503Z" fill="#525252"/>
<path d="M165.383 36.119H165.892V39.1746H165.383V36.119ZM165.266 34.9242C165.266 34.824 165.3 34.737 165.37 34.663C165.444 34.589 165.533 34.552 165.638 34.552C165.742 34.552 165.829 34.589 165.899 34.663C165.973 34.737 166.01 34.824 166.01 34.9242C166.01 35.033 165.975 35.1222 165.905 35.1919C165.836 35.2615 165.747 35.2963 165.638 35.2963C165.529 35.2963 165.44 35.2615 165.37 35.1919C165.3 35.1222 165.266 35.033 165.266 34.9242Z" fill="#525252"/>
<path d="M163.811 34.2388H164.32V39.1748H163.811V34.2388Z" fill="#525252"/>
<path d="M160.338 36.5109C160.495 36.3498 160.68 36.2323 160.893 36.1583C161.111 36.0799 161.331 36.0408 161.553 36.0408C162.005 36.0408 162.332 36.1474 162.532 36.3607C162.732 36.574 162.832 36.8983 162.832 37.3335V38.6459C162.832 38.733 162.837 38.8244 162.845 38.9201C162.854 39.0115 162.865 39.0964 162.878 39.1748H162.388C162.371 39.1051 162.36 39.0289 162.356 38.9462C162.356 38.8592 162.356 38.783 162.356 38.7177H162.343C162.243 38.8744 162.108 39.0028 161.938 39.1029C161.773 39.203 161.572 39.2531 161.337 39.2531C161.181 39.2531 161.033 39.2335 160.893 39.1943C160.758 39.1552 160.639 39.0986 160.534 39.0246C160.434 38.9462 160.354 38.8505 160.293 38.7373C160.232 38.6241 160.201 38.4936 160.201 38.3456C160.201 38.0931 160.266 37.895 160.397 37.7514C160.528 37.6078 160.689 37.5011 160.88 37.4315C161.076 37.3618 161.285 37.3183 161.507 37.3009C161.733 37.2835 161.94 37.2748 162.127 37.2748H162.323V37.1834C162.323 36.9614 162.256 36.7938 162.121 36.6806C161.99 36.5675 161.805 36.5109 161.566 36.5109C161.4 36.5109 161.237 36.5392 161.076 36.5957C160.919 36.648 160.78 36.7307 160.658 36.8439L160.338 36.5109ZM161.814 37.7057C161.487 37.7057 161.228 37.7514 161.037 37.8428C160.845 37.9342 160.75 38.0844 160.75 38.2933C160.75 38.4848 160.813 38.622 160.939 38.7047C161.07 38.783 161.231 38.8222 161.422 38.8222C161.57 38.8222 161.699 38.7982 161.807 38.7504C161.921 38.6981 162.014 38.6307 162.088 38.548C162.162 38.4653 162.219 38.3695 162.258 38.2607C162.297 38.1475 162.319 38.0278 162.323 37.9016V37.7057H161.814Z" fill="#525252"/>
<path d="M159.403 36.883C159.294 36.7524 159.177 36.6589 159.051 36.6023C158.924 36.5413 158.785 36.5109 158.633 36.5109C158.463 36.5109 158.313 36.5413 158.182 36.6023C158.052 36.6589 157.943 36.7394 157.856 36.8439C157.773 36.9483 157.71 37.0702 157.666 37.2095C157.623 37.3444 157.601 37.4902 157.601 37.6469C157.601 37.8036 157.625 37.9516 157.673 38.0909C157.725 38.2259 157.795 38.3456 157.882 38.45C157.973 38.5545 158.082 38.6372 158.208 38.6981C158.335 38.7547 158.476 38.783 158.633 38.783C158.968 38.783 159.227 38.6568 159.41 38.4043L159.788 38.7634C159.64 38.9332 159.466 39.0572 159.266 39.1356C159.066 39.2139 158.855 39.2531 158.633 39.2531C158.398 39.2531 158.182 39.2139 157.986 39.1356C157.791 39.0572 157.623 38.9462 157.484 38.8026C157.349 38.659 157.242 38.4892 157.164 38.2933C157.09 38.0974 157.053 37.882 157.053 37.6469C157.053 37.4162 157.09 37.203 157.164 37.0071C157.242 36.8112 157.351 36.6415 157.49 36.4978C157.629 36.3542 157.795 36.2432 157.986 36.1648C158.182 36.0821 158.398 36.0408 158.633 36.0408C158.859 36.0408 159.072 36.0799 159.273 36.1583C159.477 36.2366 159.656 36.3585 159.808 36.5239L159.403 36.883Z" fill="#525252"/>
<path d="M154.514 38.3717C154.614 38.4979 154.723 38.598 154.841 38.672C154.963 38.746 155.115 38.783 155.298 38.783C155.376 38.783 155.454 38.7743 155.533 38.7569C155.615 38.7395 155.689 38.7112 155.755 38.672C155.82 38.6328 155.872 38.585 155.911 38.5284C155.951 38.4674 155.97 38.3956 155.97 38.3129C155.97 38.2302 155.951 38.1627 155.911 38.1105C155.877 38.0583 155.829 38.0147 155.768 37.9799C155.707 37.9408 155.637 37.9103 155.559 37.8885C155.48 37.8668 155.4 37.8472 155.317 37.8298C155.174 37.7993 155.037 37.7645 154.906 37.7253C154.775 37.6861 154.66 37.6361 154.56 37.5751C154.464 37.5098 154.386 37.4271 154.325 37.327C154.268 37.2269 154.24 37.0985 154.24 36.9418C154.24 36.7938 154.273 36.6632 154.338 36.55C154.403 36.4369 154.49 36.3433 154.599 36.2693C154.708 36.1953 154.83 36.1387 154.965 36.0995C155.1 36.0604 155.239 36.0408 155.383 36.0408C155.6 36.0408 155.8 36.0843 155.983 36.1714C156.17 36.2584 156.316 36.3999 156.421 36.5957L155.996 36.8765C155.931 36.7677 155.844 36.6806 155.735 36.6153C155.631 36.5457 155.502 36.5109 155.35 36.5109C155.28 36.5109 155.208 36.5196 155.134 36.537C155.065 36.5544 155.002 36.5805 154.945 36.6153C154.889 36.6502 154.841 36.6959 154.801 36.7524C154.767 36.8047 154.749 36.8656 154.749 36.9353C154.749 37.0006 154.769 37.0571 154.808 37.105C154.852 37.1485 154.908 37.1877 154.978 37.2225C155.052 37.2574 155.134 37.2878 155.226 37.314C155.322 37.3401 155.42 37.3618 155.52 37.3792C155.655 37.4054 155.783 37.4402 155.905 37.4837C156.027 37.5229 156.133 37.5773 156.225 37.6469C156.316 37.7166 156.388 37.8036 156.44 37.9081C156.493 38.0126 156.519 38.141 156.519 38.2933C156.519 38.4674 156.484 38.6154 156.414 38.7373C156.345 38.8592 156.251 38.9593 156.133 39.0376C156.02 39.1116 155.89 39.1661 155.742 39.2009C155.598 39.2357 155.45 39.2531 155.298 39.2531C155.037 39.2531 154.81 39.2139 154.619 39.1356C154.431 39.0529 154.262 38.9027 154.109 38.6851L154.514 38.3717Z" fill="#525252"/>
<path d="M152.924 36.119H153.433V39.1746H152.924V36.119ZM152.807 34.9242C152.807 34.824 152.841 34.737 152.911 34.663C152.985 34.589 153.074 34.552 153.179 34.552C153.283 34.552 153.37 34.589 153.44 34.663C153.514 34.737 153.551 34.824 153.551 34.9242C153.551 35.033 153.516 35.1222 153.446 35.1919C153.377 35.2615 153.288 35.2963 153.179 35.2963C153.07 35.2963 152.981 35.2615 152.911 35.1919C152.841 35.1222 152.807 35.033 152.807 34.9242Z" fill="#525252"/>
<path d="M149.344 34.552H152.21V35.0613H149.892V36.5891H152.047V37.0984H149.892V39.1746H149.344V34.552Z" fill="#525252"/>
<path d="M144.01 36.5109C144.167 36.3498 144.352 36.2323 144.565 36.1583C144.783 36.0799 145.003 36.0408 145.225 36.0408C145.677 36.0408 146.004 36.1474 146.204 36.3607C146.404 36.574 146.504 36.8983 146.504 37.3335V38.6459C146.504 38.733 146.509 38.8244 146.517 38.9201C146.526 39.0115 146.537 39.0964 146.55 39.1748H146.06C146.043 39.1051 146.032 39.0289 146.028 38.9462C146.028 38.8592 146.028 38.783 146.028 38.7177H146.015C145.914 38.8744 145.78 39.0028 145.61 39.1029C145.444 39.203 145.244 39.2531 145.009 39.2531C144.852 39.2531 144.704 39.2335 144.565 39.1943C144.43 39.1552 144.31 39.0986 144.206 39.0246C144.106 38.9462 144.025 38.8505 143.964 38.7373C143.904 38.6241 143.873 38.4936 143.873 38.3456C143.873 38.0931 143.938 37.895 144.069 37.7514C144.2 37.6078 144.361 37.5011 144.552 37.4315C144.748 37.3618 144.957 37.3183 145.179 37.3009C145.405 37.2835 145.612 37.2748 145.799 37.2748H145.995V37.1834C145.995 36.9614 145.928 36.7938 145.793 36.6806C145.662 36.5675 145.477 36.5109 145.238 36.5109C145.072 36.5109 144.909 36.5392 144.748 36.5957C144.591 36.648 144.452 36.7307 144.33 36.8439L144.01 36.5109ZM145.486 37.7057C145.159 37.7057 144.9 37.7514 144.709 37.8428C144.517 37.9342 144.421 38.0844 144.421 38.2933C144.421 38.4848 144.485 38.622 144.611 38.7047C144.741 38.783 144.902 38.8222 145.094 38.8222C145.242 38.8222 145.37 38.7982 145.479 38.7504C145.592 38.6981 145.686 38.6307 145.76 38.548C145.834 38.4653 145.891 38.3695 145.93 38.2607C145.969 38.1475 145.991 38.0278 145.995 37.9016V37.7057H145.486Z" fill="#525252"/>
<path d="M143.086 38.45C143.086 38.5893 143.09 38.7199 143.099 38.8418C143.108 38.9637 143.112 39.0747 143.112 39.1748H142.629C142.629 39.0921 142.627 39.0094 142.622 38.9267C142.618 38.844 142.616 38.7591 142.616 38.672H142.603C142.568 38.746 142.518 38.8178 142.452 38.8875C142.391 38.9571 142.318 39.0203 142.23 39.0768C142.143 39.1291 142.045 39.1704 141.937 39.2009C141.828 39.2357 141.71 39.2531 141.584 39.2531C141.384 39.2531 141.21 39.2227 141.062 39.1617C140.918 39.1008 140.798 39.0159 140.703 38.9071C140.607 38.7983 140.535 38.6677 140.487 38.5153C140.444 38.3586 140.422 38.1889 140.422 38.0061V36.1191H140.931V37.9538C140.931 38.2106 140.988 38.413 141.101 38.561C141.214 38.709 141.39 38.783 141.63 38.783C141.795 38.783 141.937 38.7547 142.054 38.6981C142.176 38.6416 142.274 38.561 142.348 38.4566C142.426 38.3521 142.483 38.2281 142.518 38.0844C142.557 37.9408 142.576 37.7819 142.576 37.6078V36.1191H143.086V38.45Z" fill="#525252"/>
<path d="M140.463 35.0613H138.936V39.1746H138.387V35.0613H136.859V34.552H140.463V35.0613Z" fill="#525252"/>
<path d="M132.028 36.5109C132.184 36.3498 132.369 36.2323 132.583 36.1583C132.8 36.0799 133.02 36.0408 133.242 36.0408C133.695 36.0408 134.021 36.1474 134.222 36.3607C134.422 36.574 134.522 36.8983 134.522 37.3335V38.6459C134.522 38.733 134.526 38.8244 134.535 38.9201C134.544 39.0115 134.555 39.0964 134.568 39.1748H134.078C134.06 39.1051 134.05 39.0289 134.045 38.9462C134.045 38.8592 134.045 38.783 134.045 38.7177H134.032C133.932 38.8744 133.797 39.0028 133.627 39.1029C133.462 39.203 133.262 39.2531 133.027 39.2531C132.87 39.2531 132.722 39.2335 132.583 39.1943C132.448 39.1552 132.328 39.0986 132.224 39.0246C132.123 38.9462 132.043 38.8505 131.982 38.7373C131.921 38.6241 131.891 38.4936 131.891 38.3456C131.891 38.0931 131.956 37.895 132.086 37.7514C132.217 37.6078 132.378 37.5011 132.57 37.4315C132.766 37.3618 132.974 37.3183 133.196 37.3009C133.423 37.2835 133.63 37.2748 133.817 37.2748H134.013V37.1834C134.013 36.9614 133.945 36.7938 133.81 36.6806C133.68 36.5675 133.495 36.5109 133.255 36.5109C133.09 36.5109 132.927 36.5392 132.766 36.5957C132.609 36.648 132.47 36.7307 132.348 36.8439L132.028 36.5109ZM133.503 37.7057C133.177 37.7057 132.918 37.7514 132.726 37.8428C132.535 37.9342 132.439 38.0844 132.439 38.2933C132.439 38.4848 132.502 38.622 132.628 38.7047C132.759 38.783 132.92 38.8222 133.112 38.8222C133.26 38.8222 133.388 38.7982 133.497 38.7504C133.61 38.6981 133.704 38.6307 133.778 38.548C133.852 38.4653 133.908 38.3695 133.947 38.2607C133.986 38.1475 134.008 38.0278 134.013 37.9016V37.7057H133.503Z" fill="#525252"/>
<path d="M130.545 34.2388H131.054V39.1748H130.545V34.2388Z" fill="#525252"/>
<path d="M126.387 36.8439C126.387 36.7046 126.383 36.574 126.374 36.4521C126.366 36.3302 126.361 36.2192 126.361 36.1191H126.844C126.844 36.2018 126.847 36.2845 126.851 36.3672C126.855 36.4499 126.858 36.5348 126.858 36.6219H126.871C126.905 36.5479 126.953 36.476 127.014 36.4064C127.08 36.3368 127.156 36.2758 127.243 36.2236C127.33 36.167 127.428 36.1235 127.537 36.093C127.645 36.0582 127.763 36.0408 127.889 36.0408C127.924 36.0408 127.959 36.0429 127.994 36.0473C128.028 36.0517 128.063 36.0604 128.098 36.0734L128.065 36.5892C127.978 36.5631 127.887 36.55 127.791 36.55C127.478 36.55 127.249 36.6523 127.106 36.8569C126.966 37.0571 126.897 37.3335 126.897 37.6861V39.1748H126.387V36.8439Z" fill="#525252"/>
<path d="M125.487 38.6198C125.305 38.8548 125.104 39.0202 124.887 39.116C124.669 39.2074 124.417 39.2531 124.129 39.2531C123.89 39.2531 123.675 39.2118 123.483 39.1291C123.292 39.042 123.128 38.9267 122.993 38.783C122.863 38.6394 122.76 38.4696 122.686 38.2737C122.617 38.0779 122.582 37.8689 122.582 37.6469C122.582 37.4119 122.621 37.1964 122.7 37.0006C122.778 36.8003 122.887 36.6306 123.026 36.4913C123.165 36.3476 123.331 36.2366 123.522 36.1583C123.714 36.0799 123.923 36.0408 124.149 36.0408C124.362 36.0408 124.558 36.0778 124.737 36.1518C124.915 36.2214 125.067 36.3259 125.194 36.4652C125.324 36.6001 125.424 36.7677 125.494 36.9679C125.564 37.1638 125.598 37.388 125.598 37.6404V37.8036H123.13C123.139 37.9342 123.17 38.0605 123.222 38.1823C123.278 38.2999 123.35 38.4043 123.437 38.4957C123.524 38.5828 123.627 38.6524 123.744 38.7047C123.862 38.7569 123.99 38.783 124.129 38.783C124.351 38.783 124.539 38.7438 124.691 38.6655C124.843 38.5871 124.98 38.4718 125.102 38.3194L125.487 38.6198ZM125.05 37.3727C125.041 37.1115 124.956 36.9026 124.795 36.7459C124.634 36.5892 124.412 36.5109 124.129 36.5109C123.847 36.5109 123.618 36.5892 123.444 36.7459C123.27 36.9026 123.165 37.1115 123.13 37.3727H125.05Z" fill="#525252"/>
<path d="M118.742 36.1191H119.251V36.5631H119.265C119.404 36.3977 119.565 36.2693 119.748 36.1779C119.935 36.0865 120.139 36.0408 120.361 36.0408C120.601 36.0408 120.818 36.0821 121.014 36.1648C121.215 36.2432 121.384 36.3542 121.524 36.4978C121.663 36.6415 121.772 36.8112 121.85 37.0071C121.928 37.203 121.968 37.4162 121.968 37.6469C121.968 37.8776 121.928 38.0909 121.85 38.2868C121.772 38.4827 121.663 38.6524 121.524 38.7961C121.389 38.9397 121.228 39.0529 121.04 39.1356C120.853 39.2139 120.653 39.2531 120.44 39.2531C120.166 39.2531 119.924 39.1943 119.715 39.0768C119.51 38.9549 119.36 38.8069 119.265 38.6328H119.251V40.6634H118.742V36.1191ZM119.251 37.6469C119.251 37.808 119.275 37.9582 119.323 38.0974C119.376 38.2324 119.45 38.3521 119.545 38.4566C119.641 38.5567 119.754 38.6372 119.885 38.6981C120.02 38.7547 120.17 38.783 120.335 38.783C120.501 38.783 120.649 38.7547 120.779 38.6981C120.914 38.6372 121.03 38.5567 121.125 38.4566C121.221 38.3521 121.293 38.2324 121.341 38.0974C121.393 37.9582 121.419 37.808 121.419 37.6469C121.419 37.4859 121.393 37.3379 121.341 37.203C121.293 37.0637 121.221 36.944 121.125 36.8439C121.03 36.7394 120.914 36.6589 120.779 36.6023C120.649 36.5413 120.501 36.5109 120.335 36.5109C120.17 36.5109 120.02 36.5413 119.885 36.6023C119.754 36.6589 119.641 36.7394 119.545 36.8439C119.45 36.944 119.376 37.0637 119.323 37.203C119.275 37.3379 119.251 37.4859 119.251 37.6469Z" fill="#525252"/>
<path d="M113.526 36.5109C113.682 36.3498 113.867 36.2323 114.081 36.1583C114.298 36.0799 114.518 36.0408 114.74 36.0408C115.193 36.0408 115.519 36.1474 115.72 36.3607C115.92 36.574 116.02 36.8983 116.02 37.3335V38.6459C116.02 38.733 116.024 38.8244 116.033 38.9201C116.042 39.0115 116.053 39.0964 116.066 39.1748H115.576C115.559 39.1051 115.548 39.0289 115.543 38.9462C115.543 38.8592 115.543 38.783 115.543 38.7177H115.53C115.43 38.8744 115.295 39.0028 115.125 39.1029C114.96 39.203 114.76 39.2531 114.525 39.2531C114.368 39.2531 114.22 39.2335 114.081 39.1943C113.946 39.1552 113.826 39.0986 113.722 39.0246C113.622 38.9462 113.541 38.8505 113.48 38.7373C113.419 38.6241 113.389 38.4936 113.389 38.3456C113.389 38.0931 113.454 37.895 113.585 37.7514C113.715 37.6078 113.876 37.5011 114.068 37.4315C114.264 37.3618 114.473 37.3183 114.694 37.3009C114.921 37.2835 115.128 37.2748 115.315 37.2748H115.511V37.1834C115.511 36.9614 115.443 36.7938 115.308 36.6806C115.178 36.5675 114.993 36.5109 114.753 36.5109C114.588 36.5109 114.425 36.5392 114.264 36.5957C114.107 36.648 113.968 36.7307 113.846 36.8439L113.526 36.5109ZM115.001 37.7057C114.675 37.7057 114.416 37.7514 114.224 37.8428C114.033 37.9342 113.937 38.0844 113.937 38.2933C113.937 38.4848 114 38.622 114.126 38.7047C114.257 38.783 114.418 38.8222 114.61 38.8222C114.758 38.8222 114.886 38.7982 114.995 38.7504C115.108 38.6981 115.202 38.6307 115.276 38.548C115.35 38.4653 115.406 38.3695 115.445 38.2607C115.485 38.1475 115.506 38.0278 115.511 37.9016V37.7057H115.001Z" fill="#525252"/>
<path d="M111.805 39.1748H111.243L109.996 36.1191H110.59L111.543 38.5153H111.557L112.464 36.1191H113.013L111.805 39.1748Z" fill="#525252"/>
<path d="M108.893 36.119H109.402V39.1746H108.893V36.119ZM108.775 34.9242C108.775 34.824 108.81 34.737 108.88 34.663C108.954 34.589 109.043 34.552 109.148 34.552C109.252 34.552 109.339 34.589 109.409 34.663C109.483 34.737 109.52 34.824 109.52 34.9242C109.52 35.033 109.485 35.1222 109.415 35.1919C109.346 35.2615 109.256 35.2963 109.148 35.2963C109.039 35.2963 108.95 35.2615 108.88 35.1919C108.81 35.1222 108.775 35.033 108.775 34.9242Z" fill="#525252"/>
<path d="M108.215 36.5503H107.314V38.0781C107.314 38.1782 107.316 38.2718 107.32 38.3588C107.325 38.4415 107.342 38.5155 107.373 38.5808C107.403 38.6418 107.449 38.6918 107.51 38.731C107.571 38.7658 107.658 38.7832 107.771 38.7832C107.845 38.7832 107.921 38.7745 107.999 38.7571C108.078 38.7397 108.152 38.7136 108.221 38.6788L108.241 39.1423C108.154 39.1815 108.056 39.2098 107.947 39.2272C107.843 39.2446 107.743 39.2533 107.647 39.2533C107.464 39.2533 107.318 39.2294 107.209 39.1815C107.101 39.1336 107.016 39.0662 106.955 38.9791C106.894 38.8921 106.853 38.7854 106.831 38.6592C106.813 38.5286 106.805 38.385 106.805 38.2283V36.5503H106.139V36.1194H106.805V35.251H107.314V36.1194H108.215V36.5503Z" fill="#525252"/>
<path d="M103.12 36.5109C103.276 36.3498 103.461 36.2323 103.675 36.1583C103.892 36.0799 104.112 36.0408 104.334 36.0408C104.787 36.0408 105.113 36.1474 105.313 36.3607C105.514 36.574 105.614 36.8983 105.614 37.3335V38.6459C105.614 38.733 105.618 38.8244 105.627 38.9201C105.635 39.0115 105.646 39.0964 105.659 39.1748H105.17C105.152 39.1051 105.141 39.0289 105.137 38.9462C105.137 38.8592 105.137 38.783 105.137 38.7177H105.124C105.024 38.8744 104.889 39.0028 104.719 39.1029C104.554 39.203 104.354 39.2531 104.118 39.2531C103.962 39.2531 103.814 39.2335 103.675 39.1943C103.54 39.1552 103.42 39.0986 103.315 39.0246C103.215 38.9462 103.135 38.8505 103.074 38.7373C103.013 38.6241 102.982 38.4936 102.982 38.3456C102.982 38.0931 103.048 37.895 103.178 37.7514C103.309 37.6078 103.47 37.5011 103.661 37.4315C103.857 37.3618 104.066 37.3183 104.288 37.3009C104.515 37.2835 104.721 37.2748 104.909 37.2748H105.104V37.1834C105.104 36.9614 105.037 36.7938 104.902 36.6806C104.771 36.5675 104.586 36.5109 104.347 36.5109C104.182 36.5109 104.018 36.5392 103.857 36.5957C103.701 36.648 103.561 36.7307 103.439 36.8439L103.12 36.5109ZM104.595 37.7057C104.269 37.7057 104.01 37.7514 103.818 37.8428C103.627 37.9342 103.531 38.0844 103.531 38.2933C103.531 38.4848 103.594 38.622 103.72 38.7047C103.851 38.783 104.012 38.8222 104.203 38.8222C104.351 38.8222 104.48 38.7982 104.589 38.7504C104.702 38.6981 104.795 38.6307 104.869 38.548C104.943 38.4653 105 38.3695 105.039 38.2607C105.078 38.1475 105.1 38.0278 105.104 37.9016V37.7057H104.595Z" fill="#525252"/>
<path d="M101.4 39.1748H100.839L99.5918 36.1191H100.186L101.139 38.5153H101.152L102.06 36.1191H102.608L101.4 39.1748Z" fill="#525252"/>
<path d="M95.957 37.6469C95.957 37.4075 95.9984 37.1899 96.0811 36.994C96.1638 36.7982 96.277 36.6306 96.4206 36.4913C96.5642 36.3476 96.7362 36.2366 96.9364 36.1583C97.1366 36.0799 97.3543 36.0408 97.5893 36.0408C97.8244 36.0408 98.042 36.0799 98.2422 36.1583C98.4425 36.2366 98.6144 36.3476 98.758 36.4913C98.9017 36.6306 99.0148 36.7982 99.0975 36.994C99.1802 37.1899 99.2216 37.4075 99.2216 37.6469C99.2216 37.8863 99.1802 38.104 99.0975 38.2999C99.0148 38.4957 98.9017 38.6655 98.758 38.8091C98.6144 38.9484 98.4425 39.0572 98.2422 39.1356C98.042 39.2139 97.8244 39.2531 97.5893 39.2531C97.3543 39.2531 97.1366 39.2139 96.9364 39.1356C96.7362 39.0572 96.5642 38.9484 96.4206 38.8091C96.277 38.6655 96.1638 38.4957 96.0811 38.2999C95.9984 38.104 95.957 37.8863 95.957 37.6469ZM96.5055 37.6469C96.5055 37.808 96.5294 37.9582 96.5773 38.0974C96.6295 38.2324 96.7035 38.3521 96.7993 38.4566C96.895 38.5567 97.0082 38.6372 97.1388 38.6981C97.2737 38.7547 97.4239 38.783 97.5893 38.783C97.7547 38.783 97.9027 38.7547 98.0333 38.6981C98.1682 38.6372 98.2836 38.5567 98.3793 38.4566C98.4751 38.3521 98.5469 38.2324 98.5948 38.0974C98.647 37.9582 98.6731 37.808 98.6731 37.6469C98.6731 37.4859 98.647 37.3379 98.5948 37.203C98.5469 37.0637 98.4751 36.944 98.3793 36.8439C98.2836 36.7394 98.1682 36.6589 98.0333 36.6023C97.9027 36.5413 97.7547 36.5109 97.5893 36.5109C97.4239 36.5109 97.2737 36.5413 97.1388 36.6023C97.0082 36.6589 96.895 36.7394 96.7993 36.8439C96.7035 36.944 96.6295 37.0637 96.5773 37.203C96.5294 37.3379 96.5055 37.4859 96.5055 37.6469Z" fill="#525252"/>
<path d="M92.5046 36.8439C92.5046 36.7046 92.5003 36.574 92.4916 36.4521C92.4829 36.3302 92.4785 36.2192 92.4785 36.1191H92.9617C92.9617 36.2018 92.9638 36.2845 92.9682 36.3672C92.9726 36.4499 92.9747 36.5348 92.9747 36.6219H92.9878C93.0226 36.5479 93.0705 36.476 93.1314 36.4064C93.1967 36.3368 93.2729 36.2758 93.3599 36.2236C93.447 36.167 93.5449 36.1235 93.6538 36.093C93.7626 36.0582 93.8801 36.0408 94.0063 36.0408C94.2066 36.0408 94.3785 36.0712 94.5221 36.1322C94.6701 36.1931 94.792 36.278 94.8878 36.3868C94.9835 36.4956 95.0532 36.6284 95.0967 36.7851C95.1446 36.9374 95.1685 37.105 95.1685 37.2878V39.1748H94.6592V37.3401C94.6592 37.0833 94.6027 36.8809 94.4895 36.7329C94.3763 36.5849 94.2 36.5109 93.9606 36.5109C93.7952 36.5109 93.6516 36.5392 93.5297 36.5957C93.4122 36.6523 93.3142 36.7329 93.2359 36.8373C93.1619 36.9418 93.1053 37.0658 93.0661 37.2095C93.0313 37.3531 93.0139 37.512 93.0139 37.6861V39.1748H92.5046V36.8439Z" fill="#525252"/>
<path d="M88.876 36.8439C88.876 36.7046 88.8716 36.574 88.8629 36.4521C88.8542 36.3302 88.8499 36.2192 88.8499 36.1191H89.333C89.333 36.2018 89.3352 36.2845 89.3395 36.3672C89.3439 36.4499 89.3461 36.5348 89.3461 36.6219H89.3591C89.3939 36.5479 89.4418 36.476 89.5028 36.4064C89.5681 36.3368 89.6442 36.2758 89.7313 36.2236C89.8183 36.167 89.9163 36.1235 90.0251 36.093C90.1339 36.0582 90.2514 36.0408 90.3777 36.0408C90.5779 36.0408 90.7498 36.0712 90.8935 36.1322C91.0415 36.1931 91.1633 36.278 91.2591 36.3868C91.3549 36.4956 91.4245 36.6284 91.468 36.7851C91.5159 36.9374 91.5399 37.105 91.5399 37.2878V39.1748H91.0306V37.3401C91.0306 37.0833 90.974 36.8809 90.8608 36.7329C90.7477 36.5849 90.5714 36.5109 90.332 36.5109C90.1666 36.5109 90.0229 36.5392 89.901 36.5957C89.7835 36.6523 89.6856 36.7329 89.6072 36.8373C89.5332 36.9418 89.4767 37.0658 89.4375 37.2095C89.4027 37.3531 89.3852 37.512 89.3852 37.6861V39.1748H88.876V36.8439Z" fill="#525252"/>
<path d="M87.2717 34.552H87.8202V39.1746H87.2717V34.552Z" fill="#525252"/>
<path d="M84.4641 38.6198C84.2812 38.8548 84.081 39.0202 83.8634 39.116C83.6457 39.2074 83.3933 39.2531 83.106 39.2531C82.8666 39.2531 82.6511 39.2118 82.4596 39.1291C82.2681 39.042 82.1049 38.9267 81.9699 38.783C81.8393 38.6394 81.7371 38.4696 81.6631 38.2737C81.5934 38.0779 81.5586 37.8689 81.5586 37.6469C81.5586 37.4119 81.5978 37.1964 81.6761 37.0006C81.7545 36.8003 81.8633 36.6306 82.0026 36.4913C82.1419 36.3476 82.3073 36.2366 82.4988 36.1583C82.6903 36.0799 82.8992 36.0408 83.1256 36.0408C83.3389 36.0408 83.5347 36.0778 83.7132 36.1518C83.8917 36.2214 84.044 36.3259 84.1702 36.4652C84.3008 36.6001 84.4009 36.7677 84.4706 36.9679C84.5402 37.1638 84.5751 37.388 84.5751 37.6404V37.8036H82.107C82.1157 37.9342 82.1462 38.0605 82.1984 38.1823C82.255 38.2999 82.3269 38.4043 82.4139 38.4957C82.501 38.5828 82.6033 38.6524 82.7208 38.7047C82.8383 38.7569 82.9667 38.783 83.106 38.783C83.328 38.783 83.5152 38.7438 83.6675 38.6655C83.8199 38.5871 83.957 38.4718 84.0788 38.3194L84.4641 38.6198ZM84.0266 37.3727C84.0179 37.1115 83.933 36.9026 83.772 36.7459C83.6109 36.5892 83.3889 36.5109 83.106 36.5109C82.8231 36.5109 82.5946 36.5892 82.4204 36.7459C82.2463 36.9026 82.1419 37.1115 82.107 37.3727H84.0266Z" fill="#525252"/>
<path d="M78.1081 36.8439C78.1081 36.7046 78.1038 36.574 78.0951 36.4521C78.0864 36.3302 78.082 36.2192 78.082 36.1191H78.5652C78.5652 36.2018 78.5674 36.2845 78.5717 36.3672C78.5761 36.4499 78.5782 36.5348 78.5782 36.6219H78.5913C78.6261 36.5479 78.674 36.476 78.7349 36.4064C78.8002 36.3368 78.8764 36.2758 78.9635 36.2236C79.0505 36.167 79.1485 36.1235 79.2573 36.093C79.3661 36.0582 79.4836 36.0408 79.6098 36.0408C79.8101 36.0408 79.982 36.0712 80.1257 36.1322C80.2736 36.1931 80.3955 36.278 80.4913 36.3868C80.587 36.4956 80.6567 36.6284 80.7002 36.7851C80.7481 36.9374 80.772 37.105 80.772 37.2878V39.1748H80.2628V37.3401C80.2628 37.0833 80.2062 36.8809 80.093 36.7329C79.9798 36.5849 79.8035 36.5109 79.5641 36.5109C79.3987 36.5109 79.2551 36.5392 79.1332 36.5957C79.0157 36.6523 78.9178 36.7329 78.8394 36.8373C78.7654 36.9418 78.7088 37.0658 78.6697 37.2095C78.6348 37.3531 78.6174 37.512 78.6174 37.6861V39.1748H78.1081V36.8439Z" fill="#525252"/>
<path d="M74.0527 37.6469C74.0527 37.4075 74.0941 37.1899 74.1768 36.994C74.2595 36.7982 74.3727 36.6306 74.5163 36.4913C74.6599 36.3476 74.8319 36.2366 75.0321 36.1583C75.2323 36.0799 75.45 36.0408 75.685 36.0408C75.9201 36.0408 76.1377 36.0799 76.3379 36.1583C76.5382 36.2366 76.7101 36.3476 76.8537 36.4913C76.9974 36.6306 77.1105 36.7982 77.1932 36.994C77.276 37.1899 77.3173 37.4075 77.3173 37.6469C77.3173 37.8863 77.276 38.104 77.1932 38.2999C77.1105 38.4957 76.9974 38.6655 76.8537 38.8091C76.7101 38.9484 76.5382 39.0572 76.3379 39.1356C76.1377 39.2139 75.9201 39.2531 75.685 39.2531C75.45 39.2531 75.2323 39.2139 75.0321 39.1356C74.8319 39.0572 74.6599 38.9484 74.5163 38.8091C74.3727 38.6655 74.2595 38.4957 74.1768 38.2999C74.0941 38.104 74.0527 37.8863 74.0527 37.6469ZM74.6012 37.6469C74.6012 37.808 74.6251 37.9582 74.673 38.0974C74.7252 38.2324 74.7992 38.3521 74.895 38.4566C74.9908 38.5567 75.1039 38.6372 75.2345 38.6981C75.3694 38.7547 75.5196 38.783 75.685 38.783C75.8504 38.783 75.9984 38.7547 76.129 38.6981C76.2639 38.6372 76.3793 38.5567 76.475 38.4566C76.5708 38.3521 76.6426 38.2324 76.6905 38.0974C76.7427 37.9582 76.7689 37.808 76.7689 37.6469C76.7689 37.4859 76.7427 37.3379 76.6905 37.203C76.6426 37.0637 76.5708 36.944 76.475 36.8439C76.3793 36.7394 76.2639 36.6589 76.129 36.6023C75.9984 36.5413 75.8504 36.5109 75.685 36.5109C75.5196 36.5109 75.3694 36.5413 75.2345 36.6023C75.1039 36.6589 74.9908 36.7394 74.895 36.8439C74.7992 36.944 74.7252 37.0637 74.673 37.203C74.6251 37.3379 74.6012 37.4859 74.6012 37.6469Z" fill="#525252"/>
<path d="M72.7074 36.119H73.2166V39.1746H72.7074V36.119ZM72.5898 34.9242C72.5898 34.824 72.6247 34.737 72.6943 34.663C72.7683 34.589 72.8575 34.552 72.962 34.552C73.0665 34.552 73.1535 34.589 73.2232 34.663C73.2972 34.737 73.3342 34.824 73.3342 34.9242C73.3342 35.033 73.2993 35.1222 73.2297 35.1919C73.1601 35.2615 73.0708 35.2963 72.962 35.2963C72.8532 35.2963 72.764 35.2615 72.6943 35.1919C72.6247 35.1222 72.5898 35.033 72.5898 34.9242Z" fill="#525252"/>
<path d="M69.4727 38.7765L71.2682 36.5501H69.551V36.1191H71.9341V36.5109L70.1386 38.7439H71.9798V39.1748H69.4727V38.7765Z" fill="#525252"/>
<path d="M68.7967 38.45C68.7967 38.5893 68.8011 38.7199 68.8098 38.8418C68.8185 38.9637 68.8228 39.0747 68.8228 39.1748H68.3397C68.3397 39.0921 68.3375 39.0094 68.3331 38.9267C68.3288 38.844 68.3266 38.7591 68.3266 38.672H68.3135C68.2787 38.746 68.2287 38.8178 68.1634 38.8875C68.1024 38.9571 68.0284 39.0203 67.9414 39.0768C67.8543 39.1291 67.7564 39.1704 67.6476 39.2009C67.5388 39.2357 67.4212 39.2531 67.295 39.2531C67.0948 39.2531 66.9207 39.2227 66.7727 39.1617C66.629 39.1008 66.5093 39.0159 66.4136 38.9071C66.3178 38.7983 66.246 38.6677 66.1981 38.5153C66.1546 38.3586 66.1328 38.1889 66.1328 38.0061V36.1191H66.6421V37.9538C66.6421 38.2106 66.6987 38.413 66.8118 38.561C66.925 38.709 67.1013 38.783 67.3407 38.783C67.5061 38.783 67.6476 38.7547 67.7651 38.6981C67.887 38.6416 67.9849 38.561 68.0589 38.4566C68.1373 38.3521 68.1938 38.2281 68.2287 38.0844C68.2678 37.9408 68.2874 37.7819 68.2874 37.6078V36.1191H68.7967V38.45Z" fill="#525252"/>
<path d="M64.6094 34.2388H65.1186V39.1748H64.6094V34.2388Z" fill="#525252"/>
<path d="M60.5117 37.6469C60.5117 37.4075 60.5531 37.1899 60.6358 36.994C60.7185 36.7982 60.8316 36.6306 60.9753 36.4913C61.1189 36.3476 61.2909 36.2366 61.4911 36.1583C61.6913 36.0799 61.909 36.0408 62.144 36.0408C62.3791 36.0408 62.5967 36.0799 62.7969 36.1583C62.9971 36.2366 63.1691 36.3476 63.3127 36.4913C63.4564 36.6306 63.5695 36.7982 63.6522 36.994C63.7349 37.1899 63.7763 37.4075 63.7763 37.6469C63.7763 37.8863 63.7349 38.104 63.6522 38.2999C63.5695 38.4957 63.4564 38.6655 63.3127 38.8091C63.1691 38.9484 62.9971 39.0572 62.7969 39.1356C62.5967 39.2139 62.3791 39.2531 62.144 39.2531C61.909 39.2531 61.6913 39.2139 61.4911 39.1356C61.2909 39.0572 61.1189 38.9484 60.9753 38.8091C60.8316 38.6655 60.7185 38.4957 60.6358 38.2999C60.5531 38.104 60.5117 37.8863 60.5117 37.6469ZM61.0602 37.6469C61.0602 37.808 61.0841 37.9582 61.132 38.0974C61.1842 38.2324 61.2582 38.3521 61.354 38.4566C61.4497 38.5567 61.5629 38.6372 61.6935 38.6981C61.8284 38.7547 61.9786 38.783 62.144 38.783C62.3094 38.783 62.4574 38.7547 62.588 38.6981C62.7229 38.6372 62.8383 38.5567 62.934 38.4566C63.0298 38.3521 63.1016 38.2324 63.1495 38.0974C63.2017 37.9582 63.2278 37.808 63.2278 37.6469C63.2278 37.4859 63.2017 37.3379 63.1495 37.203C63.1016 37.0637 63.0298 36.944 62.934 36.8439C62.8383 36.7394 62.7229 36.6589 62.588 36.6023C62.4574 36.5413 62.3094 36.5109 62.144 36.5109C61.9786 36.5109 61.8284 36.5413 61.6935 36.6023C61.5629 36.6589 61.4497 36.7394 61.354 36.8439C61.2582 36.944 61.1842 37.0637 61.132 37.203C61.0841 37.3379 61.0602 37.4859 61.0602 37.6469Z" fill="#525252"/>
<path d="M59.3445 35.3682C59.2531 35.2202 59.1312 35.1136 58.9788 35.0483C58.8265 34.9787 58.6676 34.9438 58.5022 34.9438C58.3803 34.9438 58.2606 34.9591 58.1431 34.9895C58.0256 35.02 57.9189 35.0657 57.8232 35.1267C57.7318 35.1876 57.6578 35.2681 57.6012 35.3682C57.5446 35.4684 57.5163 35.5859 57.5163 35.7208C57.5163 35.8253 57.5315 35.9189 57.562 36.0016C57.5968 36.0799 57.6512 36.1517 57.7252 36.217C57.7992 36.2823 57.8993 36.3433 58.0256 36.3998C58.1518 36.4564 58.3063 36.513 58.4891 36.5696C58.6676 36.6262 58.8395 36.6871 59.005 36.7524C59.1747 36.8177 59.3227 36.9004 59.4489 37.0005C59.5795 37.1006 59.6818 37.2269 59.7558 37.3792C59.8342 37.5272 59.8733 37.7144 59.8733 37.9407C59.8733 38.1714 59.8276 38.3716 59.7362 38.5414C59.6448 38.7112 59.5229 38.8526 59.3706 38.9658C59.2226 39.0746 59.0507 39.1551 58.8548 39.2074C58.6589 39.264 58.4565 39.2922 58.2476 39.2922C58.1126 39.2922 57.9777 39.2792 57.8428 39.2531C57.7078 39.2313 57.5772 39.1965 57.451 39.1486C57.3291 39.0964 57.2138 39.0311 57.105 38.9527C56.9962 38.87 56.9026 38.7699 56.8242 38.6524L57.2943 38.2672C57.3944 38.4369 57.5337 38.5653 57.7122 38.6524C57.8906 38.7394 58.08 38.783 58.2802 38.783C58.3977 38.783 58.5153 38.7656 58.6328 38.7307C58.7547 38.6959 58.8635 38.6459 58.9592 38.5806C59.055 38.5109 59.1334 38.426 59.1943 38.3259C59.2552 38.2258 59.2857 38.1105 59.2857 37.9799C59.2857 37.8362 59.2618 37.7209 59.2139 37.6338C59.166 37.5424 59.092 37.4641 58.9919 37.3988C58.8918 37.3335 58.7655 37.2747 58.6132 37.2225C58.4609 37.1703 58.2824 37.1093 58.0778 37.0397C57.9124 36.9875 57.7601 36.9287 57.6208 36.8634C57.4815 36.7938 57.3596 36.7111 57.2551 36.6153C57.155 36.5152 57.0745 36.3977 57.0136 36.2627C56.957 36.1234 56.9287 35.958 56.9287 35.7665C56.9287 35.5445 56.9722 35.3508 57.0593 35.1854C57.1463 35.02 57.2638 34.8829 57.4118 34.7741C57.5598 34.6609 57.7274 34.576 57.9146 34.5194C58.1018 34.4629 58.2976 34.4346 58.5022 34.4346C58.7634 34.4346 59.0006 34.4759 59.2139 34.5586C59.4315 34.637 59.6252 34.7763 59.795 34.9765L59.3445 35.3682Z" fill="#525252"/>
<path d="M51.8168 36.5109C51.9735 36.3498 52.1585 36.2323 52.3718 36.1583C52.5894 36.0799 52.8092 36.0408 53.0312 36.0408C53.4839 36.0408 53.8104 36.1474 54.0106 36.3607C54.2108 36.574 54.3109 36.8983 54.3109 37.3335V38.6459C54.3109 38.733 54.3153 38.8244 54.324 38.9201C54.3327 39.0115 54.3436 39.0964 54.3566 39.1748H53.8669C53.8495 39.1051 53.8387 39.0289 53.8343 38.9462C53.8343 38.8592 53.8343 38.783 53.8343 38.7177H53.8212C53.7211 38.8744 53.5862 39.0028 53.4164 39.1029C53.251 39.203 53.0508 39.2531 52.8158 39.2531C52.6591 39.2531 52.5111 39.2335 52.3718 39.1943C52.2368 39.1552 52.1171 39.0986 52.0127 39.0246C51.9126 38.9462 51.832 38.8505 51.7711 38.7373C51.7102 38.6241 51.6797 38.4936 51.6797 38.3456C51.6797 38.0931 51.745 37.895 51.8756 37.7514C52.0061 37.6078 52.1672 37.5011 52.3587 37.4315C52.5546 37.3618 52.7635 37.3183 52.9855 37.3009C53.2119 37.2835 53.4186 37.2748 53.6058 37.2748H53.8017V37.1834C53.8017 36.9614 53.7342 36.7938 53.5993 36.6806C53.4687 36.5675 53.2837 36.5109 53.0443 36.5109C52.8789 36.5109 52.7156 36.5392 52.5546 36.5957C52.3979 36.648 52.2586 36.7307 52.1367 36.8439L51.8168 36.5109ZM53.2924 37.7057C52.9659 37.7057 52.7069 37.7514 52.5154 37.8428C52.3239 37.9342 52.2281 38.0844 52.2281 38.2933C52.2281 38.4848 52.2912 38.622 52.4175 38.7047C52.5481 38.783 52.7091 38.8222 52.9006 38.8222C53.0486 38.8222 53.177 38.7982 53.2859 38.7504C53.399 38.6981 53.4926 38.6307 53.5666 38.548C53.6406 38.4653 53.6972 38.3695 53.7364 38.2607C53.7755 38.1475 53.7973 38.0278 53.8017 37.9016V37.7057H53.2924Z" fill="#525252"/>
<path d="M48.6833 34.552H49.2318V38.6654H51.3472V39.1746H48.6833V34.552Z" fill="#525252"/>
<path d="M38.8312 19.4156C38.8312 30.1385 30.1385 38.8312 19.4156 38.8312C8.69265 38.8312 0 30.1385 0 19.4156C0 8.69265 8.69265 0 19.4156 0C30.1385 0 38.8312 8.69265 38.8312 19.4156Z" fill="#007BFF"/>
<path d="M12.7592 28.161C12.2123 28.3827 11.6469 28.3665 11.0632 28.1124C10.4873 27.8617 10.0902 27.4589 9.87195 26.9041C9.665 26.3448 9.69031 25.7693 9.94789 25.1776L15.8876 11.5339C16.1486 10.9344 16.5525 10.5238 17.0995 10.3021C17.6577 10.0759 18.2248 10.0882 18.8007 10.3389C19.3845 10.593 19.7798 10.9997 19.9868 11.559C20.1972 12.1104 20.1719 12.6859 19.9108 13.2855L13.9712 26.9291C13.7102 27.5287 13.3062 27.9393 12.7592 28.161Z" fill="white"/>
<path d="M9.14738 14.3181C8.51627 14.0434 8.07033 13.5912 7.80956 12.9616C7.55222 12.324 7.56092 11.6897 7.83567 11.0586C8.10355 10.4433 8.55848 10.0126 9.20046 9.7666C9.84245 9.52058 10.479 9.53495 11.1101 9.80969C11.7254 10.0776 12.164 10.5359 12.4258 11.1848C12.6955 11.8371 12.6998 12.463 12.4388 13.0625C12.1709 13.6779 11.7064 14.109 11.0452 14.3561C10.3953 14.5987 9.7627 14.586 9.14738 14.3181Z" fill="#FFC107"/>
<path fill-rule="evenodd" clip-rule="evenodd" d="M25.8553 24.1471C27.2069 24.1471 28.3026 23.0514 28.3026 21.6998C28.3026 20.3481 27.2069 19.2524 25.8553 19.2524C24.5036 19.2524 23.4079 20.3481 23.4079 21.6998C23.4079 23.0514 24.5036 24.1471 25.8553 24.1471ZM25.8553 28.0629C29.3695 28.0629 32.2184 25.214 32.2184 21.6998C32.2184 18.1855 29.3695 15.3367 25.8553 15.3367C22.341 15.3367 19.4922 18.1855 19.4922 21.6998C19.4922 25.214 22.341 28.0629 25.8553 28.0629Z" fill="white"/>
</svg>
