<svg width="500" height="411" viewBox="0 0 500 411" fill="none" xmlns="http://www.w3.org/2000/svg">
<path d="M184.341 157.183C185.943 150.869 183.896 148.645 185.142 144.643C186.388 140.641 187.989 139.751 198.042 138.951C204.982 138.417 209.697 140.819 209.697 140.819C209.697 140.819 203.292 132.103 196.441 132.192C190.124 132.192 179.27 128.99 178.914 122.764C178.647 119.029 189.235 121.875 193.683 122.231C205.427 123.209 216.904 131.302 223.843 138.151C230.783 144.999 231.672 164.743 245.106 181.463C265.747 207.255 312.188 233.491 339.501 257.059C353.558 269.244 348.131 344.218 324.644 346.085C294.039 348.487 251.868 244.519 229.982 210.812C218.861 193.647 213.078 197.827 207.829 189.912C204.804 185.376 206.227 181.908 204.359 182.797C201.334 184.22 193.238 184.576 190.302 181.018C187.544 177.728 185.498 170.79 185.409 169.723C184.964 166.433 182.829 163.498 184.43 157.183H184.341Z" fill="#FFE9C0"/>
<path d="M323.577 347.064C323.577 347.064 324.288 347.064 324.644 347.064C332.029 346.53 338.256 339.149 342.616 325.986C350.089 303.129 350.178 265.331 340.036 256.526C329.627 247.543 316.726 238.383 303.114 228.689C281.228 213.125 258.541 197.027 245.819 181.107C238.345 171.769 234.787 161.452 231.94 153.092C229.716 146.511 227.758 140.908 224.555 137.706C220.997 134.237 208.274 122.676 193.772 121.519C192.794 121.519 191.459 121.253 190.036 120.986C184.52 120.096 180.516 119.563 178.826 121.164C178.292 121.608 178.025 122.32 178.114 123.031C178.559 130.235 190.392 133.259 196.441 133.259C196.441 133.259 196.53 133.259 196.619 133.259C200.623 133.259 204.627 136.639 206.94 139.04C204.804 138.506 201.78 137.973 198.043 138.24C187.812 139.04 185.765 140.018 184.431 144.554C183.808 146.6 183.986 148.112 184.075 149.801C184.253 151.669 184.431 153.804 183.63 157.094C182.385 161.897 183.274 165.01 183.986 167.411C184.253 168.3 184.52 169.19 184.609 169.99C184.787 171.324 186.833 178.35 189.769 181.73C193.061 185.643 201.424 185.287 204.804 183.775C204.804 183.953 204.893 184.309 204.982 184.576C205.249 185.91 205.605 188.133 207.296 190.624C209.52 194.003 211.833 195.248 214.502 196.76C218.239 198.806 222.865 201.385 229.449 211.524C235.32 220.595 242.527 234.47 250.979 250.656C273.399 293.791 301.157 347.242 323.844 347.242L323.577 347.064ZM182.385 121.786C184.52 121.786 187.545 122.231 189.68 122.587C191.192 122.853 192.527 123.031 193.595 123.12C207.474 124.276 219.84 135.394 223.221 138.862C226.157 141.708 228.025 147.222 230.16 153.537C233.096 161.986 236.744 172.569 244.395 182.086C257.296 198.183 280.071 214.37 302.046 230.023C315.659 239.717 328.559 248.877 338.879 257.771C347.687 265.42 348.844 301.35 341.014 325.363C337.011 337.637 331.139 344.752 324.644 345.196C324.288 345.196 324.022 345.196 323.666 345.196C302.046 345.196 273.399 290.055 252.313 249.589C243.95 233.402 236.655 219.439 230.783 210.368C224.022 199.873 219.128 197.205 215.214 194.981C212.634 193.558 210.587 192.402 208.63 189.467C207.207 187.333 206.851 185.376 206.584 184.131C206.406 183.064 206.228 182.352 205.516 181.908C204.893 181.552 204.271 181.908 204.004 181.908C201.246 183.242 193.594 183.509 190.925 180.396C188.345 177.283 186.299 170.613 186.21 169.545C186.032 168.567 185.854 167.678 185.498 166.699C184.787 164.387 184.075 161.719 185.143 157.361C186.032 153.804 185.854 151.491 185.676 149.446C185.498 147.845 185.409 146.511 185.943 144.91C186.922 141.619 187.723 140.641 198.043 139.84C204.627 139.307 209.164 141.619 209.253 141.619C209.609 141.797 210.054 141.708 210.32 141.441C210.587 141.086 210.587 140.641 210.32 140.374C210.054 140.018 203.648 131.303 196.441 131.303C196.441 131.303 196.353 131.303 196.264 131.303C189.68 131.303 180.071 128.012 179.716 122.765C179.716 122.498 179.716 122.409 179.893 122.32C180.338 121.964 181.228 121.786 182.385 121.786Z" fill="#373737"/>
<path d="M363.701 162.608C421.174 162.608 437.811 175.771 452.58 196.938C493.327 255.459 481.406 365.118 481.584 409.142H253.915C255.783 334.346 263.968 282.585 287.811 213.569C299.733 178.973 296.708 162.608 363.701 162.608Z" fill="white"/>
<path d="M254.004 410.031H481.584C481.584 410.031 482.029 409.942 482.206 409.764C482.384 409.587 482.473 409.409 482.473 409.142C482.473 402.027 482.74 393.222 483.096 382.994C484.787 331.589 487.633 245.675 453.381 196.404C437.367 173.37 419.039 161.63 363.701 161.63C303.381 161.63 299.11 175.326 290.48 202.541C289.413 205.921 288.345 209.389 287.011 213.213C263.968 280.094 255.071 331.411 253.025 409.053C253.025 409.32 253.025 409.498 253.292 409.675C253.47 409.853 253.648 409.942 253.915 409.942L254.004 410.031ZM480.694 408.252H254.893C256.94 331.233 265.836 280.272 288.701 213.836C290.036 210.012 291.103 206.454 292.171 203.164C300.801 175.949 304.715 163.498 363.701 163.498C422.687 163.498 438.523 178.261 451.868 197.472C485.854 246.209 483.007 331.855 481.317 382.994C480.961 392.777 480.694 401.315 480.694 408.252Z" fill="#373737"/>
<path d="M361.388 314.869C360.231 289.611 365.036 263.73 365.569 238.472C366.014 218.105 367.26 200.585 379.182 183.42C383.719 176.927 384.52 168.834 382.74 161.274C428.203 165.366 448.488 178.172 461.566 196.849C502.402 255.459 490.48 365.118 490.569 409.142H362.722C362.722 356.936 363.078 350.444 361.388 314.869Z" fill="#D4FF8B"/>
<path d="M362.722 410.031H490.569C490.569 410.031 491.014 409.942 491.192 409.764C491.37 409.586 491.459 409.409 491.459 409.142C491.459 402.027 491.726 393.222 492.081 382.994C493.772 331.589 496.619 245.675 462.366 196.404C447.331 174.792 423.576 164.031 382.918 160.474C382.651 160.474 382.384 160.563 382.206 160.74C382.028 160.918 381.939 161.274 382.028 161.541C383.896 169.545 382.651 177.105 378.558 182.975C366.548 200.14 365.213 217.482 364.768 238.471C364.501 248.877 363.523 259.638 362.633 269.955C361.299 284.719 359.875 300.016 360.587 314.868C362.01 344.04 361.921 353.556 361.921 385.04C361.921 391.888 361.921 399.714 361.921 409.053C361.921 409.586 362.277 409.942 362.811 409.942L362.722 410.031ZM489.679 408.252H363.612C363.612 399.27 363.612 391.71 363.612 385.129C363.612 353.645 363.612 344.129 362.277 314.868C361.565 300.105 362.989 284.897 364.323 270.222C365.302 259.816 366.281 249.055 366.459 238.56C366.904 217.927 368.238 200.762 379.982 184.042C384.163 178.083 385.587 170.435 383.985 162.341C423.309 165.988 446.352 176.571 460.943 197.471C494.928 246.209 492.081 331.855 490.391 382.994C490.035 392.777 489.768 401.315 489.768 408.252H489.679Z" fill="#373737"/>
<path d="M316.371 166.877C320.552 165.098 334.075 162.252 334.075 162.252C334.075 162.252 273.132 247.365 273.132 409.142H246.175C253.114 335.146 257.207 284.274 281.05 215.17C288.879 192.402 296.709 175.059 316.371 166.877Z" fill="#D4FF8B"/>
<path d="M246.175 410.031H273.132C273.666 410.031 274.022 409.675 274.022 409.142C274.022 249.589 334.164 163.675 334.787 162.786C334.965 162.519 335.054 162.074 334.787 161.808C334.609 161.541 334.164 161.363 333.897 161.452C333.363 161.541 320.285 164.298 316.014 166.077C295.552 174.615 287.634 193.291 280.16 214.903C257.296 281.339 252.58 331.233 246.086 400.248L245.285 409.053C245.285 409.053 245.285 409.586 245.552 409.764C245.73 409.942 245.997 410.031 246.175 410.031ZM272.242 408.252H247.153L247.865 400.426C254.36 331.5 258.986 281.606 281.851 215.437C289.235 194.181 296.886 175.86 316.726 167.589C319.84 166.254 328.203 164.387 332.118 163.497C323.399 176.838 272.42 261.328 272.242 408.163V408.252Z" fill="#373737"/>
<path d="M343.239 26.4457C361.922 33.7385 365.659 68.6019 365.659 68.6019C375.267 66.8231 382.563 71.8925 383.186 81.6756C384.075 95.0162 373.844 102.22 373.844 102.22C380.428 137.706 389.235 160.83 389.235 160.83C389.235 160.83 373.31 184.487 343.951 184.487C325.089 184.487 333.63 163.231 333.63 163.231C338.613 153.715 336.655 139.04 336.655 139.04C303.47 145.266 288.257 109.513 289.324 93.9489C290.392 78.385 289.324 72.604 288.346 64.155C285.588 39.8752 324.556 19.0639 343.239 26.3568V26.4457Z" fill="#FFE9C0"/>
<path d="M334.431 24.0444C337.812 24.0444 340.926 24.5781 343.595 25.5564C361.032 32.4045 365.659 61.5759 366.459 67.5347C367.438 67.3568 368.417 67.3568 369.306 67.3568C377.758 67.3568 383.541 72.9598 384.075 81.6757C384.876 93.8601 376.958 101.064 374.822 102.754C381.228 137.439 389.947 160.296 390.036 160.563L390.214 161.008L389.947 161.452C389.947 161.452 373.399 185.465 343.862 185.465C338.612 185.465 334.787 183.864 332.652 180.663C328.292 174.081 332.474 163.409 332.652 162.875C336.655 155.138 336.032 143.754 335.677 140.285C333.452 140.641 331.228 140.819 329.004 140.819C318.773 140.819 309.431 136.55 301.958 128.546C292.26 118.051 287.634 102.843 288.257 93.949C289.235 80.2527 288.435 74.205 287.634 67.1789L287.278 64.4219C286.388 57.0401 289.235 49.4804 295.374 42.4544C304.805 31.782 321.175 24.0444 334.342 24.0444H334.431ZM289.324 64.1551L289.68 66.9121C290.57 74.0271 291.281 80.1637 290.303 94.0379C289.68 102.576 294.128 117.073 303.559 127.211C310.588 134.86 319.484 138.862 329.182 138.862C331.584 138.862 333.986 138.595 336.477 138.151L337.456 137.973L337.634 138.951C337.634 139.574 339.502 153.982 334.52 163.587C334.52 163.676 330.516 173.815 334.342 179.506C336.121 182.175 339.324 183.509 343.951 183.509C370.374 183.509 385.943 163.765 388.168 160.741C386.833 157.183 378.915 134.86 372.954 102.487V101.864L373.31 101.509C373.399 101.509 383.096 94.3937 382.296 81.7646C381.762 74.0271 376.869 69.2245 369.395 69.2245C368.239 69.2245 367.082 69.3134 365.837 69.5802L364.858 69.7581V68.6909C364.858 68.6909 360.943 34.3611 342.972 27.3351C340.57 26.3568 337.723 25.9121 334.52 25.9121C321.886 25.9121 306.139 33.3828 296.975 43.6995C291.193 50.2809 288.523 57.3069 289.324 64.1551Z" fill="#373737"/>
<path d="M322.064 59.5303C322.064 59.5303 332.829 59.886 340.658 68.6908C341.014 69.1355 341.014 69.847 340.658 70.2027C340.48 70.3806 340.213 70.4695 339.946 70.4695C339.679 70.4695 339.323 70.3806 339.145 70.1138C331.939 62.0205 322.242 61.6648 322.153 61.6648C321.53 61.6648 321.085 61.1311 321.085 60.5975C321.085 59.975 321.619 59.6192 322.153 59.5303H322.064Z" fill="#373737"/>
<path d="M291.574 71.501C297.622 66.6746 305.207 65.8171 305.332 65.8122C305.896 65.7277 306.319 65.2709 306.295 64.6425C306.21 64.0793 305.688 63.5959 305.124 63.6804C304.747 63.6949 296.785 64.5669 290.25 69.7897C290.25 69.7897 290.189 69.8549 290.129 69.9202C289.766 70.3117 289.725 70.8797 290.056 71.3075C290.448 71.6701 291.147 71.8321 291.574 71.501Z" fill="#373737"/>
<path d="M308.808 95.6384C310.765 95.1937 312.9 96.261 315.302 98.7512C315.747 99.1959 315.658 99.8185 315.302 100.263C315.124 100.441 314.857 100.53 314.591 100.53C314.324 100.53 314.057 100.441 313.79 100.174C312.011 98.3065 310.409 97.4172 309.341 97.684C308.096 97.9508 307.473 99.5516 307.473 99.5516C307.295 100.085 306.672 100.441 306.139 100.174C305.605 99.9963 305.249 99.3738 305.516 98.8401C305.516 98.7512 306.495 96.0831 308.897 95.5495L308.808 95.6384Z" fill="#373737"/>
<path d="M332.83 74.4716C334.342 75.0941 335.143 76.695 334.609 78.029C334.075 79.3631 332.385 79.9857 330.872 79.3631C329.36 78.7405 328.559 77.1397 329.093 75.8056C329.627 74.4716 331.317 73.849 332.83 74.4716Z" fill="#373737"/>
<path d="M300.445 80.5194C301.957 81.142 302.758 82.7428 302.224 84.0769C301.69 85.4109 300 86.0335 298.487 85.4109C296.975 84.7884 296.174 83.1875 296.708 81.8535C297.242 80.5194 298.932 79.8968 300.445 80.5194Z" fill="#373737"/>
<path d="M321.797 109.869C327.936 113.248 333.897 103.821 333.986 103.732C334.342 103.198 334.965 103.109 335.41 103.376C335.943 103.732 336.032 104.354 335.765 104.888C335.498 105.244 330.783 112.803 324.644 112.803C323.399 112.803 322.153 112.537 320.819 111.736C320.285 111.469 320.107 110.758 320.374 110.313C320.641 109.78 321.264 109.602 321.797 109.869Z" fill="#373737"/>
<path d="M374.556 74.2936C376.869 75.5387 378.381 77.94 379.004 81.5864C379.093 82.209 378.737 82.7426 378.203 82.8315H378.025C377.492 82.8315 377.047 82.4758 376.958 81.9421C376.424 79.0072 375.267 77.0506 373.577 76.1612C371.086 74.8272 368.061 76.1612 368.061 76.1612C367.527 76.428 366.904 76.1612 366.637 75.6276C366.371 75.094 366.637 74.4714 367.171 74.2046C367.349 74.2046 371.086 72.4259 374.556 74.2046V74.2936Z" fill="#373737"/>
<path d="M376.868 79.1854C377.402 79.0965 378.024 79.4522 378.113 80.0748C378.202 80.6973 377.847 81.231 377.224 81.3199C371.352 82.3871 370.729 86.4782 370.729 86.7451C370.729 87.2787 370.195 87.7234 369.661 87.7234C369.661 87.7234 369.661 87.7234 369.572 87.7234C369.039 87.7234 368.594 87.1008 368.594 86.5672C368.594 86.3004 369.395 80.6973 376.868 79.2743V79.1854Z" fill="#373737"/>
<path d="M334.964 0.12004C360.409 -1.74764 369.484 18.7968 369.484 18.7968C410.765 1.80984 416.815 74.4715 427.402 93.4151C439.946 116.005 447.331 147.756 478.381 158.161C509.341 168.567 494.573 185.287 494.573 185.287C510.053 206.81 479.27 228.155 479.27 228.155C479.27 228.155 464.502 196.582 447.776 183.508C432.918 171.858 416.904 167.055 400 167.055C383.096 167.055 389.324 233.936 367.171 233.936C351.067 233.936 349.555 217.127 349.555 217.127C349.555 217.127 320.996 200.94 350.8 171.68C387.9 135.215 362.811 103.465 372.864 101.597C377.402 100.708 381.227 92.081 382.295 87.6341C385.498 75.094 376.601 67.7122 363.879 69.6689C338.79 73.4931 336.477 32.0485 336.477 32.0485C300.889 38.7187 289.324 78.0289 289.324 78.0289C269.573 47.0788 290.391 3.49965 334.964 0.12004Z" fill="#373737"/>
<path d="M296.53 360.049C307.029 363.784 319.217 355.246 325.178 359.248C330.071 362.539 327.669 374.457 306.317 373.389C284.964 372.322 285.943 356.313 296.53 360.049Z" fill="white"/>
<path d="M308.896 374.279C323.754 374.279 327.135 367.697 327.847 365.652C328.736 362.806 327.847 359.96 325.622 358.448C322.42 356.313 317.971 357.38 312.811 358.448C307.74 359.604 301.868 360.938 296.708 359.07C293.772 358.003 291.103 358.359 289.501 359.96C288.167 361.383 287.811 363.517 288.701 365.652C290.213 369.387 295.551 373.656 306.138 374.19C307.028 374.19 307.918 374.19 308.807 374.19L308.896 374.279ZM320.996 358.981C322.42 358.981 323.665 359.248 324.733 359.871C326.245 360.938 326.868 362.983 326.245 365.029C325 368.675 319.839 372.5 308.896 372.5C308.096 372.5 307.295 372.5 306.405 372.5C296.619 372.055 291.815 368.409 290.48 365.118C289.857 363.606 290.035 362.183 290.925 361.383C291.992 360.315 293.95 360.138 296.263 360.938C301.957 362.983 308.007 361.56 313.345 360.315C316.192 359.693 318.861 359.07 320.996 359.07V358.981Z" fill="#373737"/>
<path d="M313.701 361.56C326.513 348.131 356.495 371.521 372.954 362.094C382.651 356.58 405.16 328.92 433.007 316.647C438.968 313.979 417.705 273.068 417.705 273.068C444.395 253.591 486.655 257.326 486.655 257.326C486.655 257.326 505.071 314.513 497.153 331.233C479.716 367.964 408.274 378.903 388.345 387.263C375.801 392.511 375.356 392.333 367.794 392.333C343.684 392.333 345.463 380.059 339.324 387.085C332.563 394.734 284.609 394.289 284.609 394.289C284.609 394.289 300.89 375.079 313.79 361.649L313.701 361.56Z" fill="#FFE9C0"/>
<path d="M286.655 395.179C296.175 395.179 333.808 394.734 339.947 387.708C342.171 385.129 342.794 385.484 345.374 387.263C348.666 389.487 354.271 393.311 367.705 393.311H368.861C375.445 393.311 376.602 393.222 388.612 388.153C393.061 386.285 400.267 384.239 408.63 381.927C438.701 373.389 484.253 360.582 497.865 331.766C505.872 314.868 488.167 259.55 487.456 257.148C487.367 256.792 487.011 256.526 486.655 256.526C486.21 256.526 443.683 252.968 417.082 272.445C416.726 272.712 416.637 273.157 416.815 273.602C421.975 283.385 434.787 310.155 432.918 315.491C432.74 315.847 432.562 315.936 432.562 316.025C413.968 324.207 397.954 339.148 386.21 349.999C380.338 355.424 375.712 359.693 372.509 361.56C365.036 365.829 354.271 362.983 343.861 360.137C332.207 356.936 320.196 353.734 313.079 361.205C300.356 374.545 284.075 393.756 283.897 393.934C283.63 394.2 283.63 394.556 283.808 394.912C283.986 395.268 284.253 395.445 284.609 395.445C284.787 395.445 285.587 395.445 286.744 395.445L286.655 395.179ZM342.616 384.061C341.459 384.061 340.214 384.773 338.701 386.552C333.719 392.244 301.869 393.4 287.1 393.4H286.566C290.659 388.686 303.826 373.389 314.413 362.183C320.73 355.513 331.762 358.448 343.417 361.649C354.182 364.584 365.303 367.608 373.399 362.894C376.78 361.027 381.495 356.669 387.456 351.155C399.111 340.393 415.036 325.63 433.363 317.537C433.808 317.359 434.342 316.914 434.698 316.025C437.011 309.265 421.886 279.383 418.861 273.424C443.239 256.081 480.872 257.86 486.032 258.215C487.901 264.263 503.648 315.58 496.353 330.966C483.007 359.07 437.99 371.788 408.185 380.237C399.822 382.638 392.527 384.684 387.99 386.552C375.979 391.532 375.178 391.532 368.328 391.532H367.705C354.804 391.532 349.466 387.975 346.353 385.84C344.84 384.862 343.683 384.15 342.527 384.15L342.616 384.061Z" fill="#373737"/>
<path d="M314.146 380.86L298.309 394.823L297.064 393.4L312.9 379.348L314.146 380.86Z" fill="#373737"/>
<path d="M328.381 380.86L312.545 394.823L311.299 393.4L327.135 379.348L328.381 380.86Z" fill="#373737"/>
<path d="M423.398 169.634C476.779 184.487 494.217 269.6 494.217 269.6C449.644 301.795 414.324 296.725 414.324 296.725L406.05 269.422L423.309 169.634H423.398Z" fill="#D4FF8B"/>
<path d="M419.84 297.882C431.584 297.882 460.676 294.947 494.751 270.4C495.018 270.222 495.196 269.866 495.107 269.511C494.929 268.621 476.868 183.686 423.665 168.834C423.132 168.745 422.687 169.012 422.598 169.456C422.509 169.901 422.776 170.435 423.221 170.524C473.132 184.398 491.548 261.862 493.238 269.244C452.758 298.326 419.662 296.281 415.036 295.925L406.939 269.155C406.762 268.71 406.317 268.443 405.872 268.532C405.427 268.71 405.16 269.155 405.249 269.6L413.434 296.903C413.434 296.903 413.79 297.437 414.146 297.526C414.146 297.526 416.192 297.793 419.751 297.793L419.84 297.882Z" fill="#373737"/>
<path d="M7.4729 231.268H177.046C179.982 231.268 182.473 233.402 183.363 236.515L223.309 384.328C223.932 386.552 223.576 388.953 222.331 390.91C221.085 392.777 219.128 393.934 217.081 393.934H47.5085C44.5725 393.934 42.0815 391.799 41.1918 388.686L1.24513 240.873C0.62236 238.649 0.978241 236.248 2.22379 234.291C3.46935 232.424 5.42664 231.268 7.4729 231.268Z" fill="#373737"/>
<path d="M47.4203 394.823H216.993C219.395 394.823 221.62 393.578 223.043 391.443C224.467 389.309 224.822 386.641 224.2 384.151L184.253 236.337C183.274 232.78 180.427 230.467 177.136 230.467H7.56271C5.16057 230.467 2.93636 231.712 1.60184 233.847C0.178345 235.981 -0.177536 238.65 0.445236 241.14L40.3919 388.953C41.3705 392.511 44.2175 394.823 47.5093 394.823H47.4203ZM177.047 232.157C179.538 232.157 181.762 234.025 182.474 236.782L222.42 384.595C222.954 386.641 222.598 388.775 221.531 390.465C220.463 392.066 218.773 393.044 216.993 393.044H47.4203C44.9293 393.044 42.705 391.177 41.9933 388.509L2.04668 240.695C1.51286 238.649 1.86876 236.515 2.93637 234.825C4.00398 233.224 5.69437 232.246 7.47372 232.246H177.047V232.157Z" fill="#373737"/>
<path d="M12.7229 231.268H182.296C185.232 231.268 187.723 233.402 188.613 236.515L228.559 384.328C229.182 386.552 228.826 388.953 227.581 390.91C226.335 392.777 224.378 393.934 222.331 393.934H52.7585C49.8225 393.934 47.3315 391.799 46.4418 388.686L6.49513 240.873C5.87236 238.649 6.22824 236.248 7.47379 234.291C8.71935 232.424 10.6766 231.268 12.7229 231.268Z" fill="#51A4FF"/>
<path d="M52.6686 394.823H222.242C224.644 394.823 226.868 393.578 228.291 391.443C229.715 389.309 230.071 386.641 229.359 384.151L189.412 236.337C188.434 232.78 185.587 230.467 182.295 230.467H12.7219C10.3198 230.467 8.09561 231.712 6.67212 233.847C5.24863 235.981 4.89275 238.65 5.51552 241.14L45.4622 388.953C46.4408 392.511 49.2878 394.823 52.5796 394.823H52.6686ZM182.295 232.157C184.786 232.157 187.01 234.025 187.722 236.782L227.669 384.595C228.202 386.641 227.847 388.775 226.779 390.465C225.711 392.066 224.021 393.044 222.242 393.044H52.6686C50.1775 393.044 47.9533 391.177 47.2415 388.509L7.29489 240.695C6.76108 238.649 7.11697 236.515 8.18459 234.825C9.25221 233.224 10.9426 232.246 12.7219 232.246H182.295V232.157Z" fill="#373737"/>
<path d="M338.968 393.934C338.968 402.383 332.562 409.142 324.644 409.142H84.5194C76.6012 409.142 70.1955 402.294 70.1955 393.934H338.968Z" fill="#373737"/>
<path d="M84.5193 410.031H324.644C333.007 410.031 339.857 402.828 339.857 393.934C339.857 393.4 339.502 393.044 338.968 393.044H70.1955C69.6617 393.044 69.3058 393.4 69.3058 393.934C69.3058 402.828 76.1563 410.031 84.5193 410.031ZM338.078 394.823C337.633 402.294 331.761 408.253 324.644 408.253H84.5193C77.4019 408.253 71.53 402.294 71.0852 394.823H338.078Z" fill="#373737"/>
<path d="M185.054 393.934C185.054 402.383 178.648 409.142 170.73 409.142H55.8721C47.954 409.142 41.5483 402.294 41.5483 393.934H185.143H185.054Z" fill="#373737"/>
<path d="M55.7833 410.031H170.641C179.093 410.031 185.854 402.828 185.854 393.934C185.854 393.4 185.499 393.044 184.965 393.044H41.3705C40.8367 393.044 40.4808 393.4 40.4808 393.934C40.4808 402.828 47.3314 410.031 55.6944 410.031H55.7833ZM184.164 394.823C183.719 402.294 177.847 408.253 170.73 408.253H55.8723C48.7549 408.253 42.883 402.294 42.4381 394.823H184.164Z" fill="#373737"/>
<path d="M49.8218 201.296H195.64C199.288 201.296 202.313 198.361 202.313 194.803L202.847 96.7947C202.847 93.1483 199.911 90.2134 196.263 90.2134H50.0887C46.441 90.2134 43.4161 93.1483 43.4161 96.7947L43.2382 194.803C43.2382 198.361 46.1741 201.296 49.8218 201.296Z" fill="#FEC847"/>
<path d="M49.9999 201.918H195.818C199.733 201.918 202.936 198.806 203.025 194.892L203.559 96.8837C203.559 94.9271 202.758 92.9705 201.334 91.6364C199.911 90.3024 198.043 89.502 196.174 89.502H49.9999C46.0853 89.502 42.7935 92.6148 42.7935 96.528L42.6155 194.537C42.6155 196.493 43.4162 198.361 44.9287 199.784C46.3522 201.118 48.2205 201.829 50.0888 201.829L49.9999 201.918ZM196.441 90.9249C197.954 90.9249 199.377 91.4586 200.445 92.5258C201.601 93.5931 202.224 95.105 202.224 96.7059L201.69 194.715C201.69 198.005 198.932 200.762 195.551 200.762H49.733C48.2205 200.762 46.797 200.229 45.7294 199.161C44.5728 198.094 43.9501 196.582 43.9501 195.07L44.128 97.0616C44.128 93.682 46.886 91.0139 50.2668 91.0139H196.441V90.9249Z" fill="#373737"/>
<path d="M136.033 185.02H182.474C184.342 185.02 185.766 183.597 185.766 181.73V168.656C185.766 166.877 184.342 165.365 182.563 165.365H136.121C134.253 165.365 132.83 166.788 132.83 168.656V181.73C132.83 183.508 134.253 185.02 136.121 185.02H136.033Z" fill="white"/>
<path d="M136.21 185.643H182.651C184.786 185.643 186.477 184.042 186.477 181.908V168.834C186.477 167.767 186.121 166.699 185.32 165.899C184.519 165.098 183.541 164.743 182.384 164.743H135.943C133.808 164.743 132.117 166.344 132.117 168.478V181.552C132.117 182.619 132.473 183.686 133.363 184.487C134.163 185.287 135.142 185.643 136.299 185.643H136.21ZM182.74 166.077C183.363 166.077 183.985 166.344 184.43 166.699C184.875 167.144 185.142 167.767 185.142 168.478V181.552C185.142 183.064 183.808 184.309 182.206 184.309H135.765C135.142 184.309 134.519 184.042 134.074 183.686C133.63 183.242 133.363 182.619 133.363 181.908V168.834C133.363 167.322 134.697 166.077 136.21 166.077H182.651H182.74Z" fill="#373737"/>
<path d="M63.1673 185.02H109.609C111.477 185.02 112.9 183.597 112.9 181.73V168.656C112.9 166.877 111.477 165.365 109.609 165.365H63.1673C61.299 165.365 59.8755 166.788 59.8755 168.656V181.73C59.8755 183.508 61.299 185.02 63.1673 185.02Z" fill="#0AD6A1"/>
<path d="M63.3454 185.643H109.787C111.922 185.643 113.612 184.042 113.612 181.908V168.834C113.612 167.767 113.167 166.699 112.367 165.899C111.566 165.098 110.498 164.743 109.431 164.743H62.9895C60.8543 164.743 59.1639 166.344 59.1639 168.478V181.552C59.1639 182.619 59.6087 183.686 60.4095 184.487C61.2102 185.287 62.1888 185.643 63.3454 185.643ZM109.787 166.077C110.409 166.077 111.032 166.344 111.477 166.699C111.922 167.144 112.189 167.767 112.189 168.478V181.552C112.189 183.064 110.854 184.309 109.342 184.309H62.9006C62.2778 184.309 61.655 184.042 61.2102 183.686C60.7653 183.242 60.4984 182.619 60.4984 181.908V168.834C60.4984 167.322 61.8329 166.077 63.3454 166.077H109.787Z" fill="#373737"/>
<path d="M59.9646 113.159H99.8223V106.578H59.9646V113.159Z" fill="#373737"/>
<path d="M113.167 113.159H186.21V106.578H113.167V113.159Z" fill="#373737"/>
<path d="M59.9647 132.814H146.264V126.233H59.9647V132.814Z" fill="#373737"/>
<path d="M159.52 132.814H186.032L186.121 126.233H159.52V132.814Z" fill="#373737"/>
<path d="M106.317 152.381H185.943L186.032 145.888H106.406L106.317 152.381Z" fill="#373737"/>
<path d="M189.234 124.098C191.37 124.365 196.263 130.413 199.377 132.192C202.491 133.97 214.057 141.53 214.057 141.53L222.775 177.461C199.021 170.612 205.605 152.114 190.391 141.263C183.185 136.105 183.096 123.298 189.234 124.098Z" fill="#FFE9C0"/>
<path d="M222.776 178.35C222.776 178.35 223.488 178.083 223.666 177.728C223.844 177.283 223.577 176.749 223.043 176.66C209.609 172.747 206.228 165.099 202.669 157.094C200.089 151.313 197.42 145.266 190.926 140.641C186.121 137.261 184.965 130.324 186.21 127.122C186.833 125.61 187.812 124.899 189.146 125.077C190.036 125.166 192.171 127.211 193.862 128.812C195.641 130.502 197.42 132.192 199.022 133.081C202.047 134.86 213.523 142.331 213.612 142.42C214.057 142.686 214.591 142.597 214.858 142.153C215.125 141.708 215.036 141.174 214.591 140.908C214.146 140.552 203.025 133.259 199.911 131.48C198.577 130.769 196.797 129.079 195.107 127.478C192.438 124.988 190.748 123.476 189.413 123.298C187.367 123.031 185.499 124.187 184.609 126.411C182.918 130.769 184.787 138.417 189.947 142.064C196.086 146.422 198.666 152.203 201.068 157.806C204.627 165.899 208.363 174.259 222.598 178.439C222.598 178.439 222.776 178.439 222.865 178.439L222.776 178.35Z" fill="#373737"/>
</svg>
