<svg width="72" height="98" viewBox="0 0 72 98" fill="none" xmlns="http://www.w3.org/2000/svg">
<path d="M0 71.0391H71.0391V7.76169e-05H0V71.0391Z" fill="black"/>
<path d="M23.0011 97.0664V82.5464H27.7751L32.9451 92.3804H32.9891V82.5464H36.5091V97.0664H32.0211L26.5651 86.9024H26.5211V97.0664H23.0011ZM43.6005 97.3744C42.4858 97.3744 41.4958 97.1544 40.6305 96.7144C39.7652 96.2597 39.0905 95.5851 38.6065 94.6904C38.1225 93.7811 37.8805 92.6444 37.8805 91.2804C37.8805 89.8577 38.1298 88.6991 38.6285 87.8044C39.1418 86.8951 39.8312 86.2277 40.6965 85.8024C41.5765 85.3624 42.5665 85.1424 43.6665 85.1424C44.8105 85.1424 45.8078 85.3697 46.6585 85.8244C47.5238 86.2644 48.1912 86.9391 48.6605 87.8484C49.1445 88.7431 49.3865 89.8797 49.3865 91.2584C49.3865 92.6811 49.1298 93.8471 48.6165 94.7564C48.1178 95.6511 47.4285 96.3111 46.5485 96.7364C45.6832 97.1617 44.7005 97.3744 43.6005 97.3744ZM43.6885 94.7564C44.1432 94.7564 44.5245 94.6317 44.8325 94.3824C45.1405 94.1184 45.3752 93.7371 45.5365 93.2384C45.6978 92.7397 45.7785 92.1457 45.7785 91.4564C45.7785 90.6937 45.6905 90.0557 45.5145 89.5424C45.3385 89.0144 45.0818 88.6111 44.7445 88.3324C44.4218 88.0537 44.0258 87.9144 43.5565 87.9144C43.1165 87.9144 42.7425 88.0464 42.4345 88.3104C42.1265 88.5597 41.8918 88.9337 41.7305 89.4324C41.5692 89.9311 41.4885 90.5324 41.4885 91.2364C41.4885 92.3511 41.6792 93.2164 42.0605 93.8324C42.4565 94.4484 42.9992 94.7564 43.6885 94.7564Z" fill="#34352E"/>
</svg>
