<svg width="26" height="26" viewBox="0 0 26 26" fill="none" xmlns="http://www.w3.org/2000/svg">
<path d="M7.81323 8.87333C8.68323 10.6854 9.86922 12.3837 11.3712 13.8856C12.8732 15.3876 14.5715 16.5736 16.3835 17.4436C16.5394 17.5184 16.6173 17.5558 16.7159 17.5846C17.0663 17.6867 17.4967 17.6134 17.7934 17.4008C17.877 17.341 17.9484 17.2696 18.0913 17.1267C18.5283 16.6897 18.7468 16.4712 18.9665 16.3283C19.7951 15.7896 20.8634 15.7896 21.692 16.3283C21.9117 16.4712 22.1302 16.6897 22.5672 17.1267L22.8108 17.3703C23.4751 18.0346 23.8073 18.3667 23.9877 18.7235C24.3465 19.4329 24.3465 20.2708 23.9877 20.9802C23.8073 21.3369 23.4751 21.6691 22.8108 22.3334L22.6138 22.5304C21.9517 23.1925 21.6207 23.5235 21.1707 23.7763C20.6713 24.0568 19.8957 24.2585 19.3229 24.2568C18.8067 24.2553 18.4539 24.1551 17.7484 23.9549C13.9566 22.8787 10.3787 20.8481 7.39371 17.8631C4.40874 14.8781 2.37815 11.3002 1.30194 7.50843C1.10168 6.80288 1.00155 6.4501 1.00001 5.93391C0.998306 5.36114 1.20001 4.58552 1.48053 4.08614C1.73334 3.6361 2.06436 3.30509 2.72639 2.64306L2.92343 2.44601C3.58773 1.78171 3.91988 1.44956 4.27661 1.26913C4.98606 0.910291 5.82389 0.910291 6.53334 1.26913C6.89007 1.44956 7.22222 1.78171 7.88652 2.44601L8.13011 2.6896C8.56712 3.12661 8.78562 3.34511 8.92848 3.56483C9.46722 4.39345 9.46722 5.46167 8.92848 6.29029C8.78562 6.51001 8.56712 6.72851 8.13011 7.16552C7.98722 7.30841 7.91578 7.37985 7.85598 7.46337C7.64346 7.76016 7.57008 8.19048 7.67224 8.54092C7.70099 8.63954 7.7384 8.71747 7.81323 8.87333Z" stroke="#FFC107" stroke-width="2" stroke-linecap="round" stroke-linejoin="round"/>
</svg>
