<svg width="90" height="90" viewBox="0 0 90 90" fill="none" xmlns="http://www.w3.org/2000/svg">
<circle cx="45" cy="45" r="45" fill="#34352E"/>
<path d="M38.875 43.5622L42.625 47.3122L51.0625 38.8747M59.5 44.4997C59.5 53.703 49.4613 60.3967 45.8087 62.5276C45.3936 62.7698 45.1861 62.8909 44.8932 62.9537C44.6658 63.0024 44.3342 63.0024 44.1069 62.9537C43.8139 62.8909 43.6064 62.7698 43.1913 62.5276C39.5387 60.3967 29.5 53.703 29.5 44.4997V35.5327C29.5 34.0336 29.5 33.2841 29.7452 32.6398C29.9618 32.0706 30.3137 31.5627 30.7706 31.1601C31.2878 30.7043 31.9896 30.4411 33.3933 29.9147L43.4466 26.1447C43.8364 25.9985 44.0313 25.9254 44.2318 25.8965C44.4097 25.8708 44.5903 25.8708 44.7682 25.8965C44.9687 25.9254 45.1636 25.9985 45.5534 26.1447L55.6067 29.9147C57.0104 30.4411 57.7122 30.7043 58.2294 31.1601C58.6863 31.5627 59.0382 32.0706 59.2548 32.6398C59.5 33.2841 59.5 34.0336 59.5 35.5327V44.4997Z" stroke="#FFC107" stroke-width="2" stroke-linecap="round" stroke-linejoin="round"/>
</svg>
